<?xml version="1.0" encoding="UTF-8"?>
<svg width="319px" height="252px" viewBox="0 0 319 252" version="1.1" xmlns="http://www.w3.org/2000/svg" xmlns:xlink="http://www.w3.org/1999/xlink">
    <!-- Generator: sketchtool 63.1 (101010) - https://sketch.com -->
    <title>9736DB3E-E885-483F-A817-866964347A61@1.5x</title>
    <desc>Created with sketchtool.</desc>
    <defs>
        <polygon id="path-1" points="0.623260121 0.672155844 21.4763193 0.672155844 21.4763193 30.656125 0.623260121 30.656125"></polygon>
    </defs>
    <g id="Recruiter-Design" stroke="none" stroke-width="1" fill="none" fill-rule="evenodd">
        <g id="01_Internapp_Forgot-Password" transform="translate(-561.000000, -434.000000)">
            <g id="img_forgotpassword_illustration" transform="translate(561.000000, 434.000000)">
                <g id="Group-71" transform="translate(0.000000, 32.000000)">
                    <path d="M50.6615151,210.767284 C60.8427226,202.437452 62.1606283,188.426615 60.7191,176.048488 C60.4784774,173.982401 60.5299868,171.778722 59.3827981,170.043003 C58.2348736,168.307284 55.8036283,167.257318 53.9941755,168.285946 C52.4952509,169.137987 51.9617604,170.984074 51.2104585,172.536582 C50.2111755,174.601933 48.6158547,176.374441 46.6665906,177.584074 C45.3854774,178.378722 43.7658736,178.933505 42.3868925,178.323538 C40.4950245,177.487686 40.0800057,175.036047 39.9240057,172.972903 C39.6340811,169.130629 39.3441566,165.287619 39.0542321,161.445343 C38.8982321,159.382936 38.7334019,157.279324 37.9232321,155.376582 C37.1137981,153.473839 35.5309868,151.77491 33.4993075,151.389358 C31.4676283,151.004542 29.1033453,152.337786 28.8487415,154.389157 C28.7427792,155.242669 28.987817,156.09986 29.0003264,156.959993 C29.0121,157.819391 28.685383,158.800194 27.8811,159.107017 C27.0679868,159.416783 26.1849679,158.900997 25.5109302,158.349893 C23.1856472,156.446415 21.5034962,153.88588 19.9184774,151.333438 C18.3334585,148.780261 16.7837604,146.160863 14.6424396,144.052836 C12.5018547,141.944074 9.64896792,140.368756 6.64523208,140.448221 C3.64076038,140.52695 0.603911321,142.611431 0.0851377358,145.572234 C-0.435107547,148.539659 1.52372264,151.345211 3.58483585,153.543003 C6.64302453,156.804007 10.1751,159.619124 14.0361,161.872836 C14.7322132,162.279726 15.4864585,162.71899 15.800666,163.461398 C16.366534,164.797585 15.1590057,166.271365 13.8219679,166.836448 C12.3061189,167.475846 10.6048358,167.45598 8.99259057,167.77899 C7.37960943,168.103472 5.67317547,168.956983 5.1816283,170.526415 C4.49949623,172.704341 6.46494906,174.763806 8.3391566,176.065411 C12.0927226,178.670829 16.2966283,180.627284 20.7073075,181.822936 C22.289383,182.2519 23.9450434,182.605077 25.2710434,183.567485 C26.5970434,184.531365 27.4962509,186.320796 26.8671,187.834308 C26.2372132,189.350027 24.3541755,189.971766 22.7205906,189.810629 C21.0877415,189.648756 19.5770434,188.904876 17.9964396,188.461197 C15.0397981,187.628288 11.3502509,188.128622 9.71225094,190.728154 C8.63570377,192.435913 8.71296792,194.685946 9.48119434,196.553371 C10.2486849,198.420796 11.6225151,199.969625 13.0625717,201.384542 C18.0979868,206.331967 24.3365151,210.133773 31.1791755,211.862134 C38.0233075,213.591967 44.2412321,213.700127 50.6615151,210.767284" id="Fill-1" fill="#E0E0E0" opacity="0.100000001"></path>
                    <path d="M51.5543943,219.961003 C50.6934509,215.082742 49.1231491,209.368629 46.7470925,203.265284 C44.3820736,197.155318 41.2274887,190.671572 37.6924698,184.000201 C36.8020925,182.336589 35.9227528,180.692107 35.0559226,179.071906 C34.1868849,177.454649 33.3266774,175.853579 32.3855264,174.33786 C30.5172057,171.299064 28.4869981,168.517793 26.4751868,165.936656 C24.4641113,163.354047 22.4596585,160.975987 20.5692623,158.76495 C18.6737151,156.557592 16.8679415,154.532709 15.1416396,152.756522 C11.7000736,149.191639 8.58596038,146.645084 6.37620566,144.982207 C5.27169623,144.14709 4.39456415,143.526087 3.79411132,143.112575 C3.50271509,142.913913 3.27533774,142.758662 3.1097717,142.646087 C2.95450755,142.542341 2.87062075,142.496722 2.87062075,142.496722 C2.87062075,142.496722 2.94199811,142.560736 3.09137547,142.672575 C3.25179057,142.791037 3.47401698,142.954381 3.75805472,143.163344 C4.34526226,143.593779 5.2113566,144.229498 6.30188491,145.078595 C8.48662075,146.769431 11.5705642,149.334381 14.9826962,152.910301 C16.6942811,154.691639 18.4875453,156.720936 20.3727906,158.933445 C22.2528849,161.149632 24.2470358,163.532107 26.2478094,166.113244 C28.2493189,168.693645 30.2692245,171.470502 32.1250358,174.498261 C33.0595642,176.008094 33.9124132,177.598127 34.7821868,179.219064 C35.6482811,180.839264 36.5268849,182.48301 37.4165264,184.146622 C40.9486019,190.813579 44.1053943,197.281137 46.4792434,203.369766 C48.8641302,209.452508 50.4506208,215.141605 51.3380547,220" id="Fill-3" fill="#E1E1E1"></path>
                    <path d="M32.3048038,174.31359 C32.3261434,174.315786 32.3673509,173.995719 32.4232755,173.416656 C32.4814075,172.838328 32.5410113,171.998796 32.6006151,170.959866 C32.7212943,168.884214 32.7941434,166.011706 32.8662566,162.843411 C32.9383698,159.674381 33.0612566,156.809231 33.2268226,154.740936 C33.3062943,153.706421 33.3813509,152.869097 33.4416906,152.292241 C33.4983509,151.714649 33.5204264,151.39311 33.4983509,151.390135 C33.4777472,151.386488 33.4152,151.702876 33.3210113,152.276789 C33.2238792,152.850702 33.1149736,153.686555 33.0075396,154.72107 C32.7838415,156.790836 32.6263698,159.66408 32.5535208,162.835318 C32.4865585,165.976388 32.4262189,168.817993 32.3798604,170.951037 C32.3489547,171.944348 32.3217283,172.771371 32.3018604,173.409298 C32.2834642,173.990569 32.2834642,174.312107 32.3048038,174.31359" id="Fill-5" fill="#E1E1E1"></path>
                    <path d="M5.05321846,171.575204 C5.05321846,171.586241 5.15035472,171.592863 5.33284528,171.597278 C5.55286415,171.598013 5.81629811,171.598749 6.13344906,171.599485 C6.82809057,171.598749 7.83178868,171.594334 9.07243019,171.631124 C11.5529774,171.683365 14.9783547,171.879819 18.745166,172.2639 C22.5134491,172.655338 25.9064491,173.155672 28.3502038,173.591993 C29.5731849,173.801692 30.5577509,173.998883 31.2391472,174.132796 C31.5504113,174.191659 31.810166,174.240957 32.0257698,174.282896 C32.2060528,174.313799 32.3017132,174.3241 32.3047256,174.313799 C32.3076,174.303498 32.2163547,174.27186 32.0397509,174.22109 C31.8278264,174.164435 31.5724868,174.096007 31.2663736,174.013599 C30.5923358,173.844368 29.6121849,173.613331 28.3906755,173.374936 C25.9528075,172.88196 22.5539208,172.345572 18.7768075,171.953398 C15.001166,171.567846 11.5640151,171.406709 9.07537358,171.410388 C7.83178868,171.40303 6.82514717,171.439084 6.13050566,171.47808 C5.81335472,171.500154 5.5506566,171.518548 5.33063774,171.534 C5.14888302,171.550923 5.05248679,171.564167 5.05321846,171.575204" id="Fill-7" fill="#E1E1E1"></path>
                    <path d="M46.4080868,202.792258 C46.4183887,202.795853 46.4698981,202.678863 46.5582,202.452241 C46.6560679,202.192508 46.7796906,201.861405 46.933483,201.453779 C47.2557849,200.585552 47.6921434,199.317793 48.210917,197.746154 C49.2514075,194.60214 50.5553321,190.216856 51.9321057,185.359197 C53.3103509,180.500067 54.5789547,176.109632 55.5642566,172.952375 C56.0543321,171.404281 56.4553698,170.137258 56.7460302,169.216789 C56.8770113,168.801806 56.9829736,168.464816 57.0653887,168.200669 C57.1352943,167.966689 57.1669358,167.842341 57.156634,167.838579 C57.1463321,167.834983 57.0948226,167.952709 57.0057849,168.180067 C56.9086528,168.439064 56.7850302,168.770167 56.6312377,169.177793 C56.3089358,170.04602 55.8733132,171.313043 55.3545396,172.885418 C54.3133132,176.028696 53.0093887,180.41398 51.6326151,185.273846 C50.2543698,190.131505 48.985766,194.521204 48.0004642,197.679197 C47.5103887,199.226555 47.1093509,200.493579 46.8186906,201.414047 C46.6877094,201.829766 46.582483,202.166756 46.5000679,202.431639 C46.4294264,202.664147 46.3977849,202.788495 46.4080868,202.792258" id="Fill-9" fill="#E1E1E1"></path>
                    <path d="M9.80466082,194.385967 C9.80320189,194.396268 9.92903208,194.433057 10.1718623,194.494127 C10.4478057,194.558876 10.8010132,194.64202 11.2373717,194.744294 C12.2028057,194.96503 13.5332208,195.268174 15.1609189,195.639746 C18.4715038,196.399813 23.0330321,197.506435 28.0684472,198.741084 C33.1068057,199.974997 37.6786358,201.049244 41.0046736,201.754863 C42.6684283,202.10804 44.0157679,202.381017 44.9502962,202.553191 C45.3925415,202.63192 45.7501642,202.696669 46.0283151,202.745967 C46.2755604,202.787171 46.4058057,202.802622 46.4080631,202.792321 C46.4109566,202.78202 46.2836547,202.745231 46.0408245,202.684161 C45.765617,202.619411 45.4124094,202.536268 44.9753151,202.433993 C44.010617,202.213993 42.6802019,201.910849 41.0525038,201.539278 C37.741183,200.778475 33.1803906,199.671853 28.1427679,198.437204 C23.106617,197.203291 18.5340509,196.129779 15.2087491,195.424161 C13.5457302,195.071719 12.1976547,194.798007 11.2623906,194.625833 C10.8208811,194.546368 10.4639943,194.482355 10.1851075,194.431585 C9.93786226,194.391853 9.80688113,194.37493 9.80466082,194.385967" id="Fill-11" fill="#E1E1E1"></path>
                    <path d="M158.127119,36.3669565 C158.127119,36.3669565 158.047647,36.1403344 157.912251,35.7113712 C157.776119,35.2706355 157.579647,34.6393311 157.325043,33.8174582 C156.812892,32.1486957 156.067477,29.7161873 155.114553,26.6074916 C153.220477,20.3790635 150.502251,11.4414716 147.191666,0.554046823 L147.382251,0.657056856 C132.701326,5.08428094 114.221213,10.6578595 94.1950811,16.6979264 L94.190666,16.6986622 L94.3194396,16.4602676 C98.1591,29.2423411 101.809647,41.3945819 105.093006,52.3217391 L104.874458,52.2040134 C120.534798,47.530301 133.821289,43.5644147 143.205572,40.7632776 C147.900289,39.3719064 151.618534,38.269699 154.176345,37.5118395 C155.445685,37.1395318 156.4251,36.8525753 157.102081,36.653913 C157.428062,36.5604682 157.678987,36.4883612 157.861477,36.4361204 C158.033666,36.3882943 158.127119,36.3669565 158.127119,36.3669565 C158.127119,36.3669565 158.050591,36.3971237 157.887232,36.4501003 C157.710628,36.5052843 157.467798,36.581806 157.152855,36.6818729 C156.486175,36.8871572 155.522213,37.1844147 154.272742,37.5699666 C151.729647,38.3469565 148.034213,39.4756522 143.366723,40.9001338 C133.967723,43.7498328 120.659892,47.7848829 104.97527,52.5402676 L104.807496,52.5910368 L104.756723,52.4225418 C101.464534,41.4990635 97.8029491,29.3497659 93.9522509,16.5706355 L93.8970623,16.3874247 L94.0802887,16.3322408 L94.0847038,16.3307692 C114.11893,10.3186622 132.607138,4.77083612 147.293949,0.362742475 L147.441119,0.318595318 L147.48527,0.465752508 C150.742874,11.4113043 153.417685,20.3952508 155.281591,26.6567893 C156.197723,29.7610702 156.915175,32.1898997 157.406723,33.8564548 C157.644402,34.6709699 157.826157,35.296388 157.954194,35.7334448 C158.074874,36.1550502 158.127119,36.3669565 158.127119,36.3669565" id="Fill-15" fill="#E1E1E1"></path>
                    <path d="M147.338026,0.509845246 C147.343177,0.512916388 147.318894,0.568100334 147.263706,0.671846154 C147.197479,0.793986622 147.1158,0.943351171 147.014989,1.12803344 C146.77363,1.55184615 146.443234,2.13164548 146.025272,2.86669565 C145.134158,4.39713043 143.871442,6.56622742 142.312913,9.24448829 C139.126687,14.6466288 134.736611,22.091311 129.844687,30.3872977 L129.762272,30.527097 L129.610687,30.4682341 C129.094857,30.2681003 128.540026,30.0532508 127.982253,29.8376656 C118.636234,26.1918462 110.176913,22.8925819 104.019328,20.4909766 C100.981743,19.286495 98.5144415,18.3078997 96.7734226,17.6177324 C95.9433849,17.2800067 95.2877434,17.0121806 94.8109132,16.8186689 C94.6048755,16.7303746 94.4385736,16.6590033 94.3039132,16.601612 C94.1898566,16.550107 94.1331962,16.5214114 94.1353417,16.5155251 C94.1383472,16.508903 94.2001585,16.5258261 94.3178943,16.5648227 C94.456234,16.6133846 94.6276868,16.6729833 94.8381396,16.7458261 C95.3223283,16.9246221 95.9860642,17.168903 96.8271396,17.4786689 C98.5784604,18.141612 101.061215,19.0812107 104.117196,20.2378662 C110.285083,22.6129833 118.758385,25.8754582 128.120592,29.4800736 C128.678366,29.6963946 129.233196,29.9112441 129.749026,30.1113779 L129.515026,30.1923144 C134.447423,21.9198729 138.873555,14.4965284 142.0848,9.10983946 C143.686743,6.4573311 144.984781,4.30810033 145.900177,2.79238127 C146.343894,2.07278261 146.694894,1.50475585 146.95097,1.08977258 C147.064291,0.913183946 147.156272,0.769705686 147.231328,0.651979933 C147.296819,0.554856187 147.332875,0.5070301 147.338026,0.509845246" id="Fill-17" fill="#E1E1E1"></path>
                    <path d="M302.123213,143.732401 C302.123213,143.732401 298.67576,140.316147 291.943477,148.847585 C285.21193,157.379023 282.28693,162.489057 282.28693,162.489057 C282.28693,162.489057 280.611402,164.224776 279.503949,162.651666 C278.39576,161.078555 277.258874,157.017017 274.803345,157.217886 C272.257308,157.426849 270.927628,159.957217 270.600175,163.999625 C270.271987,168.042033 269.228553,176.872201 269.131421,177.670528 C269.03576,178.453405 268.366874,179.502635 267.44044,178.552 C266.514006,177.6021 261.711855,169.498154 258.00244,172.007184 C254.293025,174.516214 255.22976,185.928254 255.308496,187.177619 C255.387232,188.426247 255.053892,188.886849 254.431364,189.068589 C253.809572,189.249592 252.45193,186.37414 250.99127,184.124843 C249.530609,181.876281 247.443006,179.524709 245.424572,181.150796 C243.405402,182.778355 241.269968,190.775612 246.357628,205.468522 L249.160477,212.12297 L256.341628,213.144241 C271.843025,214.39287 279.051402,210.324709 280.122062,207.962836 C281.191987,205.601699 278.392081,204.169124 275.848987,203.317084 C273.306628,202.466515 270.182213,201.872 270.201345,201.224508 C270.221213,200.576281 270.584723,200.138488 271.814326,199.901565 C273.042458,199.665378 284.326704,197.717017 285.827836,193.49802 C287.329704,189.279023 278.280968,186.657418 277.128628,185.998154 C275.977025,185.339625 276.825458,184.430194 277.559836,184.14103 C278.308194,183.847452 286.596798,180.627652 290.4291,179.298823 C294.260666,177.969258 296.37844,176.049592 295.944289,173.531732 C295.524119,171.104375 291.306968,171.020495 289.506345,170.341365 C287.706458,169.66297 288.966968,167.606448 288.966968,167.606448 C288.966968,167.606448 293.184119,163.495612 299.759666,154.844241 C306.335949,146.192134 302.048157,143.667652 302.048157,143.667652" id="Fill-19" fill="#E0E0E0" opacity="0.100000001"></path>
                    <path d="M296.080494,151.361741 C296.086381,151.366328 296.045909,151.429605 295.963494,151.548803 C295.866362,151.684187 295.74274,151.857833 295.588211,152.074154 C295.23574,152.551679 294.741985,153.219773 294.115042,154.069605 C292.830985,155.799438 290.950891,158.285659 288.61457,161.348 C283.942664,167.472682 277.406117,175.870943 270.147702,185.113151 C262.906947,194.359773 256.353475,202.728602 251.590325,208.811344 C249.240023,211.836161 247.332702,214.291478 245.994192,216.013953 C245.342966,216.845391 244.830815,217.498769 244.463626,217.965993 C244.296589,218.172749 244.1634,218.337565 244.058909,218.467799 C243.965457,218.579639 243.914683,218.634823 243.910268,218.631316 C243.904381,218.626729 243.944117,218.563452 244.027268,218.444254 C244.1244,218.308134 244.248023,218.13596 244.402551,217.919639 C244.755023,217.441378 245.248777,216.773284 245.874985,215.923452 C247.159777,214.194355 249.0384,211.708134 251.375457,208.646528 C256.048098,202.52111 262.583909,194.122114 269.846004,184.876963 C277.083815,175.633284 283.636551,167.265191 288.399702,161.182448 C290.750004,158.156896 292.65806,155.701579 293.99657,153.979839 C294.647796,153.148401 295.159947,152.495023 295.5264,152.027064 C295.694174,151.820308 295.827362,151.654756 295.932589,151.525258 C296.025306,151.413418 296.075343,151.358234 296.080494,151.361741" id="Fill-21" fill="#FFFFFF"></path>
                    <path d="M276.165108,162.96487 C276.215881,162.960475 276.32773,163.695525 276.436636,164.891913 C276.547013,166.087565 276.644145,167.743084 276.710372,169.571512 C276.758202,171.330776 276.801617,172.921545 276.837674,174.253318 C276.864164,175.450441 276.889919,176.190642 276.835466,176.19582 C276.785428,176.200943 276.664013,175.465157 276.566881,174.267298 C276.469749,173.069438 276.393221,171.413184 276.32773,169.586227 C276.267391,167.828435 276.212202,166.238401 276.166579,164.908836 C276.126108,163.711712 276.110655,162.969304 276.165108,162.96487" id="Fill-23" fill="#FFFFFF"></path>
                    <path d="M277.461433,176.451184 C277.451887,176.345231 280.853717,175.975866 285.058358,175.625632 C289.264472,175.273926 292.680283,175.076 292.688395,175.180482 C292.697208,175.286435 289.296113,175.656535 285.09,176.006769 C280.886094,176.357739 277.470283,176.557137 277.461433,176.451184" id="Fill-25" fill="#FFFFFF"></path>
                    <path d="M265.250994,190.642361 C265.26424,190.589385 266.009655,190.725505 267.21056,190.956542 C268.412202,191.183164 270.07007,191.501023 271.909692,191.79313 C273.750051,192.091124 275.423372,192.311124 276.636051,192.467846 C277.847994,192.625304 278.600032,192.728314 278.595636,192.782763 C278.591202,192.834268 277.831806,192.82691 276.608825,192.73788 C275.385108,192.648849 273.697806,192.470054 271.849353,192.17206 C269.999428,191.877746 268.342296,191.515739 267.152428,191.220689 C265.96256,190.92196 265.238485,190.691659 265.250994,190.642361" id="Fill-27" fill="#FFFFFF"></path>
                    <path d="M261.393526,178.701659 C261.443564,178.685472 261.712885,179.332227 262.106564,180.393231 C262.500979,181.453498 263.020489,182.927278 263.572375,184.56293 C264.123526,186.197846 264.602564,187.685605 264.931489,188.768682 C265.259677,189.851023 265.437753,190.528682 265.387715,190.546341 C265.337677,190.562528 265.068357,189.915037 264.674677,188.854769 C264.280262,187.793766 263.760753,186.319987 263.208866,184.68507 C262.657715,183.049418 262.177942,181.562395 261.849753,180.480054 C261.521564,179.396977 261.343489,178.718582 261.393526,178.701659" id="Fill-29" fill="#FFFFFF"></path>
                    <path d="M249.022064,189.861324 C249.072102,189.843666 249.412064,190.674368 249.921272,192.032629 C250.429743,193.390154 251.108196,195.273766 251.835215,197.362662 C252.562234,199.452294 253.200215,201.351358 253.643196,202.731692 C254.086913,204.112027 254.336366,204.974368 254.286328,204.991291 C254.236291,205.00895 253.896328,204.178247 253.387857,202.820722 C252.878649,201.463197 252.200196,199.578849 251.473177,197.489217 C250.746894,195.400321 250.108913,193.501993 249.665196,192.120923 C249.221479,190.740589 248.972026,189.878247 249.022064,189.861324" id="Fill-31" fill="#FFFFFF"></path>
                    <path d="M254.262046,204.594334 C254.273157,204.540622 255.223874,204.6841 256.756647,204.923967 C258.290157,205.161625 260.407194,205.492729 262.752345,205.801759 C265.098968,206.113732 267.228515,206.34992 268.771591,206.517679 C270.313194,206.686174 271.268326,206.79507 271.264658,206.849518 C271.261704,206.900288 270.299213,206.887043 268.748043,206.786977 C267.196138,206.689117 265.055553,206.49487 262.702308,206.181425 C260.349062,205.871659 258.23276,205.49788 256.708817,205.191057 C255.185609,204.882763 254.252553,204.643632 254.262046,204.594334" id="Fill-33" fill="#FFFFFF"></path>
                    <polygon id="Fill-35" fill="#F5F5F5" opacity="0.100000001" points="309.621074 129.710823 267.919772 128.437913 269.661526 71.3769766 311.363564 72.6498863"></polygon>
                    <path d="M301.939251,137.290742 C301.939251,137.290742 301.935572,137.192883 301.937779,137.010408 C301.941458,136.816896 301.946609,136.550542 301.952496,136.203251 C301.969421,135.483652 301.99444,134.440308 302.026817,133.085726 C302.099666,130.356696 302.204892,126.387866 302.338081,121.364656 C302.624326,111.322649 303.029043,97.0800401 303.508817,80.2246555 L303.676591,80.4034515 C291.117855,80.0252575 276.936572,79.5985017 261.978968,79.1482007 L261.973817,79.1482007 L262.17176,78.9627826 C261.508025,100.275559 260.892855,120.008602 260.393949,136.022247 L260.242364,135.861846 C272.85776,136.280508 283.26193,136.626328 290.526232,136.867666 C294.156911,136.995692 296.999496,137.095759 298.950232,137.164923 C299.914194,137.201712 300.654458,137.230408 301.168817,137.249538 C301.672138,137.271612 301.939251,137.290742 301.939251,137.290742 C301.939251,137.290742 301.694213,137.294421 301.201194,137.284856 C300.693458,137.273819 299.962025,137.256896 299.010572,137.236294 C297.067194,137.185525 294.235647,137.113418 290.618949,137.019973 C283.3311,136.816161 272.890874,136.526261 260.232798,136.173084 L260.076798,136.169405 L260.081213,136.012682 C260.560987,119.998301 261.150402,100.265258 261.789119,78.95101 L261.79427,78.7597057 L261.985591,78.765592 L261.990742,78.765592 C276.948345,79.2284013 291.129628,79.6676656 303.686892,80.0561605 L303.860553,80.0620468 L303.855402,80.2356923 C303.303515,97.1344883 302.838458,111.415358 302.509534,121.483853 C302.336609,126.487933 302.200477,130.442783 302.107025,133.162247 C302.056987,134.500642 302.017987,135.532214 301.991496,136.244455 C301.977515,136.582916 301.965742,136.843385 301.957647,137.03101 C301.948817,137.206863 301.939251,137.290742 301.939251,137.290742" id="Fill-39" fill="#E1E1E1"></path>
                    <path d="M287.395417,92.1638127 C287.392472,92.2697659 282.853019,92.2167893 277.257623,92.046087 C271.660019,91.8746488 267.126453,91.6509699 267.13013,91.5450167 C267.133811,91.4390635 271.671792,91.4920401 277.26866,91.6627425 C282.864792,91.8334448 287.399094,92.0578595 287.395417,92.1638127" id="Fill-41" fill="#E1E1E1"></path>
                    <path d="M298.204671,97.4566154 C298.200991,97.5625686 291.207481,97.4345418 282.586274,97.1711304 C273.962123,96.9077191 266.975972,96.60899 266.978179,96.5030368 C266.981858,96.3978194 273.973896,96.5251104 282.598047,96.7885217 C291.219991,97.0519331 298.207613,97.3506622 298.204671,97.4566154" id="Fill-43" fill="#E1E1E1"></path>
                    <path d="M298.046537,102.629043 C298.042857,102.734997 291.050083,102.607706 282.42814,102.344294 C273.803989,102.080883 266.817838,101.782154 266.82078,101.676201 C266.823725,101.570247 273.815762,101.697538 282.439913,101.96095 C291.061857,102.224361 298.049479,102.52309 298.046537,102.629043" id="Fill-45" fill="#E1E1E1"></path>
                    <path d="M297.888477,107.801839 C297.885532,107.907793 290.892023,107.780502 282.270079,107.516355 C273.646664,107.253679 266.659777,106.95495 266.66272,106.848261 C266.665664,106.743043 273.657702,106.870334 282.282589,107.133746 C290.903796,107.397157 297.892155,107.695886 297.888477,107.801839" id="Fill-47" fill="#E1E1E1"></path>
                    <path d="M297.730343,112.974562 C297.727398,113.080515 290.733889,112.952488 282.112681,112.689077 C273.48853,112.426401 266.501643,112.126936 266.504586,112.020983 C266.50753,111.915766 273.499568,112.043057 282.124455,112.306468 C290.745662,112.569144 297.734021,112.868609 297.730343,112.974562" id="Fill-49" fill="#E1E1E1"></path>
                    <path d="M297.573018,118.147358 C297.569338,118.253311 290.575828,118.125284 281.954621,117.861873 C273.33047,117.599197 266.344319,117.299732 266.346526,117.193779 C266.350206,117.088562 273.341508,117.215853 281.966394,117.479264 C290.587602,117.74194 297.57596,118.041405 297.573018,118.147358" id="Fill-51" fill="#E1E1E1"></path>
                    <path d="M297.414884,123.320154 C297.411204,123.426107 290.417694,123.29808 281.796487,123.034669 C273.172336,122.771258 266.186185,122.472528 266.188392,122.366575 C266.192072,122.261358 273.184109,122.387913 281.80826,122.65206 C290.430204,122.914736 297.417826,123.214201 297.414884,123.320154" id="Fill-53" fill="#E1E1E1"></path>
                    <path d="M282.815052,128.051699 C282.812106,128.157652 279.051917,128.128221 274.41754,127.98695 C269.781691,127.845679 266.028125,127.644809 266.031066,127.539592 C266.034011,127.433639 269.793464,127.462334 274.429313,127.604341 C279.062955,127.745612 282.818728,127.945746 282.815052,128.051699" id="Fill-55" fill="#E1E1E1"></path>
                    <path d="M220.783857,57.3505418 C220.783857,57.3505418 220.715423,57.3262609 220.585913,57.2754916 C220.454932,57.2247224 220.263611,57.1496722 220.011951,57.0518127 C219.505687,56.8516789 218.758064,56.5573645 217.786743,56.1740201 C215.841158,55.4036522 212.997838,54.2786355 209.392913,52.8512107 C202.189687,49.9926823 191.945932,45.9267291 179.76763,41.0926154 L179.853725,41.0558261 C175.972857,50.8086689 171.523177,61.9911438 166.814479,73.8240535 L166.813008,73.8277324 L166.7718,73.7306087 C181.945743,79.7765619 196.048291,85.396495 207.758592,90.0621137 L207.677649,90.0966957 C211.622536,80.2261271 214.891913,72.0456589 217.176725,66.3293378 C218.322442,63.4693378 219.220913,61.227398 219.834611,59.6969632 C220.14146,58.9339532 220.376932,58.3482676 220.537347,57.9509431 C220.697026,57.5558261 220.783857,57.3505418 220.783857,57.3505418 C220.783857,57.3505418 220.7088,57.5506756 220.554272,57.9443211 C220.399008,58.3401739 220.169423,58.9229164 219.869196,59.6844548 C219.264328,61.2141538 218.376894,63.4560936 217.245894,66.3153579 C214.972857,72.0456589 211.718932,80.2474649 207.793177,90.1423144 L207.770366,90.2004415 L207.712234,90.1768963 C195.999725,85.5178997 181.894234,79.906796 166.715875,73.8689365 L166.647442,73.8417124 L166.674668,73.7725485 L166.67614,73.7688696 C171.389253,61.9381672 175.844819,50.7578997 179.730102,41.0065284 L179.754385,40.9439866 L179.816196,40.9690033 C192.001857,45.8347559 202.250762,49.9279331 209.456932,52.805592 C213.050819,54.2440535 215.886045,55.3793712 217.824272,56.1548896 C218.788234,56.5426488 219.529234,56.8406421 220.031819,57.0429833 C220.278328,57.1430502 220.466706,57.2188361 220.596215,57.2718127 C220.722045,57.3233177 220.783857,57.3505418 220.783857,57.3505418" id="Fill-59" fill="#E1E1E1"></path>
                    <polygon id="Fill-63" fill="#E1E1E1" opacity="0.100000001" points="169.105545 72.4165686 189.506225 59.9111505 193.316451 74.333291 201.280545 70.6050635 207.217375 87.5892107"></polygon>
                    <path d="M202.121032,62.4069365 C201.461711,64.0639264 199.583089,64.8725552 197.925221,64.2125552 C196.268089,63.553291 195.459391,61.6748294 196.119447,60.0171037 C196.778768,58.3601137 198.657391,57.5514849 200.315258,58.2114849 C201.972391,58.8714849 202.780353,60.7499465 202.121032,62.4069365" id="Fill-65" fill="#E1E1E1" opacity="0.100000001"></path>
                    <path d="M72.8947528,93.6321472 C72.9006396,93.5997726 73.1787906,93.8271304 73.7682057,93.7763612 C74.0544509,93.7410435 74.4128094,93.6137525 74.7071491,93.3084013 C74.9882434,93.003786 75.1913377,92.518903 75.4842057,92.0399064 C76.6240358,90.0503411 78.2509981,87.2109431 80.2561868,83.7115452 C80.7624509,82.8330167 81.2922623,81.9132843 81.8441491,80.9560268 C82.1208283,80.4770301 82.4026585,79.9884682 82.6903755,79.4903411 C82.8272434,79.2379666 83.0009038,78.9929498 83.0781679,78.7508763 C83.1591113,78.4999732 83.1686774,78.2247893 83.1009792,77.9665284 C83.0303377,77.7090033 82.8846396,77.4713445 82.6771302,77.2991706 C82.4791868,77.1387692 82.1767528,77.0004415 81.917734,76.8466622 C81.3805642,76.5464615 80.8345642,76.2411104 80.2804698,75.9313445 C79.173017,75.3118127 78.0324509,74.6731505 76.8646585,74.0197726 C72.1890736,71.3959599 67.053583,68.5138863 61.6627528,65.4883344 C61.0696585,65.1403077 60.2469792,65.3669298 59.8746396,65.9349565 C59.4919981,66.589806 59.1115642,67.2402408 58.7333377,67.8855251 C57.9761491,69.1871304 57.2285264,70.4696054 56.4948849,71.7292709 C55.026866,74.2478662 53.6096208,76.6774314 52.2593377,78.992214 C52.0908283,79.2813779 51.9230547,79.5690702 51.756017,79.8545552 C51.5867717,80.1194381 51.5102434,80.4012441 51.5190736,80.6948227 C51.5323189,80.9839866 51.6346019,81.268 51.8185642,81.4850569 C51.9878094,81.7109431 52.2637528,81.8301405 52.5470547,81.9971639 C53.6515642,82.6218462 54.7236962,83.2281338 55.7612434,83.815291 C57.8319226,84.9896054 59.7627906,86.0844548 61.5273566,87.084388 C65.0299981,89.0835184 67.872583,90.7059264 69.8637906,91.8419799 C70.8262811,92.4011773 71.5819981,92.8397057 72.1206396,93.1524147 C72.3619981,93.2973645 72.5540547,93.4121472 72.7026962,93.501913 C72.8329415,93.5821137 72.8976962,93.6262609 72.8947528,93.6321472 C72.8918094,93.6380334 72.8196962,93.6049231 72.6835642,93.5357592 C72.5297717,93.4548227 72.3318283,93.3510769 72.0823755,93.220107 C71.5356396,92.9221137 70.7681491,92.5041873 69.7902057,91.972214 C67.785017,90.8611773 64.9225642,89.2755585 61.3949038,87.3205753 C59.6229792,86.3331505 57.6847528,85.2515452 55.6052434,84.0919465 C54.5647528,83.5106756 53.4889415,82.9095385 52.3814887,82.2900067 C52.1224698,82.137699 51.7861868,81.9964281 51.555866,81.7028495 C51.3226019,81.4284013 51.1908849,81.0708094 51.1739604,80.7095385 C51.1563,80.3497391 51.2666774,79.9715452 51.453583,79.6787023 C51.6191491,79.3924816 51.7861868,79.1047893 51.9539604,78.8148896 C53.2983566,76.4956923 54.7089792,74.0631839 56.1703755,71.5409097 C56.9032811,70.2797726 57.6479604,68.9965619 58.4036774,67.6942207 C58.7863189,67.040107 59.1719038,66.3815786 59.5596962,65.7178997 C60.0299038,64.9990368 61.0755453,64.7032508 61.8503943,65.1542876 C67.2368094,68.1894047 72.3671491,71.0803077 77.037583,73.7114783 C78.2031679,74.3707425 79.3407906,75.0130836 80.4460358,75.6377659 C80.9979226,75.9497391 81.5424509,76.2580334 82.0781491,76.5611773 C82.3459981,76.723786 82.6094321,76.8334181 82.8861113,77.0519465 C83.1436585,77.2697391 83.3239415,77.5677324 83.4078283,77.885592 C83.4902434,78.2049231 83.4762623,78.541913 83.3754509,78.8472642 C83.2672811,79.1636522 83.0914132,79.3932174 82.9552811,79.6448562 C82.6646208,80.1407759 82.3798472,80.6271304 82.1002245,81.1046555 C81.5409792,82.0582341 81.0038094,82.9735518 80.4909226,83.8476656 C78.441583,87.321311 76.7785642,90.140107 75.6129792,92.1142207 C75.3061302,92.5917458 75.1081868,93.0545552 74.7880925,93.3878662 C74.4628472,93.7079331 74.0772623,93.828602 73.7755642,93.8536187 C73.4694509,93.8727492 73.239866,93.8057926 73.0978472,93.746194 C72.9558283,93.6858595 72.8947528,93.6321472 72.8947528,93.6321472" id="Fill-67" fill="#E1E1E1"></path>
                    <polygon id="Fill-69" fill="#E1E1E1" points="69.0056434 78.5478729 70.8607189 81.8412508 67.0343038 81.9111505 63.2078887 81.9810502 65.1792283 78.6177726 67.1505679 75.254495"></polygon>
                </g>
                <path d="M319,251.5 C319,251.652 248.479791,251.776 161.507373,251.776 C74.5054631,251.776 4,251.652 4,251.5 C4,251.347 74.5054631,251.224 161.507373,251.224 C248.479791,251.224 319,251.347 319,251.5" id="Fill-72" fill="#E0E0E0"></path>
                <g id="Group-112" transform="translate(37.000000, 68.000000)">
                    <path d="M45.1317439,136.809594 L22.9442483,114.490394 L34.0997178,93.9670336 C45.2544526,79.6643456 68.8666917,80.5858176 68.8666917,80.5858176 C68.8666917,80.5858176 84.9356526,79.0358016 103.691713,82.6915136 C122.44704,86.3472256 120.937061,98.7804736 120.937061,98.7804736 L123.449283,144.833466 L126.142261,182.332666 L56.964683,183.729594 L45.1317439,136.809594" id="Fill-74" fill="#F52851"></path>
                    <path d="M82.3968317,181.570464 L20.4355535,182.330752 C5.54665348,182.51328 -4.38613783,167.008704 1.98369261,153.52592 L28.4762796,104.311808 L52.60801,120.65248 L36.14741,154.8728 L86.3073448,155.768512 L82.3968317,181.570464 Z" id="Fill-76" fill="#F52851"></path>
                    <path d="M118.721618,91.3047744 L168.445092,168.201318 L139.435875,170.10167 C139.435875,170.10167 122.11264,142.756326 122.504279,143.32231 C123.21261,144.34535 118.721618,91.3047744 118.721618,91.3047744" id="Fill-78" fill="#F52851"></path>
                    <path d="M51.36417,125.070323 C51.3516787,125.066566 51.3759265,124.931142 51.4332396,124.675014 C51.5037787,124.379142 51.590483,124.010406 51.6970265,123.56071 C51.9270135,122.594342 52.2606048,121.195206 52.6110961,119.455302 C52.959383,117.715398 53.3304483,115.632518 53.5839483,113.303078 C53.8183439,110.976582 53.9660352,108.386598 53.6111352,105.719334 C53.2150874,103.060902 52.2179874,100.651238 51.0438048,98.6404864 C49.8710917,96.6209024 48.5499526,94.9649024 47.3529917,93.6636544 C46.1545613,92.3624064 45.0964743,91.3894144 44.3425874,90.7468864 C43.5909048,90.1006784 43.161057,89.7577024 43.1808961,89.7312064 C43.1889787,89.7216384 43.3043396,89.7952384 43.5188961,89.9461184 C43.7290439,90.1014144 44.053083,90.3148544 44.4373743,90.6320704 C45.2243265,91.2422144 46.3162135,92.1901824 47.5506483,93.4789184 C48.7836135,94.7669184 50.140757,96.4229184 51.3480048,98.4623744 C52.5559874,100.49079 53.584683,102.943142 53.9895483,105.665606 C54.3517961,108.387334 54.1894091,111.000134 53.9351743,113.34135 C53.6596309,115.68551 53.2591743,117.77207 52.8756178,119.511238 C52.489857,121.250406 52.1151178,122.642182 51.8410439,123.598982 C51.7036396,124.077382 51.590483,124.446854 51.5074526,124.695622 C51.4258917,124.945126 51.3773961,125.073926 51.36417,125.070323" id="Fill-80" fill="#1A2E35"></path>
                    <path d="M49.3714396,127.722185 C49.3956874,127.734198 49.2421178,128.12943 48.9445309,128.835254 C48.6484135,129.541078 48.2031352,130.556022 47.6417613,131.804278 C46.5190135,134.301526 44.9208613,137.731286 43.08317,141.482678 C41.2440091,145.235542 39.5143309,148.600534 38.2284613,151.017558 C37.5862613,152.226806 37.0572178,153.199798 36.6810091,153.866614 C36.3055352,154.534902 36.0873048,154.89775 36.0637917,154.885238 C36.0402787,154.873462 36.2144222,154.486326 36.549483,153.798166 C36.9190787,153.051862 37.4033004,152.073718 37.9881874,150.893174 C39.2329091,148.38415 40.8986613,145.026518 42.7400265,141.314134 C44.5439178,137.584822 46.1766048,134.210998 47.3963439,131.690198 C47.9709439,130.504502 48.4463483,129.521942 48.8093309,128.772694 C49.1488004,128.086006 49.3471917,127.711382 49.3714396,127.722185" id="Fill-82" fill="#1A2E35"></path>
                    <path d="M82.3968317,181.570464 C82.3916883,181.569728 82.392423,181.525568 82.3975665,181.440928 C82.4056491,181.338624 82.4159361,181.215712 82.4276926,181.06336 C82.463697,180.705664 82.5129274,180.217696 82.5753839,179.595776 C82.7186665,178.28864 82.9236709,176.422144 83.1815796,174.074304 C83.7297274,169.317536 84.5034535,162.614048 85.4131143,154.71824 L85.5872578,154.914016 C80.013197,154.919168 73.8101622,154.925056 67.2845578,154.930944 C54.7888448,154.908128 43.4790709,154.888992 35.2627317,154.875008 C31.1846883,154.848512 27.876697,154.827904 25.5591926,154.81392 C24.4335057,154.797728 23.5495622,154.785952 22.9205883,154.777856 C22.6362274,154.76976 22.4099143,154.763136 22.2350361,154.757984 C22.079997,154.752096 22.0013752,154.745472 22.0013752,154.738848 C22.0013752,154.732224 22.079997,154.7256 22.2350361,154.719712 C22.4099143,154.71456 22.6362274,154.707936 22.9205883,154.69984 C23.5495622,154.691008 24.4335057,154.679232 25.5591926,154.663776 C27.876697,154.649792 31.1846883,154.629184 35.2627317,154.602688 C43.4790709,154.588704 54.7888448,154.568832 67.2845578,154.546752 C73.8101622,154.55264 80.013197,154.558528 85.5872578,154.56368 L85.7849143,154.56368 L85.7614013,154.759456 C84.7944274,162.649376 83.9736752,169.34624 83.3917274,174.099328 C83.0919361,176.442016 82.8531317,178.304832 82.6863361,179.609024 C82.6011013,180.228736 82.5342361,180.714496 82.4850057,181.069248 C82.4614926,181.220864 82.4423883,181.34304 82.426223,181.444608 C82.4115274,181.527776 82.4012404,181.570464 82.3968317,181.570464" id="Fill-84" fill="#1A2E35"></path>
                    <path d="M36.5841648,155.3972 C36.5319952,155.43032 36.1094952,154.798832 35.3475257,153.846448 C34.5877604,152.894064 33.4576648,151.640656 32.0417387,150.439504 C30.6221387,149.242032 29.1995996,148.33528 28.1341648,147.745008 C27.0694648,147.151792 26.3772996,146.840464 26.4008126,146.783056 C26.4169778,146.74184 27.1480865,146.965584 28.2598126,147.5036 C29.3700691,148.04088 30.844043,148.92776 32.2886257,150.146576 C33.7295343,151.368336 34.849343,152.676208 35.562817,153.68232 C36.27923,154.689168 36.6216387,155.37512 36.5841648,155.3972" id="Fill-86" fill="#1A2E35"></path>
                    <path d="M124.476803,160.266731 C124.463577,160.268195 124.430512,160.048867 124.379077,159.630819 C124.327642,159.178179 124.258573,158.568035 124.171133,157.798915 C124.002133,156.207683 123.774351,153.903267 123.528199,151.051267 C123.026342,145.349475 122.446599,137.463971 121.930047,128.746787 C121.414964,120.025923 121.05492,112.127171 120.848447,106.406979 C120.741903,103.547619 120.675038,101.232899 120.639033,99.6328352 C120.626542,98.8592992 120.616255,98.2447392 120.608907,97.7898912 C120.605968,97.3688992 120.611112,97.1473632 120.624338,97.1466254 C120.636829,97.1458912 120.658138,97.3666912 120.68606,97.7869472 C120.711042,98.2417952 120.744842,98.8556192 120.788194,99.6269472 C120.868286,101.261603 120.980707,103.565283 121.118847,106.395939 C121.395125,112.110979 121.797051,120.006051 122.312133,128.723971 C122.827951,137.438211 123.365077,145.323715 123.798599,151.029187 C124.016829,153.854691 124.193912,156.153955 124.320294,157.785667 C124.376873,158.556995 124.421694,159.170083 124.455494,159.623459 C124.482681,160.043715 124.490029,160.265251 124.476803,160.266731" id="Fill-88" fill="#1A2E35"></path>
                    <path d="M84.4738417,164.102682 C84.4738417,164.102682 96.8372939,160.53529 100.928563,159.49017 C102.522307,159.083162 109.351377,162.691034 114.067946,165.69097 C114.067946,165.69097 120.563424,169.548346 120.03732,170.736986 C119.459781,172.044858 117.063655,171.776954 113.24499,169.977434 C113.24499,169.977434 114.57715,173.854682 111.961324,173.770778 C111.961324,173.770778 113.25895,177.96009 110.806981,178.393594 C108.355746,178.827098 107.778942,173.48153 105.615007,173.193018 C103.451807,172.90377 98.9813896,172.614522 98.9813896,172.614522 C98.9813896,172.614522 95.2575113,178.791034 92.3734896,179.224538 C89.488733,179.658042 82.8051504,178.877146 82.8051504,178.877146 L84.4738417,164.102682 Z" id="Fill-90" fill="#FFBF9D"></path>
                    <path d="M105.574447,164.956515 C105.631025,164.867459 107.177008,165.742563 109.02719,166.911331 C110.878108,168.080835 112.332977,169.100931 112.276399,169.190723 C112.219821,169.279779 110.674573,168.405411 108.822921,167.235907 C106.972738,166.067139 105.517869,165.046307 105.574447,164.956515" id="Fill-92" fill="#FF9A6C"></path>
                    <path d="M104.843265,167.338506 C104.887352,167.24209 106.722839,167.99649 108.942617,169.022474 C111.162395,170.049194 112.925873,170.958154 112.881787,171.05457 C112.836965,171.150986 111.002213,170.396586 108.7817,169.370602 C106.562656,168.343882 104.798443,167.434186 104.843265,167.338506" id="Fill-94" fill="#FF9A6C"></path>
                    <path d="M106.166461,173.112205 C106.181157,173.006957 107.430287,173.092333 108.957166,173.302093 C110.484044,173.511117 111.709661,173.766509 111.694966,173.871021 C111.681005,173.976269 110.431874,173.891629 108.904996,173.681133 C107.378118,173.471373 106.151766,173.217453 106.166461,173.112205" id="Fill-96" fill="#FF9A6C"></path>
                    <path d="M68.39261,36.3678208 C68.67991,37.3157888 68.352197,38.4197888 67.5953709,39.0564288 C66.83781,39.6930688 65.695223,39.8248128 64.8134839,39.3773248 C63.1381796,38.5272448 62.9265622,36.2117888 63.2557448,34.3592768 C63.5849274,32.5075008 64.2139013,30.5306048 63.4379709,28.8171968 C62.8450013,27.5063808 61.5598665,26.6761728 60.557623,25.6443008 C58.8117796,23.8469888 57.8815448,21.2283008 58.3062491,18.7568128 C58.7309535,16.2853248 60.5811361,14.0640768 62.9919578,13.3884288 C65.4534796,12.6995328 68.4859274,13.4568768 70.3184752,11.6720768 C71.6462274,10.3789248 71.7277883,8.2599808 72.7550143,6.7158528 C74.3502274,4.3194368 77.7228796,3.9389248 80.5716317,4.3290048 C83.4211187,4.7190848 86.3213057,5.6346688 89.11201,4.9391488 C91.4427404,4.3584448 93.3553796,2.7274688 95.5391535,1.7272448 C100.274093,-0.4417472 106.325027,0.7329088 109.907093,4.5166848 C113.489893,8.3004608 114.340771,14.4151488 111.92848,19.0357568 C111.061436,20.6954368 109.756462,22.2035008 108.02311,22.9056448" id="Fill-98" fill="#1A2E35"></path>
                    <path d="M82.5709017,97.1604734 L82.5709017,97.1604734 C90.4646713,97.152368 96.8286235,90.682192 96.7198757,82.77608 L96.5332409,69.24472 C96.5332409,69.24472 107.881223,68.106128 108.632906,56.845328 C109.384589,45.583792 108.841584,19.600784 108.841584,19.600784 C96.1232322,13.284432 80.98818,14.356048 69.2838278,22.403472 L67.5468017,23.598736 L68.3925365,83.17352 C68.5027539,90.936112 74.8204148,97.169296 82.5709017,97.1604734" id="Fill-100" fill="#FFBF9D"></path>
                    <path d="M96.5604278,69.083168 C96.5604278,69.083168 89.4190757,69.275264 82.12048,64.107808 C82.12048,64.107808 85.1463148,72.40768 96.4274322,72.005088 L96.5604278,69.083168 Z" id="Fill-102" fill="#FF9A6C"></path>
                    <path d="M108.919324,22.4488832 C108.919324,22.4488832 102.129198,25.9058752 93.122233,21.6201472 C87.2123765,18.8071552 80.3605287,17.5110592 78.8799417,18.7188352 C77.39862,19.9266112 77.1980243,25.9750592 71.43292,27.8511232 C71.43292,27.8511232 72.0552809,39.3709952 67.4592157,39.0493632 C62.8624157,38.7277312 65.3834548,20.8179072 65.3834548,20.8179072 L76.5021852,15.1087552 L88.7061896,12.5518912 L100.27975,13.9569152 L109.257324,16.2326272 L108.919324,22.4488832 Z" id="Fill-104" fill="#1A2E35"></path>
                    <path d="M68.2985578,35.3464736 C68.1111883,35.2530016 60.692823,32.6343136 60.5194143,40.3520096 C60.3460057,48.0697056 68.1170665,46.6521696 68.1354361,46.4313696 C68.1538057,46.2098336 68.2985578,35.3464736 68.2985578,35.3464736" id="Fill-106" fill="#FFBF9D"></path>
                    <path d="M65.8477639,43.4540288 C65.8146987,43.4282688 65.7110943,43.5452928 65.4818422,43.6446528 C65.2584683,43.7403328 64.8771161,43.8021568 64.4788639,43.6424448 C63.6713378,43.3252288 63.015177,42.0151488 63.0092987,40.6233728 C63.00489,39.9204928 63.167277,39.2544128 63.4281248,38.7068288 C63.6757465,38.1474688 64.0490161,37.7610688 64.4604943,37.6970368 C64.870503,37.6123968 65.1548639,37.8641088 65.2445074,38.0841728 C65.3429683,38.3020288 65.2907987,38.4551168 65.330477,38.4691008 C65.3517857,38.4889728 65.4987422,38.3439808 65.4443683,38.0230848 C65.4157117,37.8692608 65.3297422,37.6852608 65.1519248,37.5329088 C64.9704335,37.3783488 64.7000335,37.2951808 64.414203,37.3202048 C63.8190291,37.3474368 63.2723509,37.8832448 62.9850509,38.4845568 C62.6654204,39.0880768 62.4670291,39.8358528 62.4714378,40.6255808 C62.4861335,42.1814848 63.248103,43.6542208 64.3546857,44.0023488 C64.8932813,44.1561728 65.3495813,44.0030848 65.5869161,43.8257088 C65.8301291,43.6402368 65.8742161,43.4687488 65.8477639,43.4540288" id="Fill-108" fill="#FF9A6C"></path>
                    <path d="M90.4999409,57.0843808 C90.4999409,57.0843808 94.6088452,53.2343648 103.083828,55.9347488 C95.224593,54.9735328 90.4999409,57.0843808 90.4999409,57.0843808" id="Fill-110" fill="#FFFFFF"></path>
                </g>
                <g id="Group-124" transform="translate(159.000000, 0.000000)">
                    <g id="Group-115">
                        <mask id="mask-2" fill="white">
                            <use xlink:href="#path-1"></use>
                        </mask>
                        <g id="Clip-114"></g>
                        <path d="M9.49827606,24.7656117 C9.79709296,24.8322351 10.0321915,25.000274 10.2006423,25.2697286 C10.3705577,25.5384429 10.4225577,25.8241831 10.3559099,26.1269494 L9.55979718,29.7594039 C9.4931493,30.0629104 9.32762817,30.3005338 9.06103662,30.4707935 C8.79517746,30.6425338 8.51320563,30.6950922 8.21365634,30.6277286 L4.70109296,29.8415727 C4.40081127,29.7742091 4.16644507,29.6069104 3.99652958,29.3374558 C3.82661408,29.0680013 3.77534648,28.7837416 3.84126197,28.4802351 L4.63737465,24.8463 C4.70402254,24.544274 4.87027606,24.3073909 5.13613521,24.1349104 C5.40272676,23.9646506 5.68469859,23.9120922 5.98498028,23.9794558 L9.49827606,24.7656117 Z M13.0013183,0.949975325 C14.2815437,1.23645584 15.4885296,1.69467662 16.6215437,2.3238974 C17.7538254,2.95237792 18.7139944,3.72298831 19.4998535,4.63572857 C20.2857127,5.54698831 20.8511211,6.58335195 21.1968113,7.74407922 C21.5425014,8.90332597 21.5674028,10.1588065 21.2722479,11.5068195 C21.0312901,12.6075857 20.6511775,13.5262481 20.1333746,14.2620662 C19.614107,14.9978844 19.0194028,15.629326 18.3470648,16.1571312 C17.6747268,16.6849364 16.9650366,17.1475987 16.2223887,17.5436377 C15.4775437,17.9404169 14.7729803,18.3172091 14.1108958,18.673274 C13.4466141,19.0300792 12.8453183,19.4231571 12.309938,19.8510273 C11.7723606,20.2796377 11.398107,20.7881961 11.1827831,21.3752221 C11.061938,21.6661442 10.8825014,21.899326 10.6437408,22.0762481 C10.4042479,22.2546506 10.1354592,22.3094299 9.83664225,22.2428065 L6.73202254,21.5469623 C6.43174085,21.4810792 6.1900507,21.3115597 6.00768451,21.0391442 C5.82458592,20.7674688 5.77990986,20.4839494 5.87292394,20.1863649 C6.16295211,19.1255727 6.5936,18.2328195 7.16633239,17.5088455 C7.73979718,16.7863519 8.37551549,16.1630532 9.07568451,15.6411701 C9.77585352,15.119287 10.5031211,14.6684688 11.2574873,14.2894558 C12.0118535,13.9089623 12.7142197,13.5395727 13.3645859,13.1798065 C14.0142197,12.8200403 14.5693746,12.4388065 15.0278535,12.0368455 C15.4885296,11.6348844 15.7814873,11.1440922 15.9081915,10.5652091 C16.1366986,9.51996234 15.8906141,8.56206623 15.1662761,7.6930013 C14.441938,6.82393636 13.3587268,6.22728701 11.9151775,5.90453377 C9.60154366,5.38561169 7.64312113,6.17546883 6.04137465,8.27114416 C5.8392338,8.54355974 5.64588169,8.73824805 5.46424789,8.85594935 C5.2804169,8.97439091 5.01162817,8.9928974 4.65788169,8.91368961 L1.34965634,8.17342987 C1.10503662,8.11865065 0.910952113,7.98836494 0.771064789,7.78405325 C0.63044507,7.5790013 0.59016338,7.33915714 0.650219718,7.06378052 C0.887515493,6.10662468 1.39652958,5.1887026 2.17433239,4.30853377 C2.95213521,3.42910519 3.90131831,2.68884545 5.01821972,2.08627403 C6.13585352,1.48592338 7.38531831,1.06397532 8.76588169,0.824871429 C10.1471775,0.585767532 11.5585014,0.627222078 13.0013183,0.949975325 L13.0013183,0.949975325 Z" id="Fill-113" fill="#F52851" mask="url(#mask-2)"></path>
                    </g>
                    <path d="M20.6962197,51.8494208 C20.9049521,51.8153688 21.0983042,51.8627455 21.2755437,51.9900701 C21.4520507,52.1196156 21.5575155,52.2898753 21.591938,52.5001091 L22.0013465,55.036239 C22.035769,55.247213 21.9896282,55.4426416 21.8621915,55.6210442 C21.7347549,55.800187 21.5663042,55.9053039 21.3575718,55.9400961 L18.9069803,56.3450182 C18.6975155,56.3798104 18.5048958,56.3339143 18.3283887,56.2051091 C18.1504169,56.0763039 18.0456845,55.9060442 18.011262,55.6950701 L17.6011211,53.1596805 C17.5681634,52.9487065 17.6135718,52.7540182 17.7410085,52.5741351 C17.8684451,52.3957325 18.0361634,52.2891351 18.2448958,52.2543429 L20.6962197,51.8494208 Z M16.9112056,35.6754857 C17.8039944,35.528174 18.6938535,35.5089273 19.5800507,35.619226 C20.4655155,35.7295247 21.2755437,35.9745506 22.0108676,36.3550442 C22.7454592,36.7377584 23.3701915,37.2552 23.8850648,37.9095896 C24.4021352,38.5647195 24.7353746,39.3627195 24.8877127,40.3021091 C25.0114873,41.0704987 25.0005014,41.7589403 24.8547549,42.3644727 C24.7090085,42.9700052 24.487093,43.5296416 24.1897408,44.0419013 C23.8916563,44.554161 23.5547549,45.0338494 23.1783042,45.480226 C22.8018535,45.9273429 22.4459099,46.3500312 22.1112056,46.7505117 C21.775769,47.1509922 21.4901352,47.5588753 21.2550366,47.9726805 C21.0184732,48.3850052 20.9071493,48.8084338 20.9188676,49.2400052 C20.9144732,49.4583818 20.8580789,49.6538104 20.7504169,49.8292519 C20.6420225,50.0054338 20.483093,50.1098104 20.275093,50.1446026 L18.1086704,50.5028883 C17.8992056,50.5376805 17.7014592,50.4910442 17.5146986,50.3637195 C17.3286704,50.2371351 17.2283324,50.0668753 17.2129521,49.8522 C17.1301915,49.0963948 17.1799944,48.4131351 17.3645577,47.8009403 C17.5476563,47.1894857 17.7981352,46.6246675 18.115262,46.1094468 C18.4309239,45.594226 18.783938,45.1167584 19.1713746,44.6777844 C19.5588113,44.2402909 19.9154873,43.8205636 20.2414028,43.4208234 C20.5665859,43.0233039 20.8258535,42.6354078 21.0184732,42.2586156 C21.211093,41.8810831 21.2755437,41.4917065 21.2103606,41.0875247 C21.0924451,40.3591091 20.691093,39.8083558 20.0070366,39.4374857 C19.3222479,39.0673558 18.4770648,38.9659403 17.4700225,39.1317584 C15.855093,39.3989922 14.7989803,40.4116675 14.3031493,42.1697844 C14.2423606,42.3955636 14.1683887,42.5710052 14.0805014,42.6938883 C13.9933465,42.8175117 13.8256282,42.8989403 13.5795437,42.9396545 L11.2710366,43.3208883 C11.0996563,43.3497584 10.9429239,43.3164468 10.8008394,43.2216935 C10.6580225,43.1262 10.5723324,42.9825896 10.5408394,42.7908623 C10.4507549,42.1164857 10.5445014,41.3954727 10.8213465,40.6300442 C11.0967268,39.8646156 11.5171211,39.1443429 12.0810648,38.4699662 C12.6450085,37.7948494 13.3400507,37.2026416 14.1639944,36.6911221 C14.9894028,36.1803429 15.9048958,35.8420442 16.9112056,35.6754857 L16.9112056,35.6754857 Z" id="Fill-118" fill="#F52851" opacity="0.5"></path>
                    <path d="M47.7662479,22.848487 C48.639262,23.475487 49.4046141,24.2090844 50.060107,25.0477987 C50.7148676,25.886513 51.1967831,26.7763052 51.4999944,27.7156948 C51.8046704,28.6565649 51.9035437,29.6189026 51.7988113,30.6041883 C51.6933465,31.5902143 51.3176282,32.5429286 50.6694592,33.4638117 C50.1406704,34.2151753 49.5650085,34.7851753 48.9432056,35.1715909 C48.3214028,35.5602273 47.6732338,35.844487 47.0001634,36.0251104 C46.3263606,36.206474 45.6466986,36.3263961 44.9626423,36.3863571 C44.2756563,36.4448377 43.6274873,36.5018377 43.0152056,36.5573571 C42.4029239,36.6121364 41.8265296,36.7142922 41.2874873,36.8653052 C40.7477127,37.0148377 40.3053465,37.2768896 39.9589239,37.6499805 C39.7758254,37.8298636 39.567093,37.9475649 39.3305296,38.0053052 C39.0946986,38.0623052 38.8749803,38.0164091 38.6706423,37.8698377 L36.551093,36.3463831 C36.3460225,36.1998117 36.2171211,35.9947597 36.1651211,35.730487 C36.1131211,35.4669545 36.1680507,35.2382143 36.3328394,35.0450065 C36.8865296,34.3380584 37.4914873,33.8050714 38.1513746,33.4438247 C38.8105296,33.0840584 39.4857972,32.8197857 40.1786423,32.6510065 C40.8692901,32.4837078 41.5592056,32.3778506 42.2483887,32.3349156 C42.9353746,32.2919805 43.5813465,32.2394221 44.1848394,32.1779805 C44.7883324,32.116539 45.3251775,32.0077208 45.7990366,31.8522662 C46.271431,31.6968117 46.6478817,31.4221753 46.9254592,31.0276169 C47.4271493,30.3132662 47.5421352,29.5130455 47.2711493,28.6247338 C47.0001634,27.7371623 46.3725014,26.9384221 45.387431,26.2307338 C43.8061915,25.0951753 42.0814028,25.0589026 40.2145296,26.1219156 C39.975769,26.2618247 39.7692338,26.3476948 39.5956563,26.3773052 C39.4198817,26.4069156 39.2118817,26.3351104 38.9701915,26.1618896 L36.7107549,24.5377597 C36.543769,24.4178377 36.4390366,24.2579416 36.3980225,24.0588117 C36.3562761,23.8582013 36.4016845,23.6657338 36.5335155,23.4777078 C37.0139662,22.8329416 37.6863042,22.3043961 38.5505296,21.8920714 C39.4147549,21.4797468 40.3617408,21.2273182 41.3936845,21.1340455 C42.4241634,21.0407727 43.4978535,21.1251623 44.6132901,21.3894351 C45.7294592,21.6537078 46.7797127,22.1400584 47.7662479,22.848487 L47.7662479,22.848487 Z M37.6196563,39.6612662 C37.8247268,39.8085779 37.9485014,40.0106688 37.9917127,40.267539 C38.0341915,40.5251494 37.9836563,40.7568506 37.8379099,40.9641234 L36.0940789,43.4439935 C35.9476,43.6520065 35.7483887,43.7763701 35.4935155,43.8193052 C35.2393746,43.8637208 35.0094028,43.8111623 34.8050648,43.6645909 L32.4064732,41.9412662 C32.2014028,41.7939545 32.0783606,41.5926039 32.0351493,41.3357338 C31.991938,41.0773831 32.0432056,40.8456818 32.1889521,40.6391494 L33.9335155,38.158539 C34.079262,37.9512662 34.2777408,37.8261623 34.5340789,37.7832273 C34.7874873,37.7395519 35.0167268,37.7913701 35.2217972,37.9386818 L37.6196563,39.6612662 Z" id="Fill-122" fill="#F52851" opacity="0.200000003"></path>
                </g>
                <g id="Group-137" transform="translate(196.000000, 103.000000)">
                    <path d="M49.5741014,8.34026489 L27.4484932,0.49335 L5.53768243,8.23456277 C2.74085811,9.53895638 0.287412162,10.3207117 0.287412162,12.8942649 L0.287412162,25.7069777 C0.287412162,34.6057755 2.6479527,43.4230947 7.5050473,51.207616 C11.5921419,57.7589457 17.9208581,64.5047968 27.6640338,68.7916053 C36.6193716,65.9178287 43.3048446,58.2588287 47.3919392,51.708233 C52.2490338,43.9237117 54.6095743,35.1056585 54.6095743,26.2068606 L54.6095743,14.6845947 C54.6095743,11.015116 52.640723,9.22258404 49.5741014,8.34026489" id="Fill-125" fill="#F52851"></path>
                    <path d="M27.6636622,61.3554606 C19.9554865,57.96345 14.949,52.513184 11.7151486,47.3308436 C7.87183784,41.1714926 6.00406757,34.1944181 6.00406757,27.15495 L6.00406757,18.1665989 C6.00406757,16.1303649 7.24751351,14.2233223 9.71731081,13.0848223 L27.4525811,6.53569468 L27.4488649,0.493056383 L5.53731081,8.23426915 C3.23845946,9.22669468 0.287783784,10.3204181 0.287783784,12.8939713 L0.287783784,25.7074181 C0.287783784,34.606216 2.64832432,43.4228011 7.50541892,51.2080564 C11.5925135,57.7593862 17.9212297,64.5045032 27.6636622,68.7913117 L27.6636622,61.3554606 Z" id="Fill-127" fill="#AD0224"></path>
                    <path d="M27.6636622,68.7912383 C29.2155541,68.2781426 30.6418378,67.6872383 32.0108919,66.9502596 C35.684,64.974217 38.8175135,62.2604617 41.2092703,59.8043553 C43.8834595,57.056834 45.8768378,54.0876319 47.6071081,51.3136851 C52.4642027,43.5291638 54.8247432,34.7111106 54.6099459,25.5678766 L54.6225811,14.9888553 C54.6099459,9.72063191 51.8740676,9.3323234 49.5737297,8.33989787 L27.4488649,0.492982979 L27.4525811,6.53562128 L45.394473,13.1904511 C47.8650135,14.3289511 49.1084595,16.2359936 49.1084595,18.2722277 L49.1084595,27.2605787 C49.1084595,34.3007809 47.2399459,41.2771213 43.3973784,47.4357383 C40.163527,52.6188128 35.3718378,57.9633766 27.6636622,61.3553872 L27.6636622,68.7912383 Z" id="Fill-129" fill="#AD0224"></path>
                    <path d="M32.0810541,26.5633117 L23.067,26.5633117 L23.091527,24.8485883 C23.091527,22.394684 25.1131486,20.3980883 27.5985541,20.3980883 C30.0832162,20.3980883 32.1048378,22.394684 32.1048378,24.8397798 L32.0810541,26.5633117 Z M29.1303784,37.3992479 L26.3261216,37.3992479 L26.7638919,35.399716 C26.2778108,35.1009606 25.9537568,34.571716 25.9537568,33.9653968 C25.9537568,33.0331628 26.7192973,32.2770989 27.6639595,32.2770989 C28.6078784,32.2770989 29.3734189,33.0331628 29.3734189,33.9653968 C29.3734189,34.5489606 29.0731486,35.0649926 28.6167973,35.3674181 C28.8145,36.142567 29.1303784,37.3992479 29.1303784,37.3992479 L29.1303784,37.3992479 Z M33.3185541,26.5779926 L33.3423378,24.8485883 C33.3423378,21.7200989 30.7655135,19.1751734 27.5985541,19.1751734 C24.4308514,19.1751734 21.854027,21.7200989 21.854027,24.8397798 L21.8287568,26.6014819 C20.2783514,26.8283011 19.0884189,28.1437053 19.0884189,29.7380457 L19.0884189,39.9383011 C19.0884189,41.6911947 20.5273378,43.1123011 22.3029459,43.1123011 L33.024973,43.1123011 C34.7998378,43.1123011 36.2395,41.6911947 36.2395,39.9383011 L36.2395,29.7380457 C36.2395,28.0827798 34.9559189,26.7248011 33.3185541,26.5779926 L33.3185541,26.5779926 Z" id="Fill-131" fill="#FFFFFF"></path>
                    <path d="M9.58999324,26.4536939 C9.54093919,26.4602521 9.38783108,25.7864011 9.25776351,24.6787309 C9.12546622,23.5725287 9.02661486,22.0310394 9.07864189,20.3287947 C9.10242568,19.4780394 9.15965541,18.6683904 9.23769595,17.9343479 C9.3090473,17.2017734 9.44506081,16.5147096 9.7319527,16.0008798 C10.0136419,15.4841138 10.4060743,15.175816 10.7011419,15.039284 C11.0006689,14.901284 11.1879662,14.9078904 11.1909392,14.9284436 C11.2288446,14.9768904 10.4439797,15.1288372 9.97722297,16.1219968 C9.74681757,16.6027947 9.64425,17.2406777 9.59296622,17.9666457 C9.53499324,18.694816 9.48891216,19.4971245 9.46512838,20.3398053 C9.41458784,22.024433 9.46810135,23.5512415 9.53053378,24.6559755 C9.58925,25.7614436 9.64647973,26.4463053 9.58999324,26.4536939" id="Fill-133" fill="#FFFFFF"></path>
                    <path d="M9.91516216,32.0310548 C9.80739189,32.03325 9.71077027,31.5069415 9.69813514,30.8551117 C9.68475676,30.204016 9.76131081,29.6740372 9.86833784,29.6718282 C9.97462162,29.669633 10.0719865,30.1959415 10.0853649,30.8485053 C10.098,31.498867 10.0221892,32.0288457 9.91516216,32.0310548" id="Fill-135" fill="#FFFFFF"></path>
                </g>
                <polygon id="Fill-138" fill="#333539" points="183.462988 188 159.038987 248.278621 115 248.278621 115 251 246.17002 251 273 188"></polygon>
                <path d="M220.697226,223.68001 C219.80347,226.646011 217.198788,228.522108 214.881119,227.870895 C212.562706,227.219681 211.408705,224.286708 212.302461,221.31999 C213.196961,218.353989 215.800899,216.477892 218.119312,217.129105 C220.436981,217.780319 221.591726,220.713292 220.697226,223.68001" id="Fill-139" fill="#FAFAFA"></path>
            </g>
        </g>
    </g>
</svg>