<?xml version="1.0" encoding="UTF-8"?>
<svg width="20px" height="24px" viewBox="0 0 20 24" version="1.1" xmlns="http://www.w3.org/2000/svg" xmlns:xlink="http://www.w3.org/1999/xlink">
    <!-- Generator: sketchtool 63.1 (101010) - https://sketch.com -->
    <title>377CA7DF-BE35-4503-90FF-A0DB0CF489D2@1.5x</title>
    <desc>Created with sketchtool.</desc>
    <g id="Recruiter-Design" stroke="none" stroke-width="1" fill="none" fill-rule="evenodd">
        <g id="02_Internapp_Dashboard" transform="translate(-35.000000, -582.000000)">
            <g id="Group-6" transform="translate(0.000000, 164.000000)">
                <g id="Group-4-Copy" transform="translate(20.000000, 405.000000)">
                    <g id="icn_notification">
                        <rect id="Rectangle" x="0" y="0" width="51" height="51"></rect>
                        <g id="Group-7" transform="translate(16.000000, 14.000000)">
                            <path d="M5.85044239,14 L16,14 C17.1045695,14 18,14.8954305 18,16 C18,17.1045695 17.1045695,18 16,18 L2,18 C0.8954305,18 0,17.1045695 0,16 C0,14.8954305 0.8954305,14 2,14" id="Path" stroke="#C1BEBE" stroke-width="1.7" stroke-linecap="round" stroke-linejoin="round"></path>
                            <path d="M2,14 L2,7 C2,3.13400675 5.13400675,0 9,0 C12.8659932,0 16,3.13400675 16,7 L16,11" id="Path" stroke="#C1BEBE" stroke-width="1.7" stroke-linecap="round" stroke-linejoin="round"></path>
                            <circle id="Oval" fill="#C1BEBE" cx="9.5" cy="21.5" r="1.5"></circle>
                        </g>
                    </g>
                </g>
            </g>
        </g>
    </g>
</svg>