<?xml version="1.0" encoding="UTF-8"?>
<svg width="22px" height="24px" viewBox="0 0 22 24" version="1.1" xmlns="http://www.w3.org/2000/svg" xmlns:xlink="http://www.w3.org/1999/xlink">
    <!-- Generator: sketchtool 63.1 (101010) - https://sketch.com -->
    <title>ECB4DC9E-F577-413E-A022-61C9DA290F10@1.5x</title>
    <desc>Created with sketchtool.</desc>
    <g id="Recruiter-Design" stroke="none" stroke-width="1" fill="none" fill-rule="evenodd">
        <g id="02_Internapp_Dashboard" transform="translate(-34.000000, -258.000000)">
            <g id="Group-6" transform="translate(0.000000, 164.000000)">
                <g id="Group-3" transform="translate(20.000000, 81.000000)">
                    <g id="icn_recruitment">
                        <rect id="Rectangle" x="0" y="0" width="51" height="51"></rect>
                        <g id="Recruitment" transform="translate(15.000000, 14.000000)">
                            <path d="M18,9 C18,4.02943725 13.9705627,0 9,0 C4.02943725,0 0,4.02943725 0,9 C0,13.9705627 4.02943725,18 9,18 C12.4184835,18 15.39182,16.0940994 16.9153825,13.2869254" id="Path" stroke="#C1BEBE" stroke-width="1.7" stroke-linecap="round"></path>
                            <circle id="Oval-Copy-14" fill="#C1BEBE" cx="9" cy="5.5" r="1.5"></circle>
                            <path d="M6.5,13.5 L6.5,11.5 C6.5,10.1192881 7.61928813,9 9,9 C10.3807119,9 11.5,10.1192881 11.5,11.5 L11.5,13.5" id="Path-Copy-2" stroke="#C1BEBE" stroke-width="1.7" stroke-linecap="round"></path>
                            <line x1="17.1044678" y1="18.2771729" x2="20" y2="22" id="Path" stroke="#C1BEBE" stroke-width="1.7" stroke-linecap="round"></line>
                        </g>
                    </g>
                </g>
            </g>
        </g>
    </g>
</svg>