<?xml version="1.0" encoding="UTF-8"?>
<svg width="25px" height="24px" viewBox="0 0 25 24" version="1.1" xmlns="http://www.w3.org/2000/svg" xmlns:xlink="http://www.w3.org/1999/xlink">
    <!-- Generator: sketchtool 63.1 (101010) - https://sketch.com -->
    <title>6BF22410-5DC0-4B7B-8B54-A25C5953BD3D@1.5x</title>
    <desc>Created with sketchtool.</desc>
    <g id="Recruiter-Design" stroke="none" stroke-width="1" fill="none" fill-rule="evenodd">
        <g id="02_Internapp_Dashboard" transform="translate(-33.000000, -178.000000)">
            <g id="Group-6" transform="translate(0.000000, 164.000000)">
                <g id="Group-72" transform="translate(20.000000, 0.000000)">
                    <g id="icn_dashboard_selected">
                        <rect id="Rectangle" x="0" y="0" width="51" height="51"></rect>
                        <g id="dashboard" transform="translate(14.000000, 15.000000)">
                            <path d="M20,10 L20,17.3083444 C20,18.6456225 19.8607616,19.1305519 19.5993009,19.6194408 C19.3378403,20.1083296 18.9541574,20.4920125 18.4652686,20.7534731 C17.9763797,21.0149338 17.4914503,21.1541722 16.1541722,21.1541722 L6.8458278,21.1541722 C5.50854969,21.1541722 5.02362033,21.0149338 4.53473144,20.7534731 C4.04584256,20.4920125 3.66215969,20.1083296 3.40069906,19.6194408 C3.13923842,19.1305519 3,18.6456225 3,17.3083444 L3,10" id="Path" stroke="#FFFFFF" stroke-width="1.7" stroke-linecap="round"></path>
                            <polyline id="Path-6" stroke="#FFFFFF" stroke-width="1.7" stroke-linecap="round" stroke-linejoin="round" points="0 8 11.5937516 0 23 8"></polyline>
                            <circle id="Oval-Copy-13" fill="#FFFFFF" cx="11.5" cy="8.5" r="1.5"></circle>
                            <path d="M9,17.5 L9,15.5 C9,14.1192881 10.1192881,13 11.5,13 C12.8807119,13 14,14.1192881 14,15.5 L14,17.5" id="Path-Copy" stroke="#FFFFFF" stroke-width="1.7" stroke-linecap="round"></path>
                        </g>
                    </g>
                </g>
            </g>
        </g>
    </g>
</svg>