<?xml version="1.0" encoding="UTF-8"?>
<svg width="14px" height="14px" viewBox="0 0 14 14" version="1.1" xmlns="http://www.w3.org/2000/svg" xmlns:xlink="http://www.w3.org/1999/xlink">
    <!-- Generator: sketchtool 63.1 (101010) - https://sketch.com -->
    <title>9EB417AE-931D-49A1-8673-C5CC557C5CBF@1.5x</title>
    <desc>Created with sketchtool.</desc>
    <g id="Recruiter-Design" stroke="none" stroke-width="1" fill="none" fill-rule="evenodd">
        <g id="02_Internapp_Dashboard" transform="translate(-1094.000000, -737.000000)" fill="#4D4D4D" fill-rule="nonzero" stroke="#4D4D4D" stroke-width="0.6">
            <g id="Group-63" transform="translate(1070.000000, 648.000000)">
                <g id="Group-50" transform="translate(0.000000, 46.000000)">
                    <g id="Group-47" transform="translate(25.000000, 43.000000)">
                        <path d="M6,1 C9.3084,1 12,3.6916 12,7 C12,10.3084 9.3084,13 6,13 C2.6916,13 0,10.3084 0,7 C0,3.6916 2.6916,1 6,1 Z M6,1.4 C2.9122,1.4 0.4,3.9122 0.4,7 C0.4,10.0878 2.9122,12.6 6,12.6 C9.0878,12.6 11.6,10.0878 11.6,7 C11.6,3.9122 9.0878,1.4 6,1.4 Z M6.12678999,3.1894155 C6.23718999,3.1894155 6.32678999,3.2788155 6.32678999,3.3894155 L6.32678999,3.3894155 L6.32678999,7.1894155 C6.32678999,7.3000155 6.23718999,7.3894155 6.12678999,7.3894155 L6.12678999,7.3894155 L2.92678999,7.3894155 C2.81638999,7.3894155 2.72678999,7.3000155 2.72678999,7.1894155 C2.72678999,7.0788155 2.81638999,6.9894155 2.92678999,6.9894155 L2.92678999,6.9894155 L5.92678999,6.9894155 L5.92678999,3.3894155 C5.92678999,3.2788155 6.01638999,3.1894155 6.12678999,3.1894155 Z" id="icn_datetime"></path>
                    </g>
                </g>
            </g>
        </g>
    </g>
</svg>