<?xml version="1.0" encoding="UTF-8"?>
<svg width="25px" height="25px" viewBox="0 0 25 25" version="1.1" xmlns="http://www.w3.org/2000/svg" xmlns:xlink="http://www.w3.org/1999/xlink">
    <!-- Generator: sketchtool 63.1 (101010) - https://sketch.com -->
    <title>A06957C5-C34B-43B2-A254-295E44DA5512@1.5x</title>
    <desc>Created with sketchtool.</desc>
    <g id="Recruiter-Design" stroke="none" stroke-width="1" fill="none" fill-rule="evenodd">
        <g id="02_Internapp_Dashboard" transform="translate(-33.000000, -663.000000)">
            <g id="Group-6" transform="translate(0.000000, 164.000000)">
                <g id="Group-2" transform="translate(20.000000, 486.000000)">
                    <g id="icn_settings">
                        <rect id="Rectangle" x="0" y="0" width="51" height="51"></rect>
                        <g id="settings2" transform="translate(14.000000, 14.000000)" stroke="#C1BEBE" stroke-width="1.7">
                            <path d="M14.9490259,13.3146459 C13.8412376,15.2718106 11.3569671,15.9607282 9.39980235,14.8534812 C7.44236706,13.7459635 6.75344941,11.2614224 7.86096706,9.30425765 C8.96848471,7.34682235 11.4530259,6.65790471 13.4101906,7.76542235 C15.3676259,8.87294 16.0565435,11.3574812 14.9490259,13.3146459 Z" id="Stroke-1"></path>
                            <path d="M8.31525765,0.512061176 L8.16805765,0.264743529 C8.12692824,0.194931765 8.03682235,0.171661176 7.96674,0.212790588 L3.42816353,2.88566118 C3.35835176,2.92706118 3.33508118,3.01716706 3.37648118,3.08697882 L4.75837529,5.43135529 C4.83197529,5.55609647 4.81736353,5.71222588 4.72509294,5.82424941 C4.41364588,6.20226118 4.12763412,6.60922588 3.87788118,7.05055529 C3.63516353,7.47916706 3.43411647,7.92022588 3.27176353,8.36859059 C3.22197529,8.50550824 3.09452824,8.59777882 2.94868118,8.59750883 L1.31216353,8.59290824" id="Stroke-3" stroke-linecap="round" stroke-linejoin="round"></path>
                            <path d="M0.13524,10.8616553 L0.162569412,14.0050788 C0.163381176,14.0862553 0.229675294,14.1514671 0.310851765,14.1509259 L2.99454588,14.1387494 C3.13849882,14.1382082 3.26486353,14.2283141 3.31546353,14.3630671 C3.65884,15.2738671 4.15591059,16.1291965 4.79449882,16.8871141 C4.88731059,16.9972435 4.90435765,17.1514788 4.83373412,17.2767612 L3.51975765,19.5989494 C3.47971059,19.6698435 3.50460471,19.7594082 3.57522824,19.7991847 L8.15926353,22.3930435 C8.23015765,22.4333612 8.31972235,22.4081965 8.35976941,22.3375729 L9.67401647,20.0143024 C9.74491059,19.88902 9.88642824,19.8243494 10.0284871,19.8473494 C11.0218165,20.0069965 12.0259694,19.9869729 12.99684,19.8043259 C13.1410635,19.7769965 13.2863694,19.8413965 13.3594282,19.9685729 L14.6823341,22.2826435 C14.7237341,22.3527259 14.81384,22.3759965 14.8833812,22.3345965 L19.4219576,19.6617259 C19.49204,19.6205965 19.5153106,19.5304906 19.4739106,19.4604082 L18.0830871,17.1547259 C18.0075929,17.0299847 18.0213929,16.8727729 18.1133929,16.7599376 C18.4137459,16.3916671 18.6900165,15.9963376 18.9319224,15.5685376 C19.1776165,15.1350553 19.3762282,14.6885847 19.5383106,14.2348082 C19.5864753,14.0997847 19.7109459,14.0075141 19.8543576,14.0050788 L22.58784,13.9574553 C22.6690165,13.9566435 22.7342282,13.8903494 22.7334313,13.8091729 L22.6876871,8.54244353 C22.6868753,8.46126706 22.6205812,8.39605529 22.5394047,8.39659647 L19.7829224,8.39794941 C19.6405929,8.39794941 19.5158518,8.30919647 19.4641694,8.17660824 C19.1218753,7.29611412 18.6356282,6.46838471 18.0151694,5.73292588 C17.9223576,5.62279647 17.9047694,5.46802 17.9759341,5.34273765 L19.3304988,2.94857294 C19.3705459,2.87794941 19.3459224,2.78811412 19.2750282,2.74833765 L14.6907224,0.154478824 C14.6203694,0.114431765 14.5308047,0.139325882 14.4907576,0.209949412 L13.1359224,2.60411412 C13.0650282,2.72939647 12.9235106,2.79433765 12.7814518,2.77160824 C11.8281694,2.61791412 10.8648753,2.62765529 9.93080471,2.78973765 C9.79009882,2.81409059 9.64912235,2.75212588 9.57606353,2.62954941" id="Stroke-5" stroke-linecap="round" stroke-linejoin="round"></path>
                        </g>
                    </g>
                </g>
            </g>
        </g>
    </g>
</svg>