<?xml version="1.0" encoding="UTF-8"?>
<svg width="32px" height="32px" viewBox="0 0 32 32" version="1.1" xmlns="http://www.w3.org/2000/svg" xmlns:xlink="http://www.w3.org/1999/xlink">
    <!-- Generator: sketchtool 63.1 (101010) - https://sketch.com -->
    <title>056B38CD-5455-4164-B322-C34D26705CAD@1.5x</title>
    <desc>Created with sketchtool.</desc>
    <g id="Recruiter-Design" stroke="none" stroke-width="1" fill="none" fill-rule="evenodd">
        <g id="03_CV-Analysis" transform="translate(-29.000000, -54.000000)">
            <g id="img_robosoftlogo" transform="translate(29.000000, 54.000000)">
                <circle id="Oval" fill="#F52851" cx="15.7319993" cy="15.7319993" r="15.7319993"></circle>
                <path d="M6.58278635,8.86782487 C8.34440743,8.75568603 9.85850379,10.2413605 11.1250754,13.3248482 C12.4086196,16.4496557 13.6460888,21.7592309 14.8374832,29.2535737 L14.8375522,29.2535628 C14.8423325,29.2836327 14.8705842,29.304134 14.9006541,29.2993537 C14.9240643,29.2956321 14.942475,29.2773627 14.9463768,29.2539819 C16.20197,21.7300292 17.2852811,16.7142753 18.1963101,14.2067202 C21.133466,3.8938781 26.3763959,7.4970994 25.8056104,7.010157 C25.2348249,6.52321459 19.2998112,2.0083359 14.8122725,13.0172854 C11.7789788,7.77120829 9.02179608,6.35628348 6.54072423,8.77251092 L6.54024899,8.77202291 C6.51813901,8.79355503 6.51767057,8.82893393 6.53920268,8.85104391 C6.55058459,8.86273127 6.56650544,8.86886125 6.58278635,8.86782487 Z" id="Path" fill="#FFFFFF"></path>
            </g>
        </g>
    </g>
</svg>