<?xml version="1.0" encoding="UTF-8"?>
<svg width="170px" height="33px" viewBox="0 0 170 33" version="1.1" xmlns="http://www.w3.org/2000/svg" xmlns:xlink="http://www.w3.org/1999/xlink">
    <!-- Generator: sketchtool 63.1 (101010) - https://sketch.com -->
    <title>170D12A0-4EE7-4A8D-88C7-BEE19E85DB35@1.5x</title>
    <desc>Created with sketchtool.</desc>
    <g id="Recruiter-Design" stroke="none" stroke-width="1" fill="none" fill-rule="evenodd">
        <g id="02_Internapp_Dashboard" transform="translate(-25.000000, -54.000000)">
            <g id="img_Robosoft-logo_dashboard" transform="translate(25.000000, 54.000000)">
                <text id="EMOTION-ENGINEERING-&amp;-DESIGN" font-family="NeoSansStd-Regular, Neo Sans Std" font-size="6.23769224" font-weight="normal" fill="#F52851">
                    <tspan x="34.6538462" y="26.5769231">EM</tspan>
                    <tspan x="42.8376984" y="26.5769231" letter-spacing="-0.286310057">O</tspan>
                    <tspan x="46.3938067" y="26.5769231">TION ENGINEERING &amp; DESIGN</tspan>
                </text>
                <g id="Group-5" transform="translate(0.000000, 0.026834)">
                    <path d="M31.9208604,16.0515005 C31.9208604,24.8661835 24.7755251,32.0122249 15.960489,32.0122249 C7.14568838,32.0122249 0,24.8661835 0,16.0515005 C0,7.23681753 7.14568838,0.0908937682 15.960489,0.0908937682 C24.7755251,0.0908937682 31.9208604,7.23681753 31.9208604,16.0515005" id="Fill-1" fill="#F52851"></path>
                    <path d="M6.480821,9.17535105 C6.480821,9.17535105 10.3710225,4.46659956 14.8532163,13.3803795 L14.8825217,13.4389902 C14.8825217,13.4389902 16.2883563,10.4596095 17.4724586,8.84816644 C18.6555016,7.23648799 21.6766631,4.11399341 26.7131877,7.5133003 C26.7131877,7.5133003 23.0962677,5.00374725 20.1847955,10.2645933 C18.3782186,13.4140395 16.5971809,19.2895925 15.0895424,30.2792293 C15.0895424,30.2792293 14.0632655,19.0192532 11.0505779,12.9398572 C9.85870789,10.5342264 8.13016098,8.20603721 6.480821,9.17535105" id="Fill-3" fill="#FFFFFF"></path>
                </g>
                <text id="Robosoft-Technologies" font-family="NeoTech-Medium, NeoTech" font-size="13.5934614" font-weight="400" letter-spacing="-0.588461523" fill="#ED2F52">
                    <tspan x="34" y="17.8461538">Robosoft Technologies</tspan>
                </text>
                <path d="M169.710555,8.02835459 C169.710555,9.03168151 168.897184,9.84517073 167.893739,9.84517073 C166.890295,9.84517073 166.076923,9.03168151 166.076923,8.02835459 C166.076923,7.02490999 166.890295,6.21153846 167.893739,6.21153846 C168.897184,6.21153846 169.710555,7.02490999 169.710555,8.02835459 Z" id="Stroke-6" stroke="#ED2F52" stroke-width="0.3"></path>
                <text id="R" font-family="NeoSansStd-Regular, Neo Sans Std" font-size="2.28846154" font-weight="normal" fill="#ED2F52">
                    <tspan x="167.2" y="8.8">R</tspan>
                </text>
            </g>
        </g>
    </g>
</svg>