<?xml version="1.0" encoding="UTF-8"?>
<svg width="465px" height="338px" viewBox="0 0 465 338" version="1.1" xmlns="http://www.w3.org/2000/svg" xmlns:xlink="http://www.w3.org/1999/xlink">
    <!-- Generator: sketchtool 63.1 (101010) - https://sketch.com -->
    <title>88B19B4D-426C-4910-B7F7-8897A43D6AB1@1.5x</title>
    <desc>Created with sketchtool.</desc>
    <defs>
        <path d="M45.669,6.374 C48.627,12.222 39.61,18.896 37.021,20.569 C29.42,25.479 11.907,35.041 9.311,36.688 C6.63,32.887 4.392,30.286 0.697,25.184 C2.111,24.238 3.154,23.053 5.377,21.455 C5.901,21.002 28.1,3.405 36.376,0.674" id="path-1"></path>
        <path d="M6.09,0.96 C7.631,1.681 9.185,1.961 11.702,3.038 C12.36,3.252 29.536,8.604 36.152,14.276 C38.978,16.697 39.819,19.201 36.079,25.177 C32.603,30.733 22.228,26.466 19.458,25.116 C11.325,21.149 3.45,15.653 0.698,14.283" id="path-3"></path>
        <polygon id="path-5" points="0.924698554 0.3855 29.847 0.3855 29.847 19 0.924698554 19"></polygon>
        <path d="M7.251,0.77 L19.906,0.843 L19.8996476,0.856968253 C19.6999214,1.29128689 14.7582917,11.6956875 0.531,9.848 L7.251,0.77 Z" id="path-7"></path>
        <path d="M13.147,0.77 L19.868,9.848 C5.337,11.735 0.492,0.843 0.492,0.843 L0.492,0.843 L13.147,0.77 Z" id="path-9"></path>
        <path d="M9.007,1.243 C7.31,2.866 0.712,30.811 0.712,30.811 L0.712,30.811 L6.818,32.773 C14.302,17.48 18.56,5.275 18.56,5.275 L18.56,5.275 C18.56,5.275 12.554,0.949 9.911,0.949 L9.911,0.949 C9.531,0.949 9.22,1.039 9.007,1.243" id="path-11"></path>
        <path d="M5.43,4.88 C4.175,6.411 1.508,8.907 0.581,10.656 L0.581,10.656 C0.426,10.95 0.435,11.323 0.653,11.574 L0.653,11.574 C0.967,11.933 1.42,11.756 1.773,11.563 L1.773,11.563 C2.991,10.895 4.872,9.142 5.787,8.098 L5.787,8.098 C4.52,9.789 3.014,12.505 2.064,14.393 L2.064,14.393 C1.909,14.698 1.826,15.043 1.868,15.383 L1.868,15.383 C1.994,16.39 2.898,16.467 3.49,16.132 L3.49,16.132 C3.872,15.916 4.152,15.56 4.413,15.207 L4.413,15.207 C5.461,13.792 6.753,11.361 7.537,9.784 L7.537,9.784 C6.665,11.752 5.574,15.134 5.465,17.282 L5.465,17.282 C5.446,17.648 5.441,18.031 5.591,18.367 L5.591,18.367 C5.74,18.702 6.086,18.978 6.45,18.929 L6.45,18.929 C6.807,18.882 7.055,18.56 7.24,18.253 L7.24,18.253 C8.452,16.246 9.291,12.57 9.518,10.237 L9.518,10.237 C9.441,11.884 9.398,15.438 9.645,17.069 L9.645,17.069 C9.746,17.723 9.966,18.486 10.594,18.694 L10.594,18.694 C11.172,18.886 11.81,18.453 12.062,17.898 L12.062,17.898 C12.314,17.342 12.455,11.599 12.315,9.372 L12.315,9.372 C12.75,9.97 14.132,12.973 15.111,13.148 L15.111,13.148 C16.056,13.319 16.833,12.41 16.517,11.504 L16.517,11.504 C15.899,9.738 13.832,7.286 13.693,3.327 L13.693,3.327 C13.642,1.891 12.451,0.808 11.109,0.431 L11.109,0.431 C10.88,0.366 10.656,0.335999751 10.439,0.335999751 L10.439,0.335999751 C8.264,0.335 6.687,3.348 5.43,4.88" id="path-13"></path>
    </defs>
    <g id="Recruiter-Design" stroke="none" stroke-width="1" fill="none" fill-rule="evenodd">
        <g id="01_Internapp_New-Password_success" transform="translate(-488.000000, -407.000000)">
            <g id="img_success_illustration" transform="translate(488.000000, 406.000000)">
                <g id="Group-172" transform="translate(2.000000, 0.687000)">
                    <path d="M319.5351,0.3627 C358.1221,1.4547 395.2521,19.6227 422.6061,46.8597 C437.0411,61.2337 449.1041,78.3157 455.7591,97.5697 C462.8721,118.1547 463.5821,140.4077 462.3281,162.1517 C460.1811,199.3977 451.9111,237.5677 429.7431,267.5767 C404.8241,301.3087 364.6891,321.2097 323.6871,330.0227 C282.6851,338.8377 240.2881,337.7137 198.3611,336.7277 C157.0371,335.7567 113.6831,334.4187 77.9301,313.6757 C50.5771,297.8077 30.1271,271.5417 17.8571,242.3967 C5.5871,213.2537 1.0621,181.3137 0.8031,149.6937 C0.5591,119.9337 4.9951,87.8717 25.3111,66.1237 C35.9951,54.6867 50.2721,47.1087 65.1141,42.1397 C79.6681,37.2657 95.1601,34.7167 110.4341,36.2307 C129.3151,38.1027 146.9901,46.0197 165.2881,51.0367 C179.3671,54.8977 197.5001,58.1477 211.5631,52.3767 C222.6921,47.8097 229.3951,34.1817 239.1691,26.4847 C261.7411,8.7077 290.8821,-0.4483 319.5351,0.3627" id="Fill-1" fill="#E0E0E0" opacity="0.100000001"></path>
                    <path d="M309.0663,215.601 C309.0663,215.601 293.4623,255.816 283.5173,268.181 L295.0673,275.925 C295.0673,275.925 310.3273,255.836 318.2533,244.938 C319.5413,243.165 333.7943,219.879 333.7943,219.879 L309.0663,215.601 Z" id="Fill-3" fill="#FDA1A1"></path>
                    <path d="M275.3817,277.8441 L278.9327,273.2491 L283.8317,267.6011 L295.4547,275.6421 L293.8617,277.9311 C293.2347,278.8331 293.1407,280.0031 293.6177,280.9941 L294.6987,283.2411 L295.6167,285.1501 L299.9707,294.2131 C300.5877,296.2331 300.2357,298.3771 299.0977,300.0631 C298.7047,300.6531 298.2167,301.1891 297.6427,301.6391 L275.7017,283.9551 C274.0977,282.2781 273.9597,279.6791 275.3817,277.8441" id="Fill-5" fill="#FF2351"></path>
                    <path d="M294.6933,282.7562 C292.1553,283.2722 291.6983,283.2312 289.1873,283.8662 C289.2953,283.8572 289.4013,283.8482 289.5083,283.8392" id="Stroke-7" stroke="#131450" stroke-width="0.591" stroke-linecap="round" stroke-linejoin="round"></path>
                    <path d="M295.3456,284.7084 C293.0296,285.3894 292.7826,285.4524 290.4646,286.1334" id="Stroke-9" stroke="#131450" stroke-width="0.591" stroke-linecap="round" stroke-linejoin="round"></path>
                    <path d="M275.7021,283.9554 L297.6421,301.6394 C298.2171,301.1884 298.7051,300.6524 299.0981,300.0624 L280.0921,285.0754 C280.4501,284.3304 280.7441,283.5464 280.9651,282.7494 C281.4761,280.9044 281.6021,278.9254 281.1271,277.0694 C280.7511,275.6294 279.9991,274.2714 278.9321,273.2494 L275.3821,277.8444 C273.9601,279.6794 274.0981,282.2774 275.7021,283.9554" id="Fill-11" fill="#F01245"></path>
                    <path d="M256.1005,188.4794 L270.8535,230.0084 L284.9975,225.6124 L280.8045,216.5424 C278.7805,211.9034 275.8515,191.0554 275.8515,191.0554 L256.1005,188.4794 Z" id="Fill-13" fill="#FDA1A1"></path>
                    <path d="M288.0663,233.0824 L285.8713,227.7064 L282.6603,220.9544 L269.3103,225.5974 L270.2343,228.2284 C270.5983,229.2664 270.3763,230.4194 269.6513,231.2464 L268.0083,233.1224 L266.6143,234.7174 L259.9973,242.2874 C258.8633,244.0684 258.6293,246.2294 259.2773,248.1574 C259.4973,248.8314 259.8243,249.4784 260.2573,250.0644 L286.1253,238.8864 C288.1193,237.6984 288.9463,235.2304 288.0663,233.0824" id="Fill-15" fill="#FF2351"></path>
                    <path d="M268.1435,232.6566 C270.4525,233.8316 270.9035,233.9146 273.1535,235.1976 C273.0525,235.1606 272.9525,235.1226 272.8505,235.0856" id="Stroke-17" stroke="#131450" stroke-width="0.591" stroke-linecap="round" stroke-linejoin="round"></path>
                    <path d="M266.994,234.3636 C269.044,235.6376 269.265,235.7656 271.316,237.0406" id="Stroke-19" stroke="#131450" stroke-width="0.591" stroke-linecap="round" stroke-linejoin="round"></path>
                    <path d="M286.1249,238.8861 L260.2579,250.0651 C259.8239,249.4781 259.4969,248.8311 259.2769,248.1571 L281.5959,238.7921 C281.4489,237.9791 281.3759,237.1451 281.3759,236.3181 C281.3759,234.4041 281.7819,232.4621 282.7359,230.8011 C283.4829,229.5141 284.5699,228.4071 285.8709,227.7061 L288.0659,233.0821 C288.9459,235.2311 288.1189,237.6991 286.1249,238.8861" id="Fill-21" fill="#F01245"></path>
                    <path d="M300.6864,190.015 C300.6864,190.015 298.0314,189.428 289.4664,191.789 C280.9024,194.151 280.9024,205.964 280.9024,205.964 L277.9544,204.283 L257.5954,192.677 L251.3664,189.128 C256.2484,173.439 271.2164,165.662 282.6694,161.92 C290.6214,159.318 296.8774,158.671 296.8774,158.671 L296.9044,158.878 L297.3114,162.233 L300.6864,190.015 Z" id="Fill-23" fill="#F2E3C7"></path>
                    <path d="M345.4169,174.621 C345.4169,174.621 344.7279,192.136 341.3099,202.128 C337.8909,212.12 331.2329,231.408 327.8149,234.826 C327.8149,234.826 314.0379,229.368 304.0309,216.5 C304.0309,216.5 310.5559,202.623 300.6879,190.017 L296.8789,158.671 L345.4169,174.621 Z" id="Fill-25" fill="#F2E3C7"></path>
                    <path d="M332.6776,174.1371 C332.6776,174.1371 332.7796,174.3541 332.9716,174.7321" id="Stroke-27" stroke="#AE956D" stroke-width="0.667" stroke-linecap="round" stroke-linejoin="round"></path>
                    <path d="M333.9892,176.5951 C335.6762,179.5051 338.8552,184.2031 342.7282,186.1541" id="Stroke-29" stroke="#AE956D" stroke-width="0.667" stroke-linecap="round" stroke-linejoin="round" stroke-dasharray="1.417,2.126"></path>
                    <path d="M343.7089,186.5819 C343.9189,186.6589 344.1309,186.7269 344.3439,186.7859" id="Stroke-31" stroke="#AE956D" stroke-width="0.667" stroke-linecap="round" stroke-linejoin="round"></path>
                    <path d="M300.7157,160.3353 C300.7157,160.3353 293.9667,166.1213 282.9747,161.8783" id="Stroke-33" stroke="#AE956D" stroke-width="0.667" stroke-linecap="round" stroke-linejoin="round" stroke-dasharray="1.334,2.001"></path>
                    <path d="M300.6884,190.0165 C300.6884,190.0165 305.7304,174.7985 320.9644,166.6995" id="Stroke-35" stroke="#AE956D" stroke-width="0.667" stroke-linecap="round" stroke-linejoin="round" stroke-dasharray="1.334,2.001"></path>
                    <path d="M345.6708,158.0111 C345.6098,163.2271 345.4568,167.9491 345.4238,171.7991 C345.4108,172.7991 345.4108,173.7461 345.4168,174.6201 C345.4168,174.6201 340.3548,175.2001 332.6908,174.1731 C327.9278,173.5331 322.1508,172.2651 315.9678,169.8511 C310.7648,167.8091 305.2688,164.9551 299.8318,160.9591 C298.8858,160.2651 297.9388,159.5381 296.9978,158.7711 L296.8778,158.6711 L296.4238,147.3321 L296.0298,137.3461 C295.9638,135.6181 295.1898,131.5361 294.1898,126.8211 C292.6748,119.6571 290.6408,111.0521 289.7868,107.1301 C289.0728,103.8211 291.9078,102.1871 296.4038,101.5731 C299.5248,101.1401 303.4538,101.2071 307.5498,101.5601 C307.8168,101.5801 308.0838,101.6071 308.3508,101.6341 L308.3578,101.6341 C310.7118,101.8471 313.1068,102.1541 315.4138,102.5141 L315.4278,102.5141 C317.3088,102.7941 319.1368,103.1141 320.8438,103.4411 C323.7658,103.9951 326.3538,104.5821 328.2678,105.0821 C329.7888,105.4751 330.8968,105.8231 331.4158,106.0561 C335.7588,108.0171 340.0338,111.3521 341.3958,115.7881 C342.3958,119.0561 343.1758,122.5051 343.7758,126.0401 C345.5908,136.7331 345.7838,148.2391 345.6708,158.0111" id="Fill-37" fill="#FF2351"></path>
                    <path d="M322.5985,127.0658 L331.6685,127.0658 L331.6685,134.9198 L330.4335,135.8718 C328.8375,137.1038 326.6575,137.2538 324.9065,136.2538 L323.1525,135.2518 L322.5985,127.0658 Z" id="Stroke-39" stroke="#FFFFFF" stroke-width="0.334" stroke-linecap="round" stroke-linejoin="round"></path>
                    <path d="M354.2616,33.5463 C354.3556,33.0583 354.1786,32.5273 353.7566,32.2653 C353.1486,31.8873 352.5776,32.3383 352.1566,32.7713 C350.7036,34.2613 349.5156,36.0083 348.6616,37.9063 C349.7366,34.9283 350.5766,31.8633 351.1116,28.7433 C351.1976,28.2373 351.1646,27.7073 350.9546,27.2383 C350.3336,25.8523 349.0046,26.1363 348.3036,26.8763 C347.8506,27.3533 347.6066,27.9863 347.3866,28.6073 C346.5066,31.0923 345.8456,33.6553 345.4156,36.2563 C345.8036,33.0563 345.5976,29.7863 344.8136,26.6603 C344.6796,26.1263 344.5186,25.5783 344.1576,25.1623 C343.7956,24.7473 343.1796,24.5043 342.6786,24.7333 C342.1906,24.9573 341.9756,25.5263 341.8436,26.0483 C340.9866,29.4543 341.6816,33.0353 342.3786,36.4783 C341.7666,34.0843 340.9166,31.7513 339.8456,29.5253 C339.4146,28.6303 338.7656,27.6323 337.7746,27.6103 C336.8606,27.5893 336.1386,28.4883 336.0216,29.3953 C335.9046,30.3013 337.5746,35.8133 338.7516,38.9413 C337.8656,38.2763 335.9636,36.1233 334.4836,36.3003 C333.0566,36.4723 332.3416,38.1143 333.1926,39.2723 C334.8496,41.5313 337.4916,42.5963 339.4266,48.2083 C340.1286,50.2423 342.3106,51.2713 344.3986,51.2243 C348.3306,51.1353 349.3416,45.3793 350.5826,42.3593 C351.7106,39.6143 353.6996,36.4603 354.2616,33.5463" id="Fill-41" fill="#FDA1A1"></path>
                    <path d="M343.5526,126.5795 C343.5526,126.5795 351.6506,107.7365 353.4656,77.2125 C353.4656,77.2125 353.9076,65.1705 351.6256,46.3625 L334.2546,44.2885 L336.1456,77.4435 C336.1456,77.4435 332.3046,98.6835 328.5486,104.5165 C324.7936,110.3495 343.5526,126.5795 343.5526,126.5795" id="Fill-43" fill="#FF2351"></path>
                    <path d="M229.3178,54.4325 C228.9718,54.0765 228.8288,53.5345 229.0378,53.0835 C229.3398,52.4345 230.0648,52.4995 230.6538,52.6305 C232.6858,53.0815 234.6368,53.8905 236.3908,55.0115 C233.8598,53.1095 231.4788,51.0055 229.3218,48.6875 C228.9718,48.3115 228.7088,47.8505 228.6278,47.3445 C228.3868,45.8435 229.6548,45.3535 230.6468,45.5875 C231.2868,45.7395 231.8388,46.1345 232.3618,46.5335 C234.4598,48.1295 236.4168,49.9115 238.2018,51.8515 C236.1248,49.3885 234.5048,46.5395 233.4478,43.4945 C233.2688,42.9745 233.1018,42.4275 233.1768,41.8825 C233.2508,41.3375 233.6338,40.7955 234.1778,40.7135 C234.7098,40.6335 235.2008,40.9915 235.5968,41.3555 C238.1808,43.7355 239.5618,47.1125 240.8638,50.3735 C240.0648,48.0355 239.4978,45.6185 239.1738,43.1685 C239.0438,42.1855 239.0398,40.9945 239.8578,40.4325 C240.6098,39.9145 241.7068,40.2715 242.3018,40.9655 C242.8968,41.6595 244.5198,47.1845 245.2478,50.4465 C245.6248,49.4055 246.0358,46.5615 247.3718,45.8995 C248.6588,45.2605 250.1568,46.2425 250.0808,47.6775 C249.9318,50.4755 248.3048,52.8145 249.7608,58.5695 C250.2888,60.6555 249.0268,62.7105 247.2548,63.8155 C243.9158,65.8955 239.9168,61.6355 237.2238,59.7885 C234.7758,58.1115 231.3838,56.5615 229.3178,54.4325" id="Fill-45" fill="#FDA1A1"></path>
                    <path d="M294.4335,126.9721 C294.4335,126.9721 276.4655,115.9471 257.3805,92.0551 C257.3805,92.0551 248.3555,80.5931 239.3745,63.9111 L252.3705,52.2001 L272.3305,82.2561 C272.3305,82.2561 289.8885,98.9301 296.3205,101.5311 C302.7515,104.1301 294.4335,126.9721 294.4335,126.9721" id="Fill-47" fill="#FF2351"></path>
                    <path d="M313.4198,111.3876 C313.4198,111.3876 309.2248,153.9126 314.5638,168.9776" id="Stroke-49" stroke="#FFFFFF" stroke-width="0.334" stroke-linecap="round" stroke-linejoin="round"></path>
                    <path d="M320.4882,98.8436 L307.4932,100.0996 C307.4932,100.0996 307.7222,105.9306 307.7562,105.9366 C308.2882,108.7686 310.6272,111.0336 313.6392,111.3336 C317.3002,111.6986 320.5642,109.0266 320.9282,105.3646 C320.9912,104.7416 320.4882,98.8436 320.4882,98.8436" id="Fill-51" fill="#F58F8F"></path>
                    <path d="M325.9892,89.3339 C325.7552,98.1169 320.0322,102.8159 313.1312,102.6319 C306.2302,102.4489 300.7652,97.4519 300.9992,88.6689 C301.4022,73.5229 307.1482,70.7559 314.0492,70.9389 C320.9502,71.1229 326.4122,73.4309 325.9892,89.3339" id="Fill-53" fill="#FDA1A1"></path>
                    <path d="M326.4735,73.0819 C325.7685,72.6659 324.9045,72.4269 324.3535,71.8589 C323.5945,71.0749 323.6575,69.9039 323.9015,68.8809 C324.1465,67.8569 324.5335,66.8079 324.2885,65.7949 C324.0015,64.6059 322.8525,63.6909 321.5415,63.3079 C320.2325,62.9239 318.7865,63.0069 317.4215,63.2729 C314.8305,63.7779 312.3955,64.9409 310.4875,66.5829 C309.8125,67.1639 309.1965,67.8079 308.4205,68.2799 C307.6455,68.7529 306.6535,69.0409 305.7695,68.7959 C304.4615,68.4339 303.8145,67.0669 302.5225,66.6659 C301.3345,66.2969 299.9425,66.9129 299.2235,67.8469 C298.5045,68.7799 298.3345,69.9489 298.3385,71.0629 C298.3425,72.0749 298.4885,73.1189 299.0825,73.9729 C299.6495,74.7849 300.2395,75.0919 300.8695,75.1449 C300.8185,75.1479 300.7665,75.1599 300.7145,75.1599 C299.7035,75.1629 298.7315,74.5689 297.7505,74.8059 C296.8755,75.0169 296.3335,75.8609 296.3165,76.6529 C296.2985,77.4449 296.6925,78.1889 297.1355,78.8709 C297.2495,79.0449 297.3695,79.2259 297.3935,79.4279 C297.4475,79.8829 297.0135,80.2629 296.6985,80.6349 C296.0085,81.4489 295.7975,82.5529 296.1495,83.4979 C296.3075,83.9219 296.5815,84.3229 296.9985,84.5759 C297.4535,84.8519 298.0265,84.9259 298.5605,85.0619 C299.3135,85.2519 300.4325,86.2819 301.2355,87.1069 C301.6005,87.4829 302.2355,87.2339 302.2465,86.7109 C302.3125,83.9039 302.5365,78.0069 303.2725,77.3549 C305.1875,76.1739 308.0215,74.7929 312.8255,77.6709 C316.1975,79.6919 320.5365,80.1179 323.3785,79.7679 C323.4315,79.9999 323.3465,82.6789 325.3435,84.4369 C325.6865,84.7399 326.2195,84.4719 326.1735,84.0169 C325.5875,78.2129 327.9405,79.7989 328.2975,76.6199 C328.3065,76.5619 328.3235,76.5039 328.3275,76.4459 C328.4345,75.1319 327.7045,73.8069 326.4735,73.0819" id="Fill-55" fill="#191C5C"></path>
                    <path d="M299.3339,85.452 C299.3199,85.457 299.3069,85.463 299.2929,85.469 C297.9659,86.025 297.5189,87.973 298.2929,89.819 C299.0599,91.648 300.7359,92.691 302.0569,92.172 C302.0699,92.167 302.0839,92.161 302.0979,92.156 C302.3659,92.043 302.5999,91.872 302.7929,91.658 C303.5559,90.813 303.7149,89.277 303.0979,87.805 C302.4779,86.326 301.2619,85.361 300.1199,85.32 C299.8519,85.311 299.5859,85.353 299.3339,85.452" id="Fill-57" fill="#FDA1A1"></path>
                    <path d="M325.8124,90.9476 C325.8274,90.9516 325.8404,90.9556 325.8554,90.9586 C327.2504,91.3086 328.7774,90.0186 329.2634,88.0756 C329.7474,86.1536 329.0304,84.3136 327.6624,83.9366 C327.6484,83.9326 327.6334,83.9286 327.6194,83.9256 C327.3354,83.8546 327.0474,83.8506 326.7644,83.9066 C325.6474,84.1256 324.5984,85.2596 324.2104,86.8086 C323.8204,88.3636 324.2144,89.8646 325.1034,90.5816 C325.3144,90.7506 325.5514,90.8756 325.8124,90.9476" id="Fill-59" fill="#FDA1A1"></path>
                    <polygon id="Fill-61" fill="#FDA1A1" points="88.6972 249.184 85.5132 251.263 94.1292 262.397 97.8012 260.244"></polygon>
                    <path d="M74.3412,258.5023 L79.1022,255.1783 L85.4652,251.2503 L94.1552,262.3963 L91.9522,264.1053 C91.0832,264.7783 90.6442,265.8673 90.8032,266.9553 L91.1652,269.4233 L91.4702,271.5193 L92.9182,281.4693 C92.9032,283.5803 91.9262,285.5223 90.3372,286.7893 C89.7862,287.2353 89.1602,287.6023 88.4782,287.8593 L72.8212,264.4293 C71.7912,262.3503 72.4362,259.8273 74.3412,258.5023" id="Fill-63" fill="#FF2351"></path>
                    <path d="M91.3041,268.9584 C88.7271,268.6914 88.3041,268.5164 85.7171,268.3724 C85.8221,268.3964 85.9281,268.4194 86.0331,268.4424" id="Stroke-65" stroke="#131450" stroke-width="0.591" stroke-linecap="round" stroke-linejoin="round"></path>
                    <path d="M91.3432,271.016 C88.9292,270.973 88.6742,270.96 86.2602,270.917" id="Stroke-67" stroke="#131450" stroke-width="0.591" stroke-linecap="round" stroke-linejoin="round"></path>
                    <path d="M72.8212,264.4291 L88.4782,287.8601 C89.1602,287.6021 89.7862,287.2361 90.3372,286.7891 L76.6752,266.8091 C77.2402,266.2051 77.7552,265.5451 78.2042,264.8511 C79.2432,263.2421 79.9552,261.3921 80.0552,259.4791 C80.1272,257.9921 79.8152,256.4721 79.1022,255.1781 L74.3412,258.5021 C72.4362,259.8271 71.7912,262.3501 72.8212,264.4291" id="Fill-69" fill="#EDE8E1"></path>
                    <path d="M133.6693,230.3744 C136.6273,236.2224 127.6103,242.8954 125.0213,244.5684 C117.4203,249.4784 99.9063,259.0414 97.3113,260.6874 C94.6293,256.8874 92.3923,254.2864 88.6973,249.1844 C90.1103,248.2374 91.1533,247.0534 93.3773,245.4554 C93.9003,245.0024 116.1003,227.4044 124.3763,224.6744 C127.9093,223.5084 130.4873,224.0824 133.6693,230.3744" id="Fill-71" fill="#4B57DB"></path>
                    <g id="Group-75" transform="translate(88.000000, 224.000000)">
                        <mask id="mask-2" fill="white">
                            <use xlink:href="#path-1"></use>
                        </mask>
                        <g id="Clip-74"></g>
                        <path d="M45.669,6.374 C48.627,12.222 39.61,18.896 37.021,20.569 C29.42,25.479 11.907,35.041 9.311,36.688 C6.63,32.887 4.392,30.286 0.697,25.184 C2.111,24.238 3.154,23.053 5.377,21.455 C5.901,21.002 28.1,3.405 36.376,0.674 C39.91,-0.492 42.488,0.082 45.669,6.374" id="Fill-73" mask="url(#mask-2)"></path>
                    </g>
                    <polygon id="Fill-76" fill="#FDA1A1" points="60.0902 210.9603 56.6652 209.3113 51.5902 222.4423 55.3322 224.4733"></polygon>
                    <path d="M44.6913,203.4916 L49.9983,205.8476 L56.6503,209.2626 L51.6053,222.4656 L49.0023,221.4626 C47.9763,221.0666 46.8173,221.2556 45.9683,221.9536 L44.0433,223.5386 L42.4073,224.8846 L34.6403,231.2686 C32.8253,232.3476 30.6583,232.5156 28.7513,231.8106 C28.0843,231.5706 27.4473,231.2236 26.8743,230.7726 L38.8323,205.2566 C40.0793,203.2986 42.5703,202.5466 44.6913,203.4916" id="Fill-78" fill="#FF2351"></path>
                    <path d="M44.5131,223.4174 C43.4091,221.0744 43.3401,220.6214 42.1251,218.3334 C42.1591,218.4354 42.1941,218.5374 42.2281,218.6394" id="Stroke-80" stroke="#131450" stroke-width="0.591" stroke-linecap="round" stroke-linejoin="round"></path>
                    <path d="M42.7724,224.515 C41.5604,222.427 41.4394,222.202 40.2274,220.114" id="Stroke-82" stroke="#131450" stroke-width="0.591" stroke-linecap="round" stroke-linejoin="round"></path>
                    <path d="M38.8319,205.2562 L26.8739,230.7732 C27.4469,231.2242 28.0839,231.5702 28.7509,231.8112 L38.7879,209.7852 C39.5969,209.9572 40.4279,210.0562 41.2549,210.0802 C43.1679,210.1392 45.1209,209.7912 46.8099,208.8882 C48.1189,208.1802 49.2589,207.1272 49.9989,205.8482 L44.6909,203.4912 C42.5709,202.5462 40.0789,203.2982 38.8319,205.2562" id="Fill-84" fill="#EDE8E1"></path>
                    <path d="M90.0795,235.1771 C86.6035,240.7331 76.2285,236.4661 73.4575,235.1151 C65.3255,231.1491 57.4495,225.6531 54.6985,224.2821 C56.5655,220.0221 57.6335,216.7621 60.0905,210.9601 C61.6305,211.6811 63.1845,211.9611 65.7015,213.0381 C66.3595,213.2521 83.5355,218.6041 90.1525,224.2761 C92.9775,226.6971 93.8195,229.2001 90.0795,235.1771" id="Fill-86" fill="#4B57DB"></path>
                    <g id="Group-90" transform="translate(54.000000, 210.000000)">
                        <mask id="mask-4" fill="white">
                            <use xlink:href="#path-3"></use>
                        </mask>
                        <g id="Clip-89"></g>
                        <path d="M36.079,25.177 C32.603,30.733 22.228,26.466 19.458,25.116 C11.325,21.149 3.45,15.653 0.698,14.283 C2.565,10.022 3.634,6.762 6.09,0.96 C7.631,1.681 9.185,1.961 11.702,3.038 C12.36,3.252 29.536,8.604 36.152,14.276 C38.978,16.697 39.819,19.201 36.079,25.177" id="Fill-88" mask="url(#mask-4)"></path>
                    </g>
                    <path d="M129.7538,238.9213 C127.2588,239.6893 123.7968,240.8433 117.4538,236.2273 C111.1168,231.6173 101.1178,190.4883 101.1178,190.4883 C101.1178,190.4883 96.5488,241.3293 84.1888,238.0013 C84.1288,237.9873 84.0758,237.9753 84.0158,237.9543 C82.3548,237.4473 80.9538,236.7473 79.7728,235.9203 C72.0488,230.5373 73.6358,219.6973 73.6358,219.6973 L73.7158,205.3903 L73.7558,198.8593 L73.9098,171.2183 L125.4778,172.5393 C125.4778,172.5393 126.3518,185.2853 132.1148,211.4273 C137.8848,237.5613 132.2548,238.1483 129.7538,238.9213" id="Fill-91" fill="#4B57DB"></path>
                    <path d="M113.3627,175.7772 C113.3627,175.7772 113.9757,184.5682 127.2647,188.4522" id="Stroke-93" stroke="#231AA9" stroke-width="0.667" stroke-linecap="round" stroke-linejoin="round" stroke-dasharray="1.334,2.001"></path>
                    <path d="M73.9057,184.3637 C73.9057,184.3637 86.3767,185.1817 88.6257,175.1637" id="Stroke-95" stroke="#231AA9" stroke-width="0.667" stroke-linecap="round" stroke-linejoin="round" stroke-dasharray="1.334,2.001"></path>
                    <path d="M128.1879,174.9496 C128.1879,174.9496 127.3079,175.0556 125.7399,175.2166 L125.7329,175.2166 C123.1789,175.4696 118.7959,175.8566 113.3999,176.0966 C106.2559,176.4096 97.3319,176.4766 88.4929,175.6766 C83.4839,175.2296 78.5079,174.5026 73.8979,173.3826 C73.1979,173.2086 72.5039,173.0286 71.8169,172.8416 C71.8169,172.8416 72.6179,162.4626 73.4249,150.0356 C73.4849,149.0686 73.5519,148.0886 73.6119,147.1006 C73.9389,142.0246 74.2519,136.7216 74.5049,131.7256 C74.5589,130.7856 74.6049,129.8586 74.6459,128.9446 C74.6519,128.9246 74.6519,128.9046 74.6459,128.8846 C75.1119,119.1996 75.3059,111.1476 74.8259,108.9406 C74.2519,106.2846 75.9659,104.7046 78.9949,103.8706 C82.5429,102.8836 87.8929,102.9236 93.4619,103.4506 C97.9789,103.8706 102.6409,104.6176 106.5959,105.3846 C110.1249,106.0786 113.0929,106.7986 114.9009,107.3326 C115.6079,107.5396 116.1349,107.7256 116.4489,107.8666 C120.7909,109.8276 126.6609,112.9696 126.4339,117.5976 C126.2869,120.5936 126.2209,123.9286 126.2139,127.4296 C126.2069,127.4766 126.2069,127.5166 126.2069,127.5636 L126.2069,127.5706 C126.2009,129.4976 126.2139,131.4786 126.2469,133.4866 C126.2999,137.5096 126.4209,141.6376 126.5669,145.6536 C126.6409,147.5546 126.7139,149.4226 126.7939,151.2496 C127.3809,164.3036 128.1879,174.9496 128.1879,174.9496" id="Fill-97" fill="#F2E3C7"></path>
                    <path d="M126.7943,151.2499 C124.4663,151.7639 121.9783,152.1369 119.3903,152.4109 C104.0623,154.0379 85.2043,151.8569 73.4243,150.0359 C73.4843,149.0689 73.5513,148.0879 73.6113,147.1009 C73.9383,142.0249 74.2523,136.7219 74.5053,131.7259 C84.0573,133.2129 98.6053,135.0149 112.1063,134.7409 C115.0613,134.6809 117.9623,134.5209 120.7513,134.2339 C120.8043,134.2339 120.8573,134.2279 120.9043,134.2279 C122.7453,134.0339 124.5323,133.7939 126.2473,133.4869 C126.3003,137.5089 126.4203,141.6379 126.5673,145.6539 C126.6403,147.5549 126.7133,149.4219 126.7943,151.2499" id="Fill-99" fill="#FF2351"></path>
                    <path d="M171.7255,55.6351 C172.0315,55.2431 172.1145,54.6901 171.8585,54.2641 C171.4885,53.6521 170.7755,53.7941 170.2035,53.9881 C168.2315,54.6551 166.3785,55.6701 164.7565,56.9721 C167.0665,54.8091 169.2085,52.4611 171.1035,49.9251 C171.4105,49.5131 171.6225,49.0261 171.6485,48.5131 C171.7255,46.9961 170.4125,46.6461 169.4515,46.9851 C168.8315,47.2041 168.3265,47.6571 167.8485,48.1101 C165.9345,49.9231 164.1805,51.9061 162.6145,54.0271 C164.4145,51.3531 165.7195,48.3471 166.4415,45.2061 C166.5645,44.6701 166.6705,44.1081 166.5385,43.5741 C166.4055,43.0401 165.9665,42.5431 165.4165,42.5191 C164.8795,42.4961 164.4295,42.9061 164.0755,43.3111 C161.7635,45.9541 160.7535,49.4601 159.8085,52.8431 C160.3525,50.4331 160.6565,47.9681 160.7145,45.4991 C160.7375,44.5071 160.6135,43.3221 159.7405,42.8521 C158.9355,42.4181 157.8835,42.8901 157.3675,43.6441 C156.8505,44.3991 155.8315,50.0671 155.4585,53.3881 C154.9725,52.3931 154.2565,49.6101 152.8575,49.0951 C151.5095,48.5991 150.1255,49.7371 150.3555,51.1551 C150.8055,53.9211 152.6755,56.0711 151.8465,61.9491 C151.5465,64.0791 153.0215,65.9881 154.9035,66.8951 C158.4465,68.6041 161.9635,63.9371 164.4425,61.8121 C166.6945,59.8801 169.9005,57.9751 171.7255,55.6351" id="Fill-101" fill="#FDA1A1"></path>
                    <path d="M119.8871,133.6264 C119.8871,133.6264 135.6661,120.5254 151.1621,94.1644 C151.1621,94.1644 157.0321,83.6414 163.5501,65.8514 L149.0221,56.1054 L135.6311,86.4954 C135.6311,86.4954 120.5731,104.0464 114.5751,107.5344 C108.5781,111.0224 119.8871,133.6264 119.8871,133.6264" id="Fill-103" fill="#F2E3C7"></path>
                    <path d="M11.2343,57.5267 C10.8883,57.1707 10.7463,56.6287 10.9553,56.1777 C11.2563,55.5287 11.9813,55.5937 12.5703,55.7247 C14.6023,56.1757 16.5533,56.9857 18.3073,58.1057 C15.7773,56.2037 13.3953,54.0997 11.2383,51.7817 C10.8883,51.4057 10.6253,50.9447 10.5443,50.4387 C10.3043,48.9377 11.5723,48.4477 12.5643,48.6817 C13.2043,48.8337 13.7553,49.2297 14.2783,49.6277 C16.3773,51.2237 18.3343,53.0057 20.1193,54.9457 C18.0423,52.4827 16.4223,49.6337 15.3653,46.5887 C15.1853,46.0687 15.0183,45.5217 15.0933,44.9767 C15.1683,44.4317 15.5503,43.8897 16.0943,43.8077 C16.6263,43.7277 17.1183,44.0857 17.5133,44.4497 C20.0963,46.8297 21.4783,50.2057 22.7813,53.4677 C21.9813,51.1297 21.4143,48.7127 21.0903,46.2627 C20.9603,45.2797 20.9573,44.0887 21.7743,43.5267 C22.5273,43.0087 23.6243,43.3657 24.2183,44.0597 C24.8133,44.7537 26.4363,50.2787 27.1653,53.5407 C27.5413,52.4997 27.9533,49.6557 29.2883,48.9937 C30.5753,48.3547 32.0743,49.3367 31.9973,50.7717 C31.8483,53.5697 30.2213,55.9087 31.6773,61.6637 C32.2053,63.7497 30.9443,65.8047 29.1713,66.9097 C25.8333,68.9897 21.8333,64.7297 19.1403,62.8827 C16.6933,61.2057 13.3013,59.6557 11.2343,57.5267" id="Fill-105" fill="#FDA1A1"></path>
                    <path d="M76.7602,129.0512 C76.5072,129.6982 76.3532,130.0652 76.3532,130.0652 C76.3532,130.0652 75.7462,129.6982 74.6452,128.9442 C74.6122,128.9242 74.5792,128.8982 74.5452,128.8782 C69.5362,125.4492 54.7882,114.5362 39.3002,95.1462 C39.3002,95.1462 30.2752,83.6862 21.2902,67.0042 L22.8042,65.6432 L31.1082,58.1592 L34.2902,55.2912 L54.2472,85.3472 C54.2472,85.3472 72.0572,100.5892 78.9942,103.8702 C79.2152,103.9702 79.4152,104.0572 79.6082,104.1372 C85.2312,106.4122 78.5282,124.5422 76.7602,129.0512" id="Fill-107" fill="#F2E3C7"></path>
                    <path d="M106.7201,100.0487 L93.6651,100.0187 C93.6651,100.0187 93.3181,105.8427 93.3501,105.8527 C93.6011,108.7237 95.7051,111.2077 98.6741,111.8027 C102.2811,112.5267 105.7921,110.1897 106.5161,106.5817 C106.6391,105.9677 106.7201,100.0487 106.7201,100.0487" id="Fill-109" fill="#F58F8F"></path>
                    <path d="M111.893193,89.6517 C111.93,98.4377 106.636,103.3097 100.079,103.337813 C93.521,103.3647 88.186,98.5377 88.148,89.7517 C88.084,74.6017 93.458,71.6587 100.015,71.6304504 C106.572,71.6037 111.826,73.7437 111.893193,89.6517" id="Fill-111" fill="#FDA1A1"></path>
                    <path d="M112.4882,87.1845 C110.0212,84.9475 108.7172,80.9735 109.4492,77.7245 C104.3472,80.3045 95.2422,79.5815 91.1032,77.8395 C91.3702,80.7465 90.3632,84.8725 88.5802,87.1845 C88.1512,84.9495 88.3422,82.1895 87.6632,80.0175 C86.5162,76.3485 86.7362,74.5285 87.6632,72.4505 C89.5552,68.2075 92.4252,70.8065 93.9962,70.6595 C97.4272,70.3375 102.1682,67.8615 105.6332,67.8604993 C111.0142,67.8585 114.9352,72.3375 114.0692,76.0195 C112.3402,83.3695 112.9882,85.8235 112.4882,87.1845" id="Fill-113" fill="#191C5C"></path>
                    <path d="M90.7226,94.3197 C96.0716,91.7217 104.3186,90.9437 109.4316,93.9777 C109.4316,93.9777 111.1806,93.0747 111.7856,90.4497 L112.6626,90.3697 C112.6626,90.3697 112.4916,94.1547 110.5936,98.6017 C109.6286,100.8637 106.7666,103.4977 104.3086,103.5827 C101.9296,103.6657 99.1826,103.5447 96.5456,103.4357 C93.4816,103.3087 90.3966,100.9777 89.4256,98.0687 C88.5516,95.4487 88.3336,92.5537 88.0026,90.1827 C88.0026,90.1827 88.2436,88.8477 88.7146,90.3007 C89.4256,92.4947 90.7226,94.3197 90.7226,94.3197" id="Fill-115" fill="#191C5C"></path>
                    <path d="M86.1654,84.2216 C86.1514,84.2256 86.1374,84.2296 86.1234,84.2346 C84.7504,84.6646 84.1224,86.5616 84.7204,88.4726 C85.3124,90.3646 86.8844,91.5596 88.2474,91.1676 L88.2904,91.1546 C88.5684,91.0676 88.8154,90.9196 89.0294,90.7236 C89.8674,89.9546 90.1694,88.4396 89.6924,86.9156 C89.2134,85.3866 88.0934,84.3106 86.9614,84.1646 C86.6934,84.1296 86.4264,84.1466 86.1654,84.2216" id="Fill-117" fill="#FDA1A1"></path>
                    <path d="M113.9037,84.2216 C113.9177,84.2256 113.9317,84.2296 113.9457,84.2346 C115.3197,84.6646 115.9467,86.5616 115.3487,88.4726 C114.7567,90.3646 113.1847,91.5596 111.8217,91.1676 L111.7787,91.1546 C111.5007,91.0676 111.2537,90.9196 111.0397,90.7236 C110.2017,89.9546 109.8997,88.4396 110.3767,86.9156 C110.8557,85.3866 111.9757,84.3106 113.1087,84.1646 C113.3757,84.1296 113.6437,84.1466 113.9037,84.2216" id="Fill-119" fill="#FDA1A1"></path>
                    <path d="M91.309,321.6205 C91.305,321.6255 91.301,321.6305 91.297,321.6355 C90.661,322.4285 90.869,323.6055 91.699,324.1945 L110.44,337.4985 C112.257,338.4045 114.462,337.8475 115.628,336.1895 L118.118,332.6675 L118.558,332.0425 L122.017,326.4935 L112.304,318.8465 L110.799,320.7655 C110.207,321.5235 109.251,321.9035 108.304,321.7615 L106.149,321.4335 L104.313,321.1585 L101.385,320.5355 L101.377,320.5365 L95.972,319.3855 C94.124,319.3935 92.425,320.2415 91.309,321.6205" id="Fill-121" fill="#FDA1A1"></path>
                    <g id="Group-125" transform="translate(90.000000, 319.000000)">
                        <mask id="mask-6" fill="white">
                            <use xlink:href="#path-5"></use>
                        </mask>
                        <g id="Clip-124"></g>
                        <path d="M1.309,2.6205 C1.305,2.6255 1.301,2.6305 1.297,2.6355 C0.661,3.4285 0.869,4.6055 1.699,5.1945 L20.44,18.4985 C22.257,19.4045 24.577,19.1005 25.742,17.4435 L29.847,11.5435 C27.714,10.6755 4.529,5.7825 11.377,1.5365 L5.972,0.3855 C4.124,0.3935 2.425,1.2415 1.309,2.6205" id="Fill-123" fill="#FF2351" mask="url(#mask-6)"></path>
                    </g>
                    <path d="M288.2167,320.4848 C288.2207,320.4898 288.2247,320.4948 288.2287,320.4988 C288.8637,321.2928 288.6557,322.4698 287.8267,323.0578 L269.0857,336.3618 C267.2687,337.2678 265.0627,336.7108 263.8977,335.0538 L261.4067,331.5318 L260.9677,330.9058 L257.5087,325.3578 L267.2217,317.7098 L268.7267,319.6288 C269.3187,320.3878 270.2747,320.7668 271.2217,320.6258 L273.3767,320.2978 L275.2127,320.0218 L278.1397,319.3998 L278.1487,319.4008 L283.5537,318.2488 C285.4017,318.2578 287.1007,319.1048 288.2167,320.4848" id="Fill-126" fill="#FDA1A1"></path>
                    <path d="M288.2167,320.4848 C288.2207,320.4898 288.2247,320.4948 288.2287,320.4988 C288.8637,321.2928 288.6557,322.4698 287.8267,323.0578 L269.0857,336.3618 C267.2687,337.2678 264.9487,336.9638 263.7827,335.3078 L259.6787,329.4068 C261.8107,328.5398 284.9957,323.6468 278.1487,319.4008 L283.5537,318.2488 C285.4017,318.2578 287.1007,319.1048 288.2167,320.4848" id="Fill-128" fill="#FF2351"></path>
                    <path d="M252.2743,289.1508 C244.6253,279.5878 217.0663,242.7698 217.0663,242.7698 L162.7783,243.5468 C162.7783,243.5468 135.2193,280.3668 127.5693,289.9278 C119.9193,299.4908 110.0383,319.5718 110.0383,319.5718 L121.5133,329.1338 L151.1563,296.9408 C151.1563,296.9408 178.3453,268.0498 188.5453,263.2698 L190.4363,262.1668 C200.6353,266.9478 228.6883,296.1638 228.6883,296.1638 L258.3313,328.3558 L269.8053,318.7938 C269.8053,318.7938 259.9243,298.7138 252.2743,289.1508" id="Fill-130" fill="#131450"></path>
                    <g id="Group-134" transform="translate(156.000000, 242.000000)">
                        <mask id="mask-8" fill="white">
                            <use xlink:href="#path-7"></use>
                        </mask>
                        <g id="Clip-133"></g>
                        <path d="M19.906,0.843 C19.906,0.843 15.061,11.735 0.531,9.848 L7.251,0.77 L19.906,0.843 Z" id="Fill-132" mask="url(#mask-8)"></path>
                    </g>
                    <path d="M175.9061,242.8431 C175.9061,242.8431 171.0611,253.7351 156.5311,251.8481" id="Stroke-135" stroke="#4B57DB" stroke-width="0.351" stroke-linecap="round" stroke-linejoin="round" stroke-dasharray="1.404,2.105"></path>
                    <g id="Group-139" transform="translate(204.000000, 242.000000)">
                        <mask id="mask-10" fill="white">
                            <use xlink:href="#path-9"></use>
                        </mask>
                        <g id="Clip-138"></g>
                        <path d="M0.492,0.843 C0.492,0.843 5.337,11.735 19.868,9.848 L13.147,0.77 L0.492,0.843 Z" id="Fill-137" mask="url(#mask-10)"></path>
                    </g>
                    <path d="M204.4921,242.8431 C204.4921,242.8431 209.3371,253.7351 223.8671,251.8481" id="Stroke-140" stroke="#4B57DB" stroke-width="0.351" stroke-linecap="round" stroke-linejoin="round" stroke-dasharray="1.404,2.105"></path>
                    <path d="M189.5184,184.7509 C189.5184,184.7509 166.4334,185.2289 166.7714,193.7059 C167.0374,200.3449 166.7834,208.5459 167.6384,215.7809 C168.1234,219.8839 167.9974,224.0869 166.7864,228.0379 C163.2514,239.5579 162.7784,243.5469 162.7784,243.5469 L217.5524,243.0389 C217.5524,243.0389 215.1614,235.6889 213.6284,228.0479 C212.8634,224.2349 212.7724,220.3189 213.3194,216.4679 C214.2864,209.6619 215.6994,198.7139 215.8104,192.1799 C215.8104,192.1799 212.8724,184.4429 189.5184,184.7509" id="Fill-142" fill="#FF2351"></path>
                    <line x1="163.4486" y1="241.4193" x2="216.8226" y2="241.2743" id="Stroke-144" stroke="#FFFFFF" stroke-width="0.351" stroke-linecap="round" stroke-linejoin="round"></line>
                    <path d="M227.7304,122.7748 C227.8794,122.4788 227.8614,122.1048 227.6384,121.8598 C227.3164,121.5068 226.8684,121.6938 226.5184,121.8958 C225.3154,122.5888 223.4744,124.3828 222.5824,125.4478 C223.8124,123.7298 225.2584,120.9808 226.1674,119.0728 C226.3144,118.7628 226.3894,118.4168 226.3394,118.0778 C226.1914,117.0748 225.2864,117.0168 224.7024,117.3648 C224.3244,117.5888 224.0534,117.9518 223.7994,118.3098 C222.7834,119.7468 221.5434,122.2068 220.7954,123.7988 C221.6254,121.8148 222.6404,118.4078 222.7034,116.2578 C222.7134,115.8908 222.7094,115.5088 222.5534,115.1768 C222.3964,114.8448 222.0444,114.5768 221.6814,114.6328 C221.3264,114.6888 221.0854,115.0158 220.9064,115.3268 C219.7384,117.3588 218.9804,121.0538 218.8054,123.3918 C218.8454,121.7428 218.8124,118.1888 218.5274,116.5638 C218.4134,115.9118 218.1764,115.1528 217.5434,114.9588 C216.9604,114.7798 216.3334,115.2268 216.0944,115.7878 C215.8554,116.3488 215.8384,122.0938 216.0284,124.3168 C215.5804,123.7288 214.1324,120.7568 213.1494,120.6028 C212.2014,120.4538 211.4444,121.3788 211.7804,122.2778 C212.4364,124.0288 214.5574,126.4368 214.7834,130.3918 C214.8644,131.8258 216.0804,132.8818 217.4304,133.2298 C219.9724,133.8848 221.6644,130.3708 223.0094,128.6558 C224.2314,127.0978 226.8414,124.5448 227.7304,122.7748" id="Fill-146" fill="#FDA1A1"></path>
                    <path d="M168.4716,119.7069 C168.4796,119.3749 168.3046,119.0449 167.9976,118.9189 C167.5556,118.7379 167.2296,119.0979 166.9996,119.4289 C166.2086,120.5699 165.3096,122.9779 164.9576,124.3219 C165.3356,122.2429 165.4696,119.1399 165.4766,117.0259 C165.4776,116.6839 165.3986,116.3379 165.2086,116.0529 C164.6466,115.2089 163.8036,115.5429 163.4226,116.1069 C163.1776,116.4719 163.0866,116.9149 163.0106,117.3479 C162.7056,119.0809 162.6346,121.8339 162.6386,123.5939 C162.5396,121.4449 162.0046,117.9309 161.1426,115.9599 C160.9956,115.6239 160.8286,115.2799 160.5456,115.0469 C160.2626,114.8129 159.8296,114.7209 159.5256,114.9269 C159.2276,115.1289 159.1496,115.5269 159.1206,115.8849 C158.9316,118.2219 159.8246,121.8859 160.6636,124.0749 C159.9966,122.5669 158.4486,119.3669 157.4976,118.0199 C157.1156,117.4779 156.5776,116.8929 155.9226,116.9879 C155.3196,117.0749 154.9426,117.7469 154.9656,118.3559 C154.9886,118.9659 157.4276,124.1669 158.5476,126.0969 C157.8916,125.7569 155.3126,123.6869 154.3586,123.9679 C153.4376,124.2379 153.1486,125.3979 153.8366,126.0669 C155.1766,127.3709 158.1216,128.6419 160.0146,132.1229 C160.7006,133.3839 162.2506,133.8199 163.6206,133.5589 C166.1996,133.0659 166.2296,129.1659 166.7136,127.0409 C167.1526,125.1099 168.4236,121.6869 168.4716,119.7069" id="Fill-148" fill="#FDA1A1"></path>
                    <path d="M215.431,196.5355 C215.431,196.5355 218.098,168.4175 219.237,161.8735 C220.153,156.6055 220.677,152.4395 221.23,149.6445 L224.706,132.1095 L211.885,128.1695 C211.885,128.1695 206.171,153.7445 205.186,162.2165 C204.201,170.6885 202.231,184.0855 197.306,186.0555 C192.38,188.0255 187.257,189.2075 183.711,186.0555 C180.165,182.9035 177.012,177.1895 175.436,166.7475 C173.86,156.3055 171.938,140.6625 169.435,127.0885 L155.644,133.1965 C155.644,133.1965 159.477,161.4655 161.251,168.7555 C163.024,176.0455 166.772,193.7055 166.772,193.7055 L215.431,196.5355 Z" id="Fill-150" fill="#FF2351"></path>
                    <path d="M183.2392,151.538 C182.6612,150.127 183.5712,148.31 185.0462,147.927 C184.1072,147.135 183.8462,145.649 184.4582,144.585 C185.0712,143.52 186.4872,142.999 187.6432,143.413 C187.6382,142.282 188.4282,141.192 189.5052,140.846 C190.5822,140.499 191.8592,140.923 192.5152,141.845 C192.9802,141.092 193.9732,140.711 194.8222,140.959 C195.6722,141.207 196.3032,142.063 196.2902,142.948 C197.0392,142.276 198.3052,142.288 199.0412,142.975 C199.7782,143.661 199.8792,144.922 199.2612,145.717 C199.9302,145.679 200.6002,146.104 200.8512,146.725 C201.1022,147.346 200.9162,148.117 200.4092,148.554 C201.2742,149.605 201.1952,151.309 200.2372,152.275 C199.2792,153.241 197.5762,153.334 196.5182,152.479 C196.4692,153.542 195.7512,154.545 194.7602,154.934 C193.7702,155.324 192.5612,155.078 191.8022,154.332 C191.2702,155.231 190.1132,155.709 189.1012,155.448 C187.8002,155.112 187.7072,153.72 186.6352,153.213 C185.3492,152.605 183.9622,153.304 183.2392,151.538" id="Fill-152" fill="#191C5C"></path>
                    <path d="M196.0121,180.5736 L184.7601,180.8056 C184.7601,180.8056 184.5761,187.9386 184.6051,187.9456 C184.8781,190.4146 186.7401,192.5136 189.3101,192.9686 C192.4331,193.5206 195.4131,191.4366 195.9661,188.3136 C196.0591,187.7816 196.0121,180.5736 196.0121,180.5736" id="Fill-154" fill="#F58F8F"></path>
                    <path d="M200.5975,171.6708 C200.3685,180.2828 193.8185,183.5928 190.0865,183.5928 C186.5575,183.5928 178.9215,179.7118 179.1505,171.0998 C179.5455,156.2488 184.4875,153.5168 190.4095,153.6738 C196.3315,153.8318 201.0125,156.0768 200.5975,171.6708" id="Fill-156" fill="#FDA1A1"></path>
                    <path d="M202.7196,167.8017 C202.2496,169.6297 201.9486,170.2847 201.3806,170.312854 C200.6856,170.3407 200.3266,166.5527 200.1506,165.8787 C200.0946,165.6687 200.0946,165.4367 199.9756,165.2547 C199.8556,165.0787 199.6456,164.9947 199.4486,164.9097 C198.3676,164.3977 196.8666,163.3447 196.6626,162.1667 C195.8556,162.5307 194.9856,162.8047 194.1016,162.7767 C193.2176,162.7417 192.3116,162.3697 191.8066,161.6397 C190.9016,161.9907 189.8486,161.9487 188.9776,161.5277 C188.1006,161.1067 187.4126,160.3137 187.1256,159.3867 C185.7076,159.8017 184.1146,159.5417 182.9076,158.6927 C183.1116,160.2157 182.4376,161.8297 181.2086,162.7557 C181.1106,162.8327 180.9986,162.9097 180.9426,163.0297 C180.8656,163.1697 180.8866,163.3447 180.9076,163.5067 C181.0126,164.4327 181.1166,166.4027 180.6536,167.2097 C180.2116,167.9887 178.3886,169.4237 177.7366,169.8167 C177.2806,168.7207 176.9296,166.8377 176.8056,164.8517 C176.2176,155.4457 182.7706,152.0747 185.4936,151.2607 C187.9226,150.5307 195.1656,149.4827 200.8226,155.7287 C203.3206,158.4797 203.1966,164.4537 202.7196,167.8017" id="Fill-158" fill="#191C5C"></path>
                    <path d="M176.5072,167.9359 C176.4932,167.9409 176.4802,167.9459 176.4662,167.9519 C175.1662,168.4979 174.7272,170.4079 175.4862,172.2179 C176.2382,174.0109 177.8822,175.0339 179.1772,174.5249 C179.1902,174.5199 179.2042,174.5149 179.2172,174.5089 C179.4812,174.3979 179.7092,174.2319 179.8992,174.0209 C180.6472,173.1929 180.8032,171.6859 180.1972,170.2429 C179.5902,168.7929 178.3982,167.8459 177.2782,167.8069 C177.0142,167.7969 176.7552,167.8389 176.5072,167.9359" id="Fill-160" fill="#FDA1A1"></path>
                    <path d="M202.976,167.9359 C202.99,167.9409 203.003,167.9459 203.017,167.9519 C204.317,168.4979 204.757,170.4079 203.997,172.2179 C203.246,174.0109 201.601,175.0339 200.307,174.5249 C200.293,174.5199 200.28,174.5149 200.266,174.5089 C200.002,174.3979 199.774,174.2319 199.584,174.0209 C198.837,173.1929 198.68,171.6859 199.286,170.2429 C199.893,168.7929 201.086,167.8459 202.205,167.8069 C202.469,167.7969 202.729,167.8389 202.976,167.9359" id="Fill-162" fill="#FDA1A1"></path>
                    <path d="M196.7601,185.037 C196.7541,185.171 196.7601,185.366 196.7681,185.607 C196.8131,187.108 196.9081,190.232 194.9681,192.161 C193.9211,193.201 192.4501,193.727 190.5921,193.727 C190.4701,193.727 190.3471,193.725 190.2221,193.721 C188.1701,193.646 186.5651,192.934 185.4531,191.605 C183.3101,189.042 183.7871,185.382 183.8111,185.217" id="Stroke-164" stroke="#FFFFFF" stroke-width="0.351" stroke-linecap="round" stroke-linejoin="round"></path>
                    <path d="M184.558,185.0663 C184.558,185.0663 183.457,192.7743 190.247,193.0193 C197.038,193.2643 195.998,186.3513 196.059,185.0053" id="Stroke-166" stroke="#FFFFFF" stroke-width="0.351" stroke-linecap="round" stroke-linejoin="round"></path>
                    <path d="M416.2802,132.4003 C416.2802,132.4003 420.2682,120.1043 427.4132,104.6503 L433.5612,106.4783 C433.5612,106.4783 427.5792,134.5603 425.9182,136.2223 C424.2562,137.8833 416.2802,132.4003 416.2802,132.4003" id="Fill-168" fill="#FDA1A1"></path>
                    <path d="M440.496,97.4774 C440.645,97.1814 440.627,96.8084 440.404,96.5624 C440.082,96.2104 439.634,96.3964 439.284,96.5984 C438.081,97.2924 436.24,99.0854 435.348,100.1504 C436.578,98.4324 438.023,95.6834 438.933,93.7754 C439.08,93.4664 439.155,93.1194 439.105,92.7804 C438.958,91.7774 438.052,91.7194 437.468,92.0674 C437.091,92.2914 436.818,92.6544 436.565,93.0134 C435.549,94.4494 434.309,96.9094 433.561,98.5024 C434.391,96.5174 435.406,93.1114 435.469,90.9604 C435.479,90.5934 435.475,90.2114 435.318,89.8794 C435.162,89.5474 434.809,89.2794 434.447,89.3364 C434.092,89.3914 433.851,89.7184 433.672,90.0294 C432.504,92.0614 431.747,95.7564 431.57,98.0944 C431.611,96.4454 431.578,92.8914 431.293,91.2664 C431.179,90.6144 430.942,89.8554 430.309,89.6614 C429.726,89.4824 429.1,89.9294 428.86,90.4904 C428.62,91.0514 428.604,96.7964 428.794,99.0194 C428.346,98.4314 426.897,95.4594 425.915,95.3054 C424.968,95.1564 424.21,96.0814 424.547,96.9804 C425.202,98.7314 427.323,101.1394 427.549,105.0944 C427.631,106.5284 428.846,107.5844 430.195,107.9324 C432.737,108.5884 434.431,105.0744 435.775,103.3594 C436.997,101.8004 439.607,99.2474 440.496,97.4774" id="Fill-170" fill="#FDA1A1"></path>
                </g>
                <g id="Group-175" transform="translate(359.000000, 197.687000)">
                    <mask id="mask-12" fill="white">
                        <use xlink:href="#path-11"></use>
                    </mask>
                    <g id="Clip-174"></g>
                    <path d="M9.007,1.243 C7.31,2.866 0.712,30.811 0.712,30.811 L0.712,30.811 L6.818,32.773 C14.302,17.48 18.56,5.275 18.56,5.275 L18.56,5.275 C18.56,5.275 12.554,0.949 9.911,0.949 L9.911,0.949 C9.531,0.949 9.22,1.039 9.007,1.243" id="Fill-173" mask="url(#mask-12)"></path>
                </g>
                <g id="Group-178" transform="translate(352.000000, 226.687000)">
                    <mask id="mask-14" fill="white">
                        <use xlink:href="#path-13"></use>
                    </mask>
                    <g id="Clip-177"></g>
                    <path d="M5.43,4.88 C4.175,6.411 1.508,8.907 0.581,10.656 L0.581,10.656 C0.426,10.95 0.435,11.323 0.653,11.574 L0.653,11.574 C0.967,11.933 1.42,11.756 1.773,11.563 L1.773,11.563 C2.991,10.895 4.872,9.142 5.787,8.098 L5.787,8.098 C4.52,9.789 3.014,12.505 2.064,14.393 L2.064,14.393 C1.909,14.698 1.826,15.043 1.868,15.383 L1.868,15.383 C1.994,16.39 2.898,16.467 3.49,16.132 L3.49,16.132 C3.872,15.916 4.152,15.56 4.413,15.207 L4.413,15.207 C5.461,13.792 6.753,11.361 7.537,9.784 L7.537,9.784 C6.665,11.752 5.574,15.134 5.465,17.282 L5.465,17.282 C5.446,17.648 5.441,18.031 5.591,18.367 L5.591,18.367 C5.74,18.702 6.086,18.978 6.45,18.929 L6.45,18.929 C6.807,18.882 7.055,18.56 7.24,18.253 L7.24,18.253 C8.452,16.246 9.291,12.57 9.518,10.237 L9.518,10.237 C9.441,11.884 9.398,15.438 9.645,17.069 L9.645,17.069 C9.746,17.723 9.966,18.486 10.594,18.694 L10.594,18.694 C11.172,18.886 11.81,18.453 12.062,17.898 L12.062,17.898 C12.314,17.342 12.455,11.599 12.315,9.372 L12.315,9.372 C12.75,9.97 14.132,12.973 15.111,13.148 L15.111,13.148 C16.056,13.319 16.833,12.41 16.517,11.504 L16.517,11.504 C15.899,9.738 13.832,7.286 13.693,3.327 L13.693,3.327 C13.642,1.891 12.451,0.808 11.109,0.431 L11.109,0.431 C10.88,0.366 10.656,0.335999751 10.439,0.335999751 L10.439,0.335999751 C8.264,0.335 6.687,3.348 5.43,4.88" id="Fill-176" mask="url(#mask-14)"></path>
                </g>
                <g id="Group-364" transform="translate(0.000000, 13.687000)">
                    <path d="M421.9911,178.1884 C422.0071,176.9364 422.0111,176.0784 422.0111,176.0784 C422.4321,171.3294 422.8211,166.6084 421.4201,162.1064 C421.0101,160.7924 420.4551,159.5244 419.9491,158.2424 C419.8971,156.8484 419.9311,155.8964 420.0871,155.6034 C421.8811,152.2154 432.3621,120.8574 432.3621,120.8574 L418.3261,115.2784 C415.9571,120.8394 414.9721,125.0704 414.5741,127.8604 C414.1851,130.5824 413.1351,133.1534 411.5531,135.4024 C408.3231,139.9984 406.8361,143.3794 406.1521,145.4554 C405.6701,146.9224 402.2341,147.9384 400.6921,148.0044 L388.1401,149.7044 C385.0071,149.8384 381.9031,150.5274 379.0821,151.8964 C376.9581,152.9274 374.7971,154.4114 373.4961,156.4944 C370.2411,161.7004 366.6371,180.4184 364.7931,187.3544 L378.9481,193.5364 L383.0531,176.8794 L385.1701,189.5034 C385.4741,191.4304 382.9761,203.2574 382.4941,207.5034 C382.4941,207.5034 395.1211,213.8724 408.0981,213.1084 C419.0871,212.4624 428.0961,207.8584 428.0961,207.8584 L422.9941,185.8554 C422.9941,185.8554 422.5461,182.5824 421.9911,178.1884" id="Fill-179" fill="#F2E3C7"></path>
                    <path d="M385.1815,189.6234 C385.1905,189.7244 385.1965,189.8374 385.1955,189.9744 C386.9755,189.8974 390.4525,189.7884 394.5675,189.6594 C403.6135,189.3764 415.7545,188.9954 423.6205,188.5574 L423.5395,188.2094 C415.6775,188.6454 403.5775,189.0254 394.5565,189.3094 C390.3195,189.4414 386.9375,189.5474 385.1815,189.6234" id="Fill-181" fill="#AE956D"></path>
                    <path d="M384.5028,185.5248 L384.5618,185.8728 C386.3008,185.7958 389.8398,185.6848 394.0368,185.5538 C402.9758,185.2738 414.9308,184.8988 422.8068,184.4668 C422.7918,184.3548 422.7758,184.2408 422.7608,184.1178 C414.8878,184.5478 402.9518,184.9228 394.0258,185.2028 C389.6648,185.3398 386.2048,185.4488 384.5028,185.5248" id="Fill-183" fill="#AE956D"></path>
                    <polygon id="Fill-185" fill="#AE956D" points="383.0536 176.8793 382.9696 177.2173 383.1116 177.2273"></polygon>
                    <path d="M383.1181,176.8808 L367.5361,175.7558 C367.5091,175.8718 367.4821,175.9858 367.4551,176.1008 L382.9701,177.2168 L383.0541,176.8798 L383.1111,177.2278 L383.1311,177.2288 C383.6761,177.1518 388.9241,176.9258 395.5671,176.6408 C403.7821,176.2878 414.7651,175.8158 422.0711,175.3948 C422.0821,175.2768 422.0921,175.1588 422.1011,175.0418 C414.7991,175.4638 403.7851,175.9368 395.5521,176.2908 C388.6391,176.5878 383.6421,176.8018 383.1181,176.8808" id="Fill-187" fill="#AE956D"></path>
                    <path d="M371.6962,160.5321 C371.6542,160.6501 371.6122,160.7691 371.5702,160.8891 C371.9302,160.8741 372.2902,160.8591 372.6512,160.8441 C388.2922,160.2061 405.9532,159.4841 420.2052,158.8791 C420.1592,158.7631 420.1122,158.6481 420.0662,158.5331 C405.8372,159.1371 388.2322,159.8571 372.6362,160.4931 C372.3212,160.5071 372.0092,160.5191 371.6962,160.5321" id="Fill-189" fill="#AE956D"></path>
                    <path d="M420.3896,154.9589 C406.2906,155.5579 388.8146,156.2719 373.2546,156.9079 C373.1916,157.0219 373.1266,157.1439 373.0636,157.2679 C388.6096,156.6319 406.0956,155.9179 420.2276,155.3169 C420.2776,155.2099 420.3306,155.0929 420.3896,154.9589" id="Fill-191" fill="#AE956D"></path>
                    <path d="M422.0233,150.766 C408.9793,151.323 392.7483,151.988 377.7683,152.6 C377.5623,152.721 377.3583,152.847 377.1553,152.977 C392.2503,152.36 408.6883,151.686 421.8913,151.123 C421.9343,151.007 421.9793,150.886 422.0233,150.766" id="Fill-193" fill="#AE956D"></path>
                    <path d="M370.3251,164.8446 C370.2911,164.9626 370.2571,165.0816 370.2231,165.1996 C370.8581,165.1746 371.4961,165.1486 372.1371,165.1216 C388.5161,164.4526 407.1141,163.6936 421.6891,163.0706 C421.6601,162.9546 421.6281,162.8396 421.5961,162.7236 C407.0321,163.3446 388.4731,164.1026 372.1221,164.7706 C371.5191,164.7956 370.9211,164.8206 370.3251,164.8446" id="Fill-195" fill="#AE956D"></path>
                    <path d="M369.1874,169.0184 C369.1564,169.1364 369.1264,169.2554 369.0954,169.3734 C370.2404,169.3264 371.3934,169.2794 372.5584,169.2324 C389.0174,168.5594 407.7104,167.7954 422.3274,167.1714 C422.3194,167.0544 422.3084,166.9374 422.2984,166.8214 C407.6844,167.4454 388.9984,168.2084 372.5434,168.8814 C371.4104,168.9274 370.2924,168.9734 369.1874,169.0184" id="Fill-197" fill="#AE956D"></path>
                    <path d="M368.1942,172.9945 C368.1662,173.1125 368.1372,173.2305 368.1082,173.3485 C369.5742,173.2895 371.0572,173.2285 372.5582,173.1675 C389.0312,172.4945 407.7422,171.7295 422.3652,171.1045 C422.3692,170.9875 422.3762,170.8705 422.3792,170.7535 C407.7532,171.3785 389.0282,172.1425 372.5442,172.8165 C371.0702,172.8765 369.6212,172.9355 368.1942,172.9945" id="Fill-199" fill="#AE956D"></path>
                    <path d="M365.5614,184.2553 L379.6584,190.6563 L379.7434,190.3103 L365.6434,183.9063 C365.6164,184.0223 365.5884,184.1423 365.5614,184.2553" id="Fill-201" fill="#AE956D"></path>
                    <path d="M366.2148,181.4594 L380.9048,185.5964 L380.9888,185.2554 L366.2928,181.1174 C366.2668,181.2314 366.2398,181.3464 366.2148,181.4594" id="Fill-203" fill="#AE956D"></path>
                    <path d="M366.8505,178.7011 C366.8245,178.8151 366.7975,178.9301 366.7715,179.0441 L381.9905,181.1931 L382.0745,180.8511 L366.8505,178.7011 Z" id="Fill-205" fill="#AE956D"></path>
                    <path d="M383.7304,180.9169 L383.7894,181.2649 C385.4164,181.1879 389.1074,181.0729 393.5404,180.9339 C402.4394,180.6549 414.3304,180.2819 422.2034,179.8519 C422.1884,179.7369 422.1724,179.6199 422.1584,179.5029 C414.2904,179.9319 402.4174,180.3039 393.5294,180.5829 C388.9204,180.7279 385.3224,180.8399 383.7304,180.9169" id="Fill-207" fill="#AE956D"></path>
                    <path d="M422.9794,148.141 L406.1144,145.547 C406.0734,145.662 406.0264,145.774 405.9754,145.883 L422.8574,148.479 C422.8974,148.367 422.9384,148.255 422.9794,148.141" id="Fill-209" fill="#AE956D"></path>
                    <path d="M424.3905,144.1684 L407.7805,141.6084 C407.7245,141.7204 407.6665,141.8324 407.6145,141.9404 L424.2715,144.5064 C424.3115,144.3944 424.3515,144.2814 424.3905,144.1684" id="Fill-211" fill="#AE956D"></path>
                    <path d="M425.8456,140.0018 L411.1646,135.9648 C411.0946,136.0678 411.0206,136.1728 410.9506,136.2738 L425.7306,140.3348 C425.7686,140.2238 425.8076,140.1128 425.8456,140.0018" id="Fill-213" fill="#AE956D"></path>
                    <path d="M427.4765,135.2733 L413.6465,131.4413 C413.6045,131.5513 413.5675,131.6633 413.5235,131.7733 L427.3625,135.6073 C427.4005,135.4953 427.4385,135.3843 427.4765,135.2733" id="Fill-215" fill="#AE956D"></path>
                    <path d="M428.8769,131.1767 L414.8659,126.1637 C414.8439,126.2787 414.8189,126.3987 414.7989,126.5097 L428.7639,131.5087 C428.8019,131.3977 428.8389,131.2867 428.8769,131.1767" id="Fill-217" fill="#AE956D"></path>
                    <path d="M430.3329,126.8847 L416.0949,121.3287 C416.0599,121.4437 416.0279,121.5517 415.9939,121.6647 L430.2209,127.2167 C430.2589,127.1047 430.2959,126.9937 430.3329,126.8847" id="Fill-219" fill="#AE956D"></path>
                    <path d="M431.4755,123.4984 L417.2315,118.0264 C417.1905,118.1374 417.1495,118.2474 417.1095,118.3564 L431.3635,123.8314 C431.4025,123.7164 431.4395,123.6074 431.4755,123.4984" id="Fill-221" fill="#AE956D"></path>
                    <path d="M384.7167,194.0941 C384.6977,194.2101 384.6807,194.3271 384.6607,194.4471 C386.2047,194.3701 390.0017,194.2511 394.5787,194.1081 C404.0247,193.8111 416.8397,193.4081 424.6387,192.9461 L424.5587,192.5991 C416.7587,193.0611 403.9877,193.4621 394.5687,193.7571 C389.9127,193.9031 386.2877,194.0161 384.7167,194.0941" id="Fill-223" fill="#AE956D"></path>
                    <path d="M419.1024,143.9125 L416.9044,144.0625 L416.3204,141.3155 L416.2044,144.1105 L411.0434,144.4625 L410.3784,140.3735 L410.2524,144.5165 L384.8424,146.2485 L383.9804,141.7945 L383.9604,146.3085 L379.5984,146.6065 C378.8834,144.1715 378.8814,141.8785 379.1594,139.9605 C379.5244,137.4735 380.6274,135.1825 382.1284,133.1665 C384.7464,129.6685 384.5314,126.5175 384.5314,126.5175 C384.6744,119.9515 389.1804,117.0135 392.4774,115.7405 C394.6914,114.8865 399.9144,114.5235 402.2164,115.0765 C405.6344,115.8985 410.4564,118.2075 411.4884,124.6795 C411.4884,124.6795 411.7034,127.8305 414.7714,130.9415 C416.5334,132.7345 417.9434,134.8545 418.6354,137.2685 C419.1704,139.1315 419.4804,141.4035 419.1024,143.9125" id="Fill-225" fill="#191C5C"></path>
                    <path d="M404.9862,150.2582 C404.6562,153.2972 401.9252,155.5002 398.8802,155.1772 C396.3752,154.9042 394.4442,153.0092 394.0162,150.6442 C394.0032,150.6442 393.9322,148.5172 393.8902,146.9242 C393.8622,146.2082 393.8482,145.5982 393.8402,145.3312 C393.8342,145.2402 393.8342,145.1912 393.8342,145.1912 L404.6562,144.2292 C404.6562,144.2292 404.6762,144.5172 404.7122,144.9662 C404.7402,145.4582 404.7822,146.1452 404.8312,146.8612 C404.9232,148.3562 405.0132,149.9842 404.9862,150.2582" id="Fill-227" fill="#F58F8F"></path>
                    <path d="M408.6308,133.8861 C408.9868,142.4931 404.5008,146.6991 399.4628,147.0421 C396.0888,147.2721 387.5518,143.3831 387.1938,134.7761 C386.5778,119.9321 391.5618,120.3711 397.4808,120.1251 C403.3998,119.8801 407.9838,118.3011 408.6308,133.8861" id="Fill-229" fill="#FDA1A1"></path>
                    <path d="M388.1806,133.849 C388.1806,133.849 390.4196,129.772 389.8296,124.908 C389.8296,124.908 392.3756,129.203 407.8876,127.453 C407.8876,127.453 407.4446,131.977 408.1996,132.958 C408.9546,133.939 409.9706,129.922 409.9706,129.922 L411.2336,123.728 C410.7766,120.31 406.9686,116.858 403.7676,115.578 C403.7676,115.578 396.3016,114.438 392.8826,115.692 C389.7096,116.855 385.5176,121.079 384.9606,124.411 L384.1056,131.137 L386.8906,133.378 L388.1806,133.849 Z" id="Fill-231" fill="#191C5C"></path>
                    <path d="M384.3417,131.7987 C384.3287,131.8047 384.3157,131.8107 384.3027,131.8177 C383.0417,132.4507 382.7337,134.3857 383.6137,136.1407 C384.4867,137.8777 386.1957,138.7867 387.4527,138.1917 C387.4667,138.1847 387.4797,138.1787 387.4917,138.1727 C387.7477,138.0437 387.9647,137.8617 388.1397,137.6387 C388.8287,136.7617 388.8827,135.2477 388.1807,133.8487 C387.4757,132.4437 386.2217,131.5807 385.1027,131.6167 C384.8387,131.6257 384.5817,131.6847 384.3417,131.7987" id="Fill-233" fill="#FDA1A1"></path>
                    <path d="M410.7489,129.9979 C410.7639,130.0019 410.7769,130.0069 410.7909,130.0119 C412.1259,130.4669 412.6939,132.3429 412.0599,134.2009 C411.4319,136.0409 409.8599,137.1729 408.5339,136.7539 C408.5199,136.7489 408.5069,136.7449 408.4929,136.7399 C408.2229,136.6479 407.9829,136.4969 407.7789,136.2999 C406.9769,135.5239 406.7189,134.0319 407.2249,132.5509 C407.7319,131.0629 408.8569,130.0369 409.9709,129.9219 C410.2339,129.8939 410.4959,129.9179 410.7489,129.9979" id="Fill-235" fill="#FDA1A1"></path>
                    <path d="M404.5263,154.6659 C402.1593,156.9909 399.2653,156.7039 399.2653,156.7039 C397.1183,156.6269 395.1303,155.2899 394.1803,153.7449 C392.5163,151.0399 392.9533,149.6679 392.8653,148.9669 L393.9393,148.7479 C393.9813,150.3409 394.0033,150.6439 394.0163,150.6439 C394.4443,153.0089 396.3753,154.9039 398.8803,155.1779 C401.9253,155.4999 404.6563,153.2969 404.9863,150.2579 C405.0133,149.9839 404.9193,148.2539 404.8273,146.7589 L406.0183,145.7439 L406.0763,146.1589 C406.1463,146.6549 406.9603,152.2759 404.5263,154.6659" id="Fill-237" fill="#AE956D"></path>
                    <path d="M348.9101,298.2943 C348.9101,298.2943 348.1191,274.8753 350.1321,274.6453 L354.4161,274.1453 L355.1771,274.0593 L369.0811,272.4593 L371.1471,284.6483 L361.3641,286.2683 C360.4141,286.4253 359.6241,287.0823 359.2951,287.9823 L358.5511,290.0313 L357.9141,291.7743 L357.0591,294.6443 L357.0551,294.6493 L355.4781,299.9473 C354.5861,301.5653 349.0301,299.3043 348.9101,298.2943" id="Fill-239" fill="#FDA1A1"></path>
                    <path d="M354.5956,301.1107 C353.1596,302.6287 350.6986,302.7647 349.2406,301.2687 C349.1706,301.1987 349.1096,301.1277 349.0556,301.0567 C348.2836,300.0457 347.8486,298.8207 347.8116,297.5477 C347.7476,295.3627 347.6546,291.9037 347.6836,291.3197 L348.1556,282.0497 C348.2296,280.0207 349.5536,274.4607 351.5666,274.2297 L357.1096,273.6437 C356.8506,275.9317 350.0486,298.6307 357.0546,294.6497 L355.4786,299.9477 C355.2576,300.3487 354.9436,300.7437 354.5956,301.1107" id="Fill-241" fill="#FB5619"></path>
                    <polygon id="Fill-243" fill="#FB5619" points="351.5663 274.2299 344.7743 275.6279 346.0783 282.3979 348.1843 282.0489"></polygon>
                    <path d="M383.3241,298.2943 C383.3241,298.2943 382.5331,274.8753 384.5461,274.6453 L388.8301,274.1453 L389.5901,274.0593 L400.3251,272.7613 L402.3911,284.9503 L395.7781,286.2683 C394.8281,286.4253 394.0381,287.0823 393.7091,287.9823 L392.9651,290.0313 L392.3281,291.7743 L391.4731,294.6443 L391.4691,294.6493 L389.8921,299.9473 C389.0001,301.5653 383.4431,299.3043 383.3241,298.2943" id="Fill-245" fill="#FDA1A1"></path>
                    <path d="M389.0097,301.1107 C387.5737,302.6287 385.1127,302.7647 383.6537,301.2687 C383.5847,301.1987 383.5237,301.1277 383.4697,301.0567 C382.6977,300.0457 382.2627,298.8207 382.2257,297.5477 C382.1617,295.3627 382.0687,291.9037 382.0977,291.3197 L382.5697,282.0497 C382.6427,280.0207 383.9677,274.4607 385.9807,274.2297 L391.5237,273.6437 C391.2647,275.9317 384.4627,298.6307 391.4687,294.6497 L389.8927,299.9477 C389.6717,300.3487 389.3577,300.7437 389.0097,301.1107" id="Fill-247" fill="#FB5619"></path>
                    <polygon id="Fill-249" fill="#FB5619" points="385.9804 274.2299 379.1884 275.6279 380.4914 282.3979 382.5984 282.0489"></polygon>
                    <path d="M402.7392,196.9369 C402.7392,196.9369 405.1502,218.1999 408.1832,224.7859 C411.2172,231.3729 423.3272,265.2109 423.3272,265.2109 L397.2792,272.1059 L401.4112,288.8729 C401.4112,288.8729 424.7032,286.2069 435.6362,285.5889 C435.6362,285.5889 445.8852,284.2339 446.8242,274.1839 C447.7632,264.1329 425.3882,196.0319 425.3882,196.0319 L402.7392,196.9369 Z" id="Fill-251" fill="#FF2351"></path>
                    <path d="M401.2431,196.8021 C401.2431,196.8021 403.7731,219.0411 406.8061,225.6281 C409.8391,232.2141 422.3241,264.9291 422.3241,264.9291 L396.8781,271.8221 L400.4081,288.5901 C400.4081,288.5901 423.0681,285.9851 434.6341,285.3071 C434.6341,285.3071 444.8831,283.9511 445.8221,273.9021 C446.7611,263.8511 425.3971,196.0311 425.3971,196.0311 L401.2431,196.8021 Z" id="Fill-253" fill="#AC1032"></path>
                    <path d="M384.1181,197.0853 C384.1181,197.0853 378.2371,213.2193 380.2171,226.5723 C381.2801,233.7463 392.7861,264.8393 392.7861,264.8393 L364.3671,271.2203 L366.8811,287.4203 C366.8811,287.4203 390.8311,285.7873 401.7241,286.9043 C401.7241,286.9043 412.0581,287.1843 414.5731,277.4083 C417.0871,267.6323 405.8431,196.9463 405.8431,196.9463 L384.1181,197.0853 Z" id="Fill-255" fill="#FF2351"></path>
                    <path d="M406.2353,199.8939 C406.5363,199.2999 407.2863,198.9179 407.9013,199.1719 C408.5153,199.4249 408.7313,200.3919 408.1993,200.7909 C407.9253,200.9969 407.5213,201.0059 407.2383,200.8139" id="Stroke-257" stroke="#FFFFFF" stroke-width="0.667" stroke-linecap="round" stroke-linejoin="round"></path>
                    <path d="M417.3212,196.599 C417.3212,196.599 419.2612,208.144 430.8062,212.704" id="Stroke-259" stroke="#FFFFFF" stroke-width="0.667" stroke-linecap="round" stroke-linejoin="round" stroke-dasharray="1.334,2.001"></path>
                    <path d="M390.3505,197.0844 C390.3505,197.0844 389.4775,215.7114 380.1635,215.2274" id="Stroke-261" stroke="#FFFFFF" stroke-width="0.667" stroke-linecap="round" stroke-linejoin="round" stroke-dasharray="1.334,2.001"></path>
                    <line x1="407.8075" y1="205.2904" x2="410.7645" y2="231.3624" id="Stroke-263" stroke="#FFFFFF" stroke-width="0.667" stroke-linecap="round" stroke-linejoin="round" stroke-dasharray="1.334,2.001"></line>
                    <path d="M450.6747,151.4257 C450.1707,151.3327 448.2397,150.8567 446.8747,150.5957 C446.6557,148.9137 446.1077,145.4457 445.8397,143.8507 C445.8107,143.6757 445.6097,143.6757 445.5807,143.8527 C445.4397,144.7467 444.6487,148.6117 444.3787,150.5597 C443.0877,150.7497 441.3307,151.0877 440.7567,151.2267 C440.5517,151.2767 440.5557,151.5387 440.7617,151.5847 C441.7807,151.8097 443.2487,152.1077 444.3387,152.2987 C444.5227,154.1787 445.1647,157.6987 445.3897,158.7217 C445.4567,159.0287 445.8047,159.0207 445.8637,158.7117 C446.2227,156.8257 446.6877,153.8107 446.8797,152.3317 C448.0607,152.1327 449.7537,151.7907 450.6747,151.6207 C450.7927,151.5987 450.7927,151.4477 450.6747,151.4257" id="Fill-265" fill="#FFFFFF"></path>
                    <path d="M287.1073,43.8798 C286.7763,43.8178 285.5053,43.5048 284.6083,43.3338 C284.4633,42.2278 284.1023,39.9458 283.9263,38.8968 C283.9073,38.7808 283.7753,38.7808 283.7563,38.8978 C283.6633,39.4848 283.1423,42.0288 282.9653,43.3098 C282.1163,43.4348 280.9613,43.6568 280.5823,43.7488 C280.4473,43.7818 280.4503,43.9548 280.5863,43.9838 C281.2563,44.1328 282.2223,44.3288 282.9393,44.4538 C283.0593,45.6918 283.4823,48.0068 283.6303,48.6798 C283.6743,48.8818 283.9043,48.8768 283.9423,48.6728 C284.1783,47.4328 284.4843,45.4488 284.6113,44.4758 C285.3873,44.3448 286.5023,44.1198 287.1073,44.0078 C287.1853,43.9938 287.1853,43.8948 287.1073,43.8798" id="Fill-267" fill="#FFFFFF"></path>
                    <path d="M29.8207,145.3485 C29.4897,145.2865 28.2187,144.9735 27.3207,144.8025 C27.1767,143.6965 26.8157,141.4145 26.6397,140.3655 C26.6207,140.2495 26.4877,140.2495 26.4697,140.3665 C26.3767,140.9535 25.8557,143.4975 25.6787,144.7785 C24.8287,144.9035 23.6737,145.1255 23.2957,145.2175 C23.1607,145.2505 23.1627,145.4235 23.2987,145.4525 C23.9697,145.6015 24.9347,145.7975 25.6527,145.9225 C25.7727,147.1605 26.1957,149.4755 26.3437,150.1485 C26.3877,150.3505 26.6167,150.3455 26.6557,150.1415 C26.8917,148.9015 27.1977,146.9175 27.3237,145.9445 C28.1007,145.8135 29.2157,145.5885 29.8207,145.4765 C29.8987,145.4625 29.8987,145.3635 29.8207,145.3485" id="Fill-269" fill="#FFFFFF"></path>
                    <path d="M151.3432,158.9042 C151.0112,158.8432 149.7412,158.5292 148.8432,158.3582 C148.6992,157.2522 148.3382,154.9702 148.1622,153.9212 C148.1422,153.8052 148.0102,153.8052 147.9912,153.9222 C147.8982,154.5092 147.3782,157.0532 147.2002,158.3342 C146.3512,158.4592 145.1962,158.6812 144.8172,158.7732 C144.6832,158.8062 144.6852,158.9792 144.8212,159.0092 C145.4912,159.1572 146.4572,159.3532 147.1742,159.4782 C147.2952,160.7162 147.7182,163.0312 147.8652,163.7042 C147.9102,163.9062 148.1392,163.9012 148.1772,163.6972 C148.4142,162.4572 148.7202,160.4732 148.8462,159.5002 C149.6232,159.3692 150.7372,159.1442 151.3432,159.0322 C151.4202,159.0182 151.4202,158.9192 151.3432,158.9042" id="Fill-271" fill="#FF2351"></path>
                    <path d="M452.2148,112.6972 C451.8838,112.6362 450.6128,112.3222 449.7148,112.1512 C449.5708,111.0452 449.2098,108.7632 449.0338,107.7142 C449.0148,107.5982 448.8818,107.5982 448.8628,107.7152 C448.7708,108.3022 448.2498,110.8462 448.0718,112.1272 C447.2238,112.2522 446.0678,112.4742 445.6898,112.5662 C445.5548,112.5992 445.5578,112.7722 445.6928,112.8012 C446.3628,112.9502 447.3288,113.1462 448.0458,113.2712 C448.1668,114.5092 448.5898,116.8242 448.7368,117.4972 C448.7818,117.6992 449.0108,117.6942 449.0498,117.4902 C449.2858,116.2502 449.5918,114.2662 449.7178,113.2932 C450.4948,113.1622 451.6098,112.9372 452.2148,112.8252 C452.2918,112.8112 452.2928,112.7122 452.2148,112.6972" id="Fill-273" fill="#FF2351"></path>
                    <path d="M246.7089,87.0043 C246.3779,86.9423 245.1069,86.6293 244.2089,86.4583 C244.0649,85.3513 243.7039,83.0693 243.5279,82.0213 C243.5089,81.9043 243.3759,81.9053 243.3569,82.0223 C243.2649,82.6093 242.7439,85.1523 242.5659,86.4343 C241.7179,86.5593 240.5619,86.7813 240.1839,86.8733 C240.0489,86.9053 240.0509,87.0783 240.1869,87.1083 C240.8569,87.2573 241.8229,87.4533 242.5399,87.5783 C242.6609,88.8153 243.0839,91.1313 243.2309,91.8043 C243.2759,92.0053 243.5049,92.0013 243.5439,91.7973 C243.7789,90.5573 244.0859,88.5733 244.2119,87.6003 C244.9889,87.4693 246.1029,87.2443 246.7089,87.1323 C246.7859,87.1183 246.7859,87.0183 246.7089,87.0043" id="Fill-275" fill="#FF2351"></path>
                    <path d="M77.4496,47.0048 C76.9456,46.9118 75.0146,46.4358 73.6506,46.1748 C73.4306,44.4938 72.8816,41.0258 72.6146,39.4308 C72.5846,39.2548 72.3836,39.2548 72.3556,39.4318 C72.2136,40.3258 71.4226,44.1918 71.1536,46.1388 C69.8626,46.3288 68.1066,46.6668 67.5316,46.8058 C67.3266,46.8558 67.3296,47.1188 67.5356,47.1638 C68.5556,47.3898 70.0236,47.6868 71.1136,47.8778 C71.2966,49.7578 71.9396,53.2778 72.1636,54.3008 C72.2316,54.6078 72.5796,54.5998 72.6386,54.2908 C72.9966,52.4048 73.4626,49.3898 73.6546,47.9108 C74.8346,47.7118 76.5286,47.3698 77.4496,47.1998 C77.5676,47.1788 77.5676,47.0268 77.4496,47.0048" id="Fill-277" fill="#FFFFFF"></path>
                    <path d="M397.0048,92.7841 C397.0768,92.7321 397.1488,92.8021 397.0968,92.8751 C396.4988,93.7141 394.9828,95.7991 394.7948,95.9771 C394.5978,96.1621 392.8728,97.4391 391.8628,98.1251 C391.7338,98.2141 391.6078,98.0931 391.6918,97.9611 C392.0328,97.4271 393.4548,95.3741 393.9008,94.9731 C394.4098,94.5171 396.5778,93.0931 397.0048,92.7841" id="Fill-279" fill="#FFFFFF"></path>
                    <path d="M397.1552,98.1986 C397.2062,98.2716 397.1302,98.3476 397.0562,98.2976 C396.2172,97.7086 394.3012,96.4236 393.9992,96.1096 C393.6902,95.7886 392.5322,94.0906 391.8692,93.0706 C391.7842,92.9386 391.9142,92.8046 392.0472,92.8866 C392.5842,93.2216 394.6192,94.6386 395.0342,95.0676 C395.4952,95.5426 396.8552,97.7686 397.1552,98.1986" id="Fill-281" fill="#FFFFFF"></path>
                    <path d="M258.7235,134.496 C258.7955,134.443 258.8675,134.514 258.8155,134.587 C258.2185,135.426 256.7025,137.511 256.5135,137.689 C256.3175,137.874 254.5925,139.151 253.5815,139.837 C253.4525,139.926 253.3265,139.805 253.4105,139.673 C253.7515,139.139 255.1735,137.086 255.6205,136.685 C256.1285,136.229 258.2975,134.805 258.7235,134.496" id="Fill-283" fill="#FFFFFF"></path>
                    <path d="M258.8739,139.9105 C258.9259,139.9835 258.8489,140.0595 258.7759,140.0095 C257.9359,139.4205 256.0199,138.1355 255.7179,137.8215 C255.4089,137.5005 254.2509,135.8025 253.5879,134.7825 C253.5029,134.6505 253.6339,134.5165 253.7659,134.5985 C254.3029,134.9335 256.3379,136.3505 256.7529,136.7795 C257.2139,137.2545 258.5739,139.4805 258.8739,139.9105" id="Fill-285" fill="#FFFFFF"></path>
                    <path d="M117.8515,40.3793 C117.8975,40.3463 117.9425,40.3913 117.9095,40.4373 C117.5305,40.9703 116.5675,42.2953 116.4475,42.4073 C116.3225,42.5253 115.2275,43.3363 114.5855,43.7723 C114.5035,43.8283 114.4235,43.7513 114.4765,43.6673 C114.6935,43.3283 115.5975,42.0253 115.8805,41.7703 C116.2035,41.4803 117.5805,40.5753 117.8515,40.3793" id="Fill-287" fill="#FFFFFF"></path>
                    <path d="M117.9472,43.8182 C117.9792,43.8642 117.9302,43.9132 117.8852,43.8802 C117.3512,43.5072 116.1342,42.6912 115.9422,42.4912 C115.7462,42.2882 115.0102,41.2092 114.5902,40.5612 C114.5352,40.4782 114.6182,40.3922 114.7022,40.4442 C115.0432,40.6572 116.3362,41.5572 116.6002,41.8302 C116.8922,42.1312 117.7572,43.5452 117.9472,43.8182" id="Fill-289" fill="#FFFFFF"></path>
                    <path d="M39.4379,115.3934 C39.4839,115.3604 39.5289,115.4054 39.4969,115.4514 C39.1169,115.9844 38.1539,117.3094 38.0349,117.4214 C37.9099,117.5394 36.8139,118.3504 36.1729,118.7864 C36.0899,118.8424 36.0099,118.7654 36.0639,118.6824 C36.2809,118.3424 37.1839,117.0394 37.4669,116.7844 C37.7909,116.4944 39.1669,115.5904 39.4379,115.3934" id="Fill-291" fill="#FFFFFF"></path>
                    <path d="M39.5336,118.8329 C39.5666,118.8789 39.5176,118.9279 39.4716,118.8949 C38.9376,118.5209 37.7206,117.7049 37.5286,117.5059 C37.3336,117.3019 36.5976,116.2239 36.1766,115.5759 C36.1216,115.4919 36.2046,115.4069 36.2896,115.4589 C36.6306,115.6719 37.9236,116.5719 38.1866,116.8439 C38.4796,117.1459 39.3436,118.5599 39.5336,118.8329" id="Fill-293" fill="#FFFFFF"></path>
                    <path d="M285.5536,130.3163 C285.5986,130.2833 285.6446,130.3283 285.6116,130.3743 C285.2326,130.9073 284.2696,132.2323 284.1496,132.3443 C284.0246,132.4623 282.9296,133.2733 282.2876,133.7093 C282.2046,133.7653 282.1246,133.6883 282.1786,133.6043 C282.3956,133.2653 283.2986,131.9623 283.5816,131.7073 C283.9056,131.4173 285.2826,130.5123 285.5536,130.3163" id="Fill-295" fill="#FFFFFF"></path>
                    <path d="M285.6493,133.7553 C285.6813,133.8013 285.6323,133.8503 285.5873,133.8173 C285.0523,133.4443 283.8363,132.6283 283.6443,132.4283 C283.4483,132.2253 282.7123,131.1463 282.2923,130.4983 C282.2373,130.4153 282.3203,130.3293 282.4043,130.3823 C282.7453,130.5943 284.0383,131.4943 284.3013,131.7673 C284.5943,132.0683 285.4593,133.4833 285.6493,133.7553" id="Fill-297" fill="#FFFFFF"></path>
                    <path d="M370.3476,53.5604 C370.3936,53.5274 370.4396,53.5724 370.4066,53.6184 C370.0276,54.1514 369.0646,55.4754 368.9446,55.5884 C368.8196,55.7064 367.7236,56.5174 367.0826,56.9534 C366.9996,57.0084 366.9196,56.9324 366.9736,56.8484 C367.1906,56.5094 368.0936,55.2064 368.3766,54.9514 C368.7006,54.6614 370.0766,53.7564 370.3476,53.5604" id="Fill-299" fill="#FF2351"></path>
                    <path d="M370.4433,56.9994 C370.4753,57.0454 370.4273,57.0944 370.3813,57.0614 C369.8473,56.6884 368.6313,55.8724 368.4383,55.6724 C368.2433,55.4684 367.5073,54.3904 367.0863,53.7424 C367.0323,53.6584 367.1153,53.5734 367.1993,53.6254 C367.5403,53.8384 368.8333,54.7384 369.0963,55.0104 C369.3883,55.3124 370.2533,56.7264 370.4433,56.9994" id="Fill-301" fill="#FF2351"></path>
                    <path d="M232.5653,190.1615 C232.6113,190.1285 232.6563,190.1735 232.6233,190.2195 C232.2443,190.7525 231.2813,192.0765 231.1613,192.1885 C231.0363,192.3075 229.9413,193.1175 229.2993,193.5535 C229.2173,193.6095 229.1373,193.5325 229.1903,193.4495 C229.4073,193.1095 230.3103,191.8065 230.5943,191.5525 C230.9173,191.2625 232.2943,190.3575 232.5653,190.1615" id="Fill-303" fill="#FF2351"></path>
                    <path d="M232.661,193.6 C232.693,193.647 232.644,193.695 232.599,193.662 C232.065,193.289 230.848,192.473 230.656,192.273 C230.46,192.07 229.724,190.991 229.304,190.343 C229.249,190.259 229.332,190.174 229.416,190.227 C229.757,190.439 231.05,191.339 231.314,191.612 C231.606,191.913 232.471,193.328 232.661,193.6" id="Fill-305" fill="#FF2351"></path>
                    <path d="M460.8388,132.3729 C460.8848,132.3399 460.9308,132.3849 460.8978,132.4309 C460.5188,132.9639 459.5548,134.2879 459.4358,134.4009 C459.3108,134.5189 458.2148,135.3299 457.5728,135.7659 C457.4908,135.8209 457.4108,135.7449 457.4648,135.6609 C457.6818,135.3219 458.5848,134.0179 458.8678,133.7639 C459.1918,133.4739 460.5678,132.5689 460.8388,132.3729" id="Fill-307" fill="#FFFFFF"></path>
                    <path d="M460.9345,135.8119 C460.9665,135.8579 460.9185,135.9069 460.8725,135.8739 C460.3385,135.5009 459.1225,134.6849 458.9295,134.4849 C458.7345,134.2809 457.9975,133.2029 457.5775,132.5549 C457.5235,132.4709 457.6065,132.3859 457.6905,132.4379 C458.0315,132.6509 459.3245,133.5509 459.5875,133.8229 C459.8795,134.1249 460.7445,135.5389 460.9345,135.8119" id="Fill-309" fill="#FFFFFF"></path>
                    <path d="M200.5106,100.9374 C200.5826,100.8844 200.6546,100.9554 200.6026,101.0284 C200.0056,101.8674 198.4886,103.9524 198.3006,104.1304 C198.1036,104.3154 196.3786,105.5924 195.3686,106.2784 C195.2396,106.3674 195.1136,106.2464 195.1976,106.1144 C195.5386,105.5804 196.9606,103.5274 197.4076,103.1264 C197.9156,102.6704 200.0846,101.2464 200.5106,100.9374" id="Fill-311" fill="#FFFFFF"></path>
                    <path d="M200.661,106.3519 C200.712,106.4249 200.636,106.5009 200.563,106.4509 C199.723,105.8619 197.807,104.5769 197.504,104.2629 C197.196,103.9419 196.038,102.2439 195.375,101.2239 C195.289,101.0919 195.42,100.9579 195.553,101.0399 C196.089,101.3749 198.125,102.7919 198.54,103.2209 C199.001,103.6959 200.361,105.9219 200.661,106.3519" id="Fill-313" fill="#FFFFFF"></path>
                    <path d="M367.5771,30.6566 C367.5771,29.0016 368.9191,27.6596 370.5741,27.6596 C372.2291,27.6596 373.5711,29.0016 373.5711,30.6566 C373.5711,32.3116 372.2291,33.6536 370.5741,33.6536 C368.9191,33.6536 367.5771,32.3116 367.5771,30.6566" id="Fill-315" fill="#FFFFFF"></path>
                    <path d="M126.1723,60.4208 C126.1723,59.1788 127.1783,58.1728 128.4203,58.1728 C129.6613,58.1728 130.6683,59.1788 130.6683,60.4208 C130.6683,61.6628 129.6613,62.6688 128.4203,62.6688 C127.1783,62.6688 126.1723,61.6628 126.1723,60.4208" id="Fill-317" fill="#FFFFFF"></path>
                    <path d="M152.202,184.767 C152.202,183.112 153.544,181.769 155.2,181.769 C156.855,181.769 158.197,183.112 158.197,184.767 C158.197,186.422 156.855,187.764 155.2,187.764 C153.544,187.764 152.202,186.422 152.202,184.767" id="Fill-319" fill="#FFFFFF"></path>
                    <path d="M53.1244,122.7885 C53.1244,121.1335 54.4664,119.7915 56.1214,119.7915 C57.7774,119.7915 59.1194,121.1335 59.1194,122.7885 C59.1194,124.4445 57.7774,125.7865 56.1214,125.7865 C54.4664,125.7865 53.1244,124.4445 53.1244,122.7885 Z" id="Stroke-321" stroke="#FF2351"></path>
                    <path d="M172.1625,85.2836 C172.1625,83.6286 173.5045,82.2866 175.1595,82.2866 C176.8145,82.2866 178.1575,83.6286 178.1575,85.2836 C178.1575,86.9386 176.8145,88.2806 175.1595,88.2806 C173.5045,88.2806 172.1625,86.9386 172.1625,85.2836 Z" id="Stroke-323" stroke="#FF2351"></path>
                    <path d="M262.6796,117.4975 C262.6796,115.8425 264.0216,114.5005 265.6766,114.5005 C267.3316,114.5005 268.6736,115.8425 268.6736,117.4975 C268.6736,119.1535 267.3316,120.4955 265.6766,120.4955 C264.0216,120.4955 262.6796,119.1535 262.6796,117.4975 Z" id="Stroke-325" stroke="#FF2351"></path>
                    <path d="M411.6054,58.9291 C411.6054,57.2741 412.9474,55.9321 414.6024,55.9321 C416.2574,55.9321 417.5994,57.2741 417.5994,58.9291 C417.5994,60.5841 416.2574,61.9261 414.6024,61.9261 C412.9474,61.9261 411.6054,60.5841 411.6054,58.9291 Z" id="Stroke-327" stroke="#FF2351"></path>
                    <path d="M366.5194,118.1771 C366.5194,116.5221 367.8614,115.1791 369.5164,115.1791 C371.1714,115.1791 372.5144,116.5221 372.5144,118.1771 C372.5144,119.8321 371.1714,121.1741 369.5164,121.1741 C367.8614,121.1741 366.5194,119.8321 366.5194,118.1771 Z" id="Stroke-329" stroke="#FFFFFF"></path>
                    <g id="Group-363" stroke="#4B57DB" stroke-linecap="round" stroke-linejoin="round" stroke-width="0.5">
                        <path d="M0.2499,34.62 C8.1689,26.321 18.6969,20.55 29.9519,18.336" id="Stroke-331"></path>
                        <path d="M0.5844,28.2372 C6.5604,21.9742 14.5044,17.6192 22.9984,15.9492" id="Stroke-333"></path>
                        <path d="M424.9853,65.5624 C436.4513,65.9134 447.7783,69.8934 456.9433,76.7924" id="Stroke-335"></path>
                        <path d="M429.9589,61.5482 C438.6109,61.8122 447.1589,64.8162 454.0749,70.0222" id="Stroke-337"></path>
                        <path d="M159.1757,318.4242 C165.1417,307.9232 175.3767,299.9312 187.0117,296.6892" id="Stroke-339"></path>
                        <path d="M159.0726,310.1976 C164.0116,302.8646 171.4176,297.2266 179.8006,294.4196" id="Stroke-341"></path>
                        <path d="M43.6493,257.7279 C55.4513,260.2909 66.1313,267.6779 72.6953,277.8169" id="Stroke-343"></path>
                        <path d="M51.4711,255.1771 C59.9421,257.7041 67.5331,263.0931 72.7121,270.2571" id="Stroke-345"></path>
                        <path d="M20.9359,180.3505 C23.6699,192.1145 21.5649,204.9285 15.2099,215.1995" id="Stroke-347"></path>
                        <path d="M26.5893,186.3285 C27.9303,195.0655 26.3083,204.2315 22.0493,211.9795" id="Stroke-349"></path>
                        <path d="M320.1454,266.2396 C321.0264,278.2856 316.9624,290.6186 309.0944,299.7826" id="Stroke-351"></path>
                        <path d="M324.8056,273.0199 C324.7786,281.8609 321.7566,290.6649 316.3506,297.6599" id="Stroke-353"></path>
                        <path d="M219.1044,56.7533 C212.0954,46.9173 209.1624,34.2673 211.1254,22.3503" id="Stroke-355"></path>
                        <path d="M211.6,53.3793 C207.033,45.8103 205.041,36.7173 206.028,27.9323" id="Stroke-357"></path>
                        <path d="M330.0565,7.8856 C341.6175,4.3876 354.5405,5.6506 365.2055,11.3196" id="Stroke-359"></path>
                        <path d="M335.6523,1.8534 C344.2843,-0.0556 353.5363,0.9634 361.5463,4.7054" id="Stroke-361"></path>
                    </g>
                </g>
            </g>
        </g>
    </g>
</svg>