<?xml version="1.0" encoding="UTF-8"?>
<svg width="355px" height="299px" viewBox="0 0 355 299" version="1.1" xmlns="http://www.w3.org/2000/svg" xmlns:xlink="http://www.w3.org/1999/xlink">
    <!-- Generator: sketchtool 63.1 (101010) - https://sketch.com -->
    <title>3FAD13F0-53F1-4132-964F-5D4CDCACB801@1.5x</title>
    <desc>Created with sketchtool.</desc>
    <g id="Recruiter-Design" stroke="none" stroke-width="1" fill="none" fill-rule="evenodd">
        <g id="09_Invite-Invite-Candidates" transform="translate(-669.000000, -175.000000)">
            <g id="img_sendinvite_illustration-2" transform="translate(668.000000, 175.000000)">
                <g id="Group-29" transform="translate(0.100000, 0.792900)" fill="#F0F0F0">
                    <path d="M323.941982,175.333135 C323.941982,185.551735 315.658383,193.836235 305.439783,193.836235 C295.221183,193.836235 286.937583,185.551735 286.937583,175.333135 C286.937583,165.114536 295.221183,156.830036 305.439783,156.830036 C315.658383,156.830036 323.941982,165.114536 323.941982,175.333135" id="Fill-15"></path>
                    <path d="M160.959457,23.0195694 C165.529657,9.63476974 161.901757,0.107369997 150.731857,0.107369997 C143.727157,0.107369997 135.041257,3.8567699 126.583058,9.96326974 C125.628158,6.48206983 122.936258,4.39676988 118.607258,4.39676988 C110.987858,4.39676988 100.484858,10.8425697 92.2444586,19.9370695 C90.2509587,17.9093695 87.3664587,16.6673696 83.6584588,16.4675696 C76.366659,16.0580696 67.5349593,19.7615695 59.8561595,25.7852693 C59.1910595,24.7772693 58.0498595,24.1445694 56.4766596,24.0509694 C52.2736597,23.8160694 46.5856598,27.5555693 43.7596599,32.3948691 C43.5841599,32.6999691 43.4275599,32.9933691 43.2718599,33.2858691 L52.0000597,33.2858691 L58.9435595,33.2858691 L83.0671589,33.2858691 L94.9381585,33.2858691 L104.168558,33.2858691 L118.385858,33.2858691 L120.966158,33.2858691 L156.233557,33.2858691 L163.177957,33.2858691 C163.536157,29.0666692 162.790057,25.5395693 160.959457,23.0195694" id="Fill-23" opacity="0.100000001"></path>
                    <path d="M58.3298985,86.2831777 C60.5618984,79.7455779 58.7906984,75.090778 53.3339986,75.090778 C49.9121987,75.090778 45.6695988,76.923178 41.5385989,79.9057779 C41.0714989,78.2056779 39.7565989,77.186878 37.642499,77.186878 C33.9200991,77.186878 28.7900992,80.3350779 24.7652993,84.7774778 C23.7914994,83.7874778 22.3820994,83.1799778 20.5712995,83.0827778 C17.0090995,82.8829778 12.6944997,84.6919778 8.94419976,87.6340777 C8.61929977,87.1417777 8.06219979,86.8330777 7.29269981,86.7871777 C5.24069986,86.6728777 2.46239993,88.4989777 1.08179997,90.8632776 C0.995399974,91.0117776 0.919799976,91.1548776 0.843299978,91.2979776 L5.10659986,91.2979776 L8.49869977,91.2979776 L20.2823995,91.2979776 L26.0801993,91.2979776 L30.5891992,91.2979776 L37.534499,91.2979776 L38.794499,91.2979776 L56.0213985,91.2979776 L59.4134984,91.2979776 C59.5889984,89.2369776 59.2244984,87.5143777 58.3298985,86.2831777" id="Fill-25" opacity="0.100000001" transform="translate(30.149810, 83.194378) scale(-1, 1) translate(-30.149810, -83.194378) "></path>
                    <path d="M346.419083,44.8386185 C345.962783,44.7720185 345.500183,44.7387185 345.029483,44.7387185 C345.461483,38.2074187 342.963983,34.0386188 337.632383,34.0386188 C333.784884,34.0386188 329.064384,36.2148188 324.251184,39.8994187 C325.628184,27.222919 321.219084,18.9843192 311.235384,18.9843192 C303.182184,18.9843192 292.986085,24.3429191 282.915085,33.0837189 C282.033085,28.111219 279.065785,25.1304191 274.080685,25.1304191 C265.321885,25.1304191 252.876686,34.3392188 242.897486,47.3334185 C242.897486,47.3334185 242.893886,47.3505185 242.884886,47.3334185 C240.729386,44.4372186 237.489386,42.6453186 233.231486,42.3609186 C224.892086,41.7741186 214.536687,47.0661185 205.355787,55.6899183 C204.657387,54.2328183 203.385687,53.3283183 201.566787,53.2113183 C197.005587,52.8927183 190.720887,57.6483182 187.071387,64.011318 L197.710287,64.011318 L204.922887,64.011318 L232.659086,64.011318 L245.648786,64.011318 L257.215586,64.011318 L273.645085,64.011318 L304.684284,64.011318 L316.782984,64.011318 L321.087684,64.011318 L338.308283,64.011318 L353.760383,64.011318 C357.673583,54.3660183 354.555083,45.9267185 346.419083,44.8386185" id="Fill-27" opacity="0.100000001"></path>
                </g>
                <g id="Group-66" transform="translate(32.000000, 7.092900)">
                    <polygon id="Fill-36" fill="#AD0224" points="-1.02318151e-12 51.3000886 205.173895 80.8335879 195.652795 121.014087"></polygon>
                    <path d="M191.438905,4.78268987 L203.352205,60.6069884 C203.997505,63.6309883 202.051705,66.6324882 199.028605,67.2768882 L92.7566075,89.9559876 C89.7335076,90.6012876 86.7320077,88.6554877 86.0867077,85.6323877 L74.174308,29.8080892 C73.836808,28.2276893 74.208508,26.6490893 75.069808,25.4115893 C75.860008,24.2892894 77.054308,23.4459894 78.4970079,23.1381894 L184.769005,0.459089988 C186.211705,0.151289996 187.646305,0.433889989 188.826205,1.13498997 C190.117705,1.91348995 191.101405,3.20228992 191.438905,4.78268987" id="Fill-40" fill="#AD0224"></path>
                    <path d="M188.825935,1.13525997 L153.314636,44.7240588 C146.533136,53.0490586 134.870936,55.5375585 125.281437,50.7072587 L75.069538,25.4118593 C75.859738,24.2895594 77.054938,23.4462594 78.4976379,23.1375594 L184.768735,0.459359988 C186.212335,0.151559996 187.646035,0.434159988 188.825935,1.13525997" id="Fill-42" fill="#F52851"></path>
                    <polygon id="Fill-46" fill="#FFFFFF" points="-7.67386134e-14 51.3000886 169.228796 91.5174876 195.652795 121.014087"></polygon>
                    <polygon id="Fill-48" fill="#F52851" points="80.1047679 101.877657 61.2758684 90.8472576 61.7303684 90.0705576 80.5601679 101.100957"></polygon>
                    <polygon id="Fill-50" fill="#F52851" points="95.1974075 110.719437 88.4240077 106.751337 88.8785076 105.974637 95.6528075 109.942737"></polygon>
                    <polygon id="Fill-52" fill="#F52851" points="0 51.3000886 169.228796 91.5174876 136.334696 131.167887"></polygon>
                    <path d="M226.352604,145.530266 C226.133004,145.530266 225.908904,145.488866 225.691104,145.402466 L198.120505,134.487266 C197.196205,134.121866 196.743505,133.076066 197.109805,132.150866 C197.475205,131.227467 198.515605,130.772067 199.446205,131.140167 L227.015904,142.056266 C227.941104,142.421666 228.393804,143.467466 228.026604,144.391766 C227.747604,145.099166 227.069904,145.530266 226.352604,145.530266" id="Fill-56" fill="#F52851"></path>
                    <path d="M224.728374,129.720507 C224.508774,129.720507 224.284674,129.680007 224.066874,129.593607 L209.260074,123.731007 C208.334874,123.365607 207.882174,122.319807 208.248474,121.395507 C208.613874,120.472107 209.656074,120.016707 210.584874,120.383907 L225.391674,126.246507 C226.316874,126.611907 226.769574,127.657707 226.402374,128.582907 C226.123374,129.289407 225.445674,129.720507 224.728374,129.720507" id="Fill-60" fill="#F0F0F0"></path>
                    <path d="M193.774135,145.257836 C193.554535,145.257836 193.330435,145.216436 193.112635,145.130036 L166.230536,134.487536 C165.306236,134.121236 164.853536,133.075436 165.219836,132.151136 C165.585236,131.226837 166.630136,130.774137 167.556236,131.140437 L194.437435,141.783836 C195.362635,142.149236 195.815335,143.195036 195.448135,144.119336 C195.169135,144.826736 194.491435,145.257836 193.774135,145.257836" id="Fill-64" fill="#F52851"></path>
                </g>
                <g id="Group-169" transform="translate(221.899995, 20.592899)">
                    <path d="M101.200767,50.6334587 C103.583067,55.2900585 105.771867,59.9475584 107.849067,64.7220583 C109.910067,69.4956582 111.869367,74.320558 113.554167,79.3839579 L114.168867,81.3036578 C114.272367,81.6447578 114.432567,82.2054578 114.516267,82.6032578 C114.600867,83.0199578 114.690867,83.4483578 114.739467,83.8290578 C114.977967,85.3968577 115.019367,86.8134577 115.046367,88.2075577 C115.091367,90.9831576 114.903267,93.6291575 114.671967,96.2616574 C114.167967,101.519457 113.348067,106.633257 112.221267,111.762357 L107.287467,111.215157 C107.222667,106.145457 107.175867,101.026257 106.999467,96.0321575 C106.911267,93.5400575 106.768167,91.0542576 106.515267,88.7097576 C106.388367,87.5451577 106.199367,86.4021577 105.980667,85.4472577 C105.929367,85.1943577 105.862767,85.0017577 105.804267,84.7920578 C105.733167,84.5688578 105.702567,84.5166578 105.605367,84.2502578 L104.926767,82.5474578 C103.045767,77.9943579 100.928967,73.3989581 98.7716674,68.8278582 L92.2376676,55.1181585 L101.200767,50.6334587 Z" id="Fill-67" fill="#E4897B"></path>
                    <path d="M107.357487,109.673097 L105.053487,113.982297 L112.412787,116.035197 C112.412787,116.035197 113.814987,112.568397 112.144587,109.835097 L107.357487,109.673097 Z" id="Fill-69" fill="#E4897B"></path>
                    <polygon id="Fill-71" fill="#E4897B" points="102.232527 120.194907 108.998727 120.729507 112.413327 116.035107 105.054027 113.982207"></polygon>
                    <path d="M70.2148481,19.5328795 C70.1095481,20.0557795 69.7459482,20.4229795 69.4048482,20.3536795 C69.0628482,20.2834795 68.8720482,19.8037795 68.9782482,19.2808795 C69.0844482,18.7588795 69.4471482,18.3907795 69.7882482,18.4609795 C70.1302481,18.5302795 70.3210481,19.0099795 70.2148481,19.5328795" id="Fill-73" fill="#263238"></path>
                    <path d="M69.7939182,20.4325195 C69.7939182,20.4325195 67.9930182,23.2063194 66.3892182,24.3943194 C67.1380182,25.4455193 68.7904182,25.3708193 68.7904182,25.3708193 L69.7939182,20.4325195 Z" id="Fill-75" fill="#DE5753"></path>
                    <path d="M72.7180181,17.0197195 C72.6334181,17.0197195 72.5497181,16.9855196 72.4876181,16.9189196 C71.5507181,15.9037196 70.4374181,16.0693196 70.3879181,16.0756196 C70.2232181,16.1053196 70.0567181,15.9883196 70.0288181,15.8173196 C70.0000181,15.6472196 70.1143181,15.4861196 70.2844181,15.4573196 C70.3438181,15.4465196 71.7712181,15.2206196 72.9484181,16.4941196 C73.0654181,16.6210196 73.0573181,16.8190196 72.9304181,16.9360196 C72.8701181,16.9918195 72.7945181,17.0197195 72.7180181,17.0197195" id="Fill-77" fill="#263238"></path>
                    <path d="M85.1018377,26.8836293 C84.1541378,31.7211292 83.2082378,40.5834289 86.5913377,43.8108288 C86.5913377,43.8108288 85.2701377,48.7167287 76.281838,48.7167287 C66.3989382,48.7167287 71.5586381,43.8108288 71.5586381,43.8108288 C76.952338,42.5229289 76.813738,38.521529 75.874138,34.7631291 L85.1018377,26.8836293 Z" id="Fill-79" fill="#E4897B"></path>
                    <path d="M87.9485377,46.8651588 C88.6622377,44.4945588 89.4479376,41.7819589 87.8216377,40.9323589 C86.0342377,39.9981589 76.245838,39.044159 72.8717381,40.7991589 C69.4967382,42.5541589 70.4543381,47.3610587 70.4543381,47.3610587 L87.9485377,46.8651588 Z" id="Fill-81" fill="#AD0224"></path>
                    <path d="M107.881287,270.052823 C107.812887,270.052823 107.748087,270.059123 107.688687,270.072623 C107.555487,270.105023 107.460087,270.174323 107.399787,270.284123 C107.258487,270.541523 107.341287,270.650423 107.369187,270.686423 C107.651787,271.057223 109.003587,271.063523 109.989987,270.896123 C109.420287,270.546023 108.482487,270.052823 107.881287,270.052823 M108.707487,271.312823 C108.029787,271.312823 107.375487,271.209323 107.119887,270.876323 C107.012787,270.736823 106.926387,270.493823 107.125287,270.132923 C107.228787,269.943923 107.395287,269.820623 107.616687,269.768423 C108.587787,269.545223 110.408487,270.791723 110.485887,270.844823 C110.536287,270.879923 110.562387,270.941123 110.550687,271.003223 C110.538987,271.063523 110.493087,271.112123 110.433687,271.125623 C110.094387,271.207523 109.390587,271.312823 108.707487,271.312823" id="Fill-83" fill="#F52851"></path>
                    <path d="M109.061637,268.450553 C109.039137,268.450553 109.014837,268.451453 108.991437,268.455053 C108.787137,268.479353 108.770037,268.573853 108.761937,268.613453 C108.680037,269.049953 109.522437,270.144353 110.202837,270.659153 C110.125437,270.102053 109.913937,268.990553 109.420737,268.587353 C109.308237,268.495553 109.191237,268.450553 109.061637,268.450553 M110.396337,271.130753 C110.371137,271.130753 110.345937,271.124453 110.321637,271.111853 C109.638537,270.741053 108.314637,269.293853 108.454137,268.554953 C108.480237,268.421753 108.578337,268.190453 108.952737,268.143653 C109.190337,268.116653 109.418937,268.181453 109.619637,268.345253 C110.388237,268.972553 110.545737,270.880553 110.552937,270.961553 C110.557437,271.019153 110.530437,271.074053 110.481837,271.104653 C110.456637,271.122653 110.426937,271.130753 110.396337,271.130753" id="Fill-85" fill="#F52851"></path>
                    <path d="M67.9570182,270.030863 C67.8472182,270.030863 67.7455182,270.042563 67.6546182,270.066863 C67.5097182,270.106463 67.4098182,270.177563 67.3477182,270.285563 C67.2361182,270.480863 67.2766182,270.576263 67.3171182,270.632063 C67.6150182,271.045163 69.2854182,271.066763 70.5256181,270.895763 C69.9118181,270.580763 68.7292182,270.030863 67.9570182,270.030863 M69.0046182,271.314263 C68.1568182,271.314263 67.3387182,271.197263 67.0633182,270.815663 C66.9661182,270.682463 66.8905182,270.454763 67.0759182,270.130763 C67.1794182,269.948963 67.3468182,269.825663 67.5727182,269.764463 C68.6671182,269.471963 70.9837181,270.782363 71.0818181,270.838163 C71.1376181,270.870563 71.1682181,270.934463 71.1583181,270.999263 C71.1475181,271.063163 71.0980181,271.114463 71.0341181,271.127963 C70.6120181,271.211663 69.7957182,271.314263 69.0046182,271.314263" id="Fill-87" fill="#F52851"></path>
                    <path d="M69.3904482,268.450553 C69.3598482,268.450553 69.3283482,268.452353 69.2968482,268.455053 C69.0142482,268.483853 68.9971482,268.594553 68.9908482,268.631453 C68.9188482,269.080553 69.9925481,270.203753 70.8061481,270.692453 C70.7215481,270.173153 70.4857481,269.106653 69.9340481,268.653953 C69.7675482,268.517153 69.5893482,268.450553 69.3904482,268.450553 M71.0032481,271.130753 C70.9816481,271.130753 70.9591481,271.126253 70.9393481,271.117253 C70.1419481,270.759053 68.5606482,269.330753 68.6812482,268.581953 C68.7100482,268.405553 68.8342482,268.187753 69.2644482,268.143653 C69.5848482,268.113053 69.8764481,268.201253 70.1329481,268.411853 C70.9744481,269.103053 71.1517481,270.883253 71.1589481,270.958853 C71.1643481,271.014653 71.1391481,271.068653 71.0950481,271.101053 C71.0671481,271.120853 71.0356481,271.130753 71.0032481,271.130753" id="Fill-89" fill="#F52851"></path>
                    <polygon id="Fill-91" fill="#E4897B" points="78.2735379 270.973973 71.6612381 270.973973 71.0033381 255.663173 77.6156379 255.663173"></polygon>
                    <polygon id="Fill-93" fill="#E4897B" points="117.971097 270.973973 111.358797 270.973973 108.035997 255.663173 114.648297 255.663173"></polygon>
                    <path d="M110.889807,270.208433 L118.317507,270.208433 C118.588407,270.208433 118.821507,270.396533 118.880907,270.660233 L120.186807,276.537233 C120.321807,277.146533 119.843007,277.724333 119.218407,277.713533 C116.625507,277.668533 115.365507,277.516433 112.099407,277.516433 C110.088807,277.516433 105.948807,277.725233 103.174107,277.725233 C100.459707,277.725233 100.035807,274.981133 101.172507,274.731833 C106.266507,273.618533 108.185307,272.081333 109.817007,270.615233 C110.110407,270.350633 110.494707,270.208433 110.889807,270.208433" id="Fill-95" fill="#F52851"></path>
                    <path d="M71.7055181,270.208433 L78.9253179,270.208433 C79.1962179,270.208433 79.4302179,270.396533 79.4887179,270.660233 L80.7955179,276.537233 C80.9305179,277.146533 80.4670179,277.724333 79.8433179,277.713533 C77.238718,277.669433 73.4758181,277.516433 70.2016181,277.516433 C66.3739182,277.516433 63.0673183,277.725233 58.5790184,277.725233 C55.8646185,277.725233 55.1122185,274.981133 56.2471185,274.731833 C61.4194184,273.601433 65.6431183,273.479933 70.1125181,270.724133 C70.5985181,270.424433 71.1349181,270.208433 71.7055181,270.208433" id="Fill-97" fill="#F52851"></path>
                    <path d="M68.5124082,55.4243385 C62.9063083,54.9860385 57.5171085,54.2606386 52.0352086,53.2337386 C49.3073087,52.7090386 46.5749088,52.1240386 43.8425088,51.3887386 C41.1074089,50.6552387 38.366009,49.8236387 35.5967091,48.6671387 C34.9037091,48.3827387 34.2053091,48.0632387 33.5069091,47.7311387 C32.6303091,47.2982387 31.9022092,46.8482388 31.2605092,46.4225388 C29.9609092,45.5630388 28.8485092,44.6783388 27.7406093,43.7945388 C25.5392093,42.0323389 23.4908094,40.1990389 21.4694094,38.347739 C17.4446095,34.6253391 13.6259096,30.7715392 9.94850974,26.7179393 L13.2587096,23.0189394 L26.3168093,32.4041391 C28.4732092,33.9584391 30.6485092,35.4758391 32.7887091,36.907739 C33.8543091,37.616039 34.9442091,38.288339 35.936909,38.848139 C36.439109,39.132539 36.886409,39.346739 37.232009,39.483539 C37.767509,39.6923389 38.309309,39.8993389 38.878109,40.0892389 C43.4492088,41.6147389 48.6188087,42.5939389 53.7524086,43.4210388 C58.8914084,44.2337388 64.2014083,44.9033388 69.3305082,45.4352388 L68.5124082,55.4243385 Z" id="Fill-99" fill="#E4897B"></path>
                    <path d="M98.4294874,45.3055488 C104.626887,46.7257488 110.891787,64.8445483 110.891787,64.8445483 L98.1360874,73.993948 C98.1360874,73.993948 94.5720875,65.5555483 91.0665876,58.1755485 C87.3936877,50.4427487 92.0934876,43.8529488 98.4294874,45.3055488" id="Fill-103" fill="#F52851"></path>
                    <path d="M94.8541475,55.2046485 L92.3251476,60.8656484 C94.9441475,66.5176482 97.3381474,72.1156481 97.9771474,73.6096481 C97.8871474,66.9226482 96.6181474,58.6246484 94.8541475,55.2046485" id="Fill-107" fill="#DA123A"></path>
                    <path d="M61.3889084,45.6461088 C61.3889084,45.6461088 54.3518086,53.5949086 60.9974084,102.794307 L96.3611074,102.794307 C96.6050074,97.3655074 93.1940075,70.8839081 98.4293074,45.3059088 C98.4293074,45.3059088 92.3687076,44.0891088 86.5916077,43.8101088 C82.0727078,43.5923088 75.531508,43.4483088 71.5589081,43.8110088 C66.3209082,44.2889088 61.3889084,45.6461088 61.3889084,45.6461088" id="Fill-111" fill="#F52851"></path>
                    <path d="M58.7732384,55.2046485 C58.5392384,57.0676485 58.3592385,59.2726484 58.2422385,61.8736484 C61.1672384,60.9646484 64.8032383,59.5066484 68.0882382,57.2476485 L58.7732384,55.2046485 Z" id="Fill-115" fill="#DA123A"></path>
                    <path d="M73.900978,56.1692685 C69.1696782,60.3614684 51.0949786,59.9420684 51.0949786,59.9420684 L50.4991787,42.4694689 C50.4991787,42.4694689 60.7456784,43.9715688 68.9221782,43.8059688 C79.0210779,43.6007688 79.0930779,51.5684686 73.900978,56.1692685" id="Fill-119" fill="#F52851"></path>
                    <path d="M13.4208896,23.1092094 L8.88308976,17.8109095 L4.03838989,23.1767094 C4.03838989,23.1767094 7.02188981,28.1942093 11.7702897,27.4031093 L13.4208896,23.1092094 Z" id="Fill-121" fill="#E4897B"></path>
                    <polygon id="Fill-123" fill="#E4897B" points="2.47499993 11.6311497 0.729899981 18.5449495 4.03829989 23.1772494 8.88299976 17.8105495"></polygon>
                    <polygon id="Fill-125" fill="#CE6F64" points="71.0050481 255.666863 71.3434481 263.559863 77.9575479 263.559863 77.6200479 255.666863"></polygon>
                    <polygon id="Fill-127" fill="#CE6F64" points="114.650637 255.666863 108.035637 255.666863 109.752837 263.559863 116.366037 263.559863"></polygon>
                    <path d="M74.985568,12.9608997 C69.0536682,10.2194997 67.1789682,-1.74239995 84.2411678,1.21949997 C84.2411678,1.21949997 81.6707678,4.06979989 86.8934677,5.86979984 C92.1161676,7.6697998 87.7439677,18.8576995 74.985568,12.9608997" id="Fill-129" fill="#263238"></path>
                    <path d="M87.8712277,21.9679194 C86.1720277,28.3057193 85.4997277,32.1019191 81.5892278,34.7371191 C75.705028,38.701619 68.3808282,34.1521191 68.1513282,27.4345193 C67.9452282,21.3874194 70.7577281,12.0382197 77.5590279,10.7611197 C84.2604278,9.50201975 89.5704276,15.6301196 87.8712277,21.9679194" id="Fill-131" fill="#E4897B"></path>
                    <path d="M84.0093278,4.44077988 C88.0467277,6.69887982 93.5205275,8.04527979 92.9706275,11.2465797 C92.2974276,15.1597796 96.2799274,12.7117797 95.3529275,18.5419795 C94.7472275,22.3489794 87.7245277,33.8851791 82.7817278,33.3217791 C75.351328,32.4748791 76.293628,21.1249794 76.268428,15.1606796 C76.254028,11.6443797 76.089328,0.0118799997 84.0093278,4.44077988" id="Fill-133" fill="#263238"></path>
                    <path d="M75.378418,9.49490975 C73.5784181,9.91970974 71.1934181,20.2949095 78.1657179,21.2444094 C86.1901177,22.3388094 75.378418,9.49490975 75.378418,9.49490975" id="Fill-135" fill="#263238"></path>
                    <path d="M75.560398,13.1775297 C73.3544981,13.3719296 68.3792982,10.7169297 68.9732982,6.72452982 C68.9732982,6.72452982 72.1439981,11.3964297 75.560398,13.1775297" id="Fill-137" fill="#263238"></path>
                    <path d="M78.8308179,22.0733994 C78.1396179,23.6474994 76.833718,24.8858993 75.569218,25.5446993 C73.667518,26.5346993 72.5983181,25.0865993 73.0285181,23.1830994 C73.4155181,21.4712994 74.872618,18.8909995 76.828318,18.6803995 C78.7561179,18.4724995 79.6201179,20.2733995 78.8308179,22.0733994" id="Fill-139" fill="#E4897B"></path>
                    <path d="M88.7308176,14.7485696 C90.0664176,14.0690696 93.1075175,12.5282697 93.9373175,8.15606978 C93.9373175,8.15606978 96.9073174,16.4513696 88.7308176,14.7485696" id="Fill-141" fill="#263238"></path>
                    <path d="M96.2428475,14.6611796 C95.5768475,14.2705796 94.0621475,13.3804796 91.9363476,14.2372796 C91.9363476,14.2372796 94.7065475,10.6417797 96.2428475,14.6611796" id="Fill-143" fill="#263238"></path>
                    <path d="M73.5424181,102.793947 C73.5424181,102.793947 81.0457179,153.321746 85.1650177,172.251445 C89.6758176,192.981145 106.670517,262.030943 106.670517,262.030943 L118.780917,262.030943 C118.780917,262.030943 107.574117,194.654245 105.000117,174.130645 C102.206517,151.854746 96.3610174,102.793947 96.3610174,102.793947 L73.5424181,102.793947 Z" id="Fill-147" fill="#FFFFFF"></path>
                    <path d="M104.736597,257.569733 C104.684397,257.569733 105.987597,262.220033 105.987597,262.220033 L119.610897,262.220033 L119.361597,258.070133 L104.736597,257.569733 Z" id="Fill-149" fill="#407BFF"></path>
                    <path d="M104.736597,257.569733 C104.684397,257.569733 105.987597,262.220033 105.987597,262.220033 L119.610897,262.220033 L119.361597,258.070133 L104.736597,257.569733 Z" id="Fill-151" fill="#F52851"></path>
                    <path d="M78.2841579,120.796557 C86.9610577,122.497557 86.0421577,154.852556 84.9981577,171.494455 C82.4970578,159.730556 78.8331579,137.095556 76.331158,121.030557 C76.908058,120.742557 77.5551579,120.652557 78.2841579,120.796557" id="Fill-155" fill="#DCDCDC"></path>
                    <path d="M60.9977684,102.793947 C60.9977684,102.793947 60.0869684,152.227346 60.8060684,172.390945 C61.5539684,193.362745 68.8790682,262.030943 68.8790682,262.030943 L80.0795679,262.030943 C80.0795679,262.030943 80.4908679,194.588545 80.9894679,173.991145 C81.5321678,151.537946 84.2429678,102.793947 84.2429678,102.793947 L60.9977684,102.793947 Z" id="Fill-159" fill="#FFFFFF"></path>
                    <path d="M71.2124081,253.985573 C71.1557081,253.985573 71.1071081,253.942373 71.1008081,253.884773 C69.1271082,234.879474 64.4714083,188.893075 63.8819083,172.395175 C63.2816083,155.555276 63.8270083,117.773277 64.0088083,106.595277 C64.0097083,106.534077 64.0601083,106.484577 64.1213083,106.484577 L64.1231083,106.484577 C64.1852083,106.484577 64.2347083,106.536777 64.2338083,106.598877 C64.0520083,117.775977 63.5066083,155.552576 64.1069083,172.386175 C64.6964083,188.877775 69.3503082,234.857874 71.3240081,253.861373 C71.3312081,253.923473 71.2862081,253.978373 71.2241081,253.985573 C71.2205081,253.985573 71.2160081,253.985573 71.2124081,253.985573" id="Fill-161" fill="#F52851"></path>
                    <path d="M66.7238382,257.569733 C66.6716382,257.569733 67.3556382,262.220033 67.3556382,262.220033 L80.9807379,262.220033 L81.3488378,258.070133 L66.7238382,257.569733 Z" id="Fill-165" fill="#407BFF"></path>
                    <path d="M66.7238382,257.569733 C66.6716382,257.569733 67.3556382,262.220033 67.3556382,262.220033 L80.9807379,262.220033 L81.3488378,258.070133 L66.7238382,257.569733 Z" id="Fill-167" fill="#F52851"></path>
                </g>
            </g>
        </g>
    </g>
</svg>