<?xml version="1.0" encoding="UTF-8"?>
<svg width="16px" height="16px" viewBox="0 0 16 16" version="1.1" xmlns="http://www.w3.org/2000/svg" xmlns:xlink="http://www.w3.org/1999/xlink">
    <!-- Generator: sketchtool 63.1 (101010) - https://sketch.com -->
    <title>B9D51CCA-C7F1-4E45-8928-E2DE7E54AE2A@1.5x</title>
    <desc>Created with sketchtool.</desc>
    <g id="Recruiter-Design" stroke="none" stroke-width="1" fill="none" fill-rule="evenodd">
        <g id="04_CV-Analysis_Job-Title" transform="translate(-337.000000, -51.000000)" stroke="#F52851" stroke-width="1.3">
            <g id="Search" transform="translate(319.000000, 34.000000)">
                <g id="Group-37" transform="translate(19.000000, 18.000000)">
                    <path d="M13.9234958,13.5525054 L9.84452999,9.46796058 C10.8849284,8.46327833 11.5294813,7.07823887 11.5294813,5.55073066 C11.5294813,2.48989918 8.94358337,0 5.76474066,0 C2.58589795,0 0,2.48989918 0,5.55073066 C0,8.61156213 2.58589795,11.1014613 5.76474066,11.1014613 C7.16008242,11.1014613 8.44067838,10.621191 9.43880205,9.82426462 L13.5276502,13.9188536 C13.5814545,13.9730393 13.6533765,14 13.725573,14 C13.7942009,14 13.8625542,13.9754182 13.9158095,13.9262546 C14.025065,13.8250198 14.0283592,13.6577049 13.9234958,13.5525054 Z M5.76474066,10.5728203 C2.8886841,10.5728203 0.54902292,8.32001661 0.54902292,5.55073066 C0.54902292,2.7814447 2.8886841,0.528641015 5.76474066,0.528641015 C8.64079723,0.528641015 10.9804584,2.7814447 10.9804584,5.55073066 C10.9804584,8.32001661 8.64052272,10.5728203 5.76474066,10.5728203 Z" id="icn_search"></path>
                </g>
            </g>
        </g>
    </g>
</svg>