<?xml version="1.0" encoding="UTF-8"?>
<svg width="18px" height="19px" viewBox="0 0 18 19" version="1.1" xmlns="http://www.w3.org/2000/svg" xmlns:xlink="http://www.w3.org/1999/xlink">
    <!-- Generator: sketchtool 63.1 (101010) - https://sketch.com -->
    <title>B552A43A-6AA4-4AB3-BF65-B02A5D028DF6@1.5x</title>
    <desc>Created with sketchtool.</desc>
    <g id="Recruiter-Design" stroke="none" stroke-width="1" fill="none" fill-rule="evenodd">
        <g id="01_Internapp_Registration-2.1" transform="translate(-650.000000, -391.000000)" fill="#FFFFFF" fill-rule="nonzero">
            <g id="Group-3" transform="translate(358.000000, 273.000000)">
                <g id="Group-2">
                    <g id="Input/label/success-value-Copy-7" transform="translate(0.000000, 79.000000)">
                        <g id="Input/label/value" transform="translate(0.000000, 0.857143)">
                            <g id="Input/text/value" transform="translate(0.000000, 27.571429)">
                                <path d="M297.4,14.3 C297.4,14.8000001 297,15.2000001 296.5,15.2000001 C296,15.2000001 295.6,14.8000001 295.6,14.3 L295.6,11.9 C295.6,11.4 296,11 296.5,11 C297,11 297.4,11.4 297.4,11.9 L297.4,14.3 Z M306.2,11.9 C306.2,11.4 305.8,11 305.3,11 C304.8,11 304.4,11.4 304.4,11.9 L304.4,14.3 C304.4,14.8000001 304.8,15.2000001 305.3,15.2000001 C305.8,15.2000001 306.2,14.8000001 306.2,14.3 L306.2,11.9 Z M310,14.18 L310,28.0000003 C310,28.5400003 309.56,28.9800003 309,28.9800003 L293,28.9800003 C292.44,28.9800003 292,28.5400003 292,28.0000003 L292,14.18 C292,13.64 292.44,13.2 293,13.2 L295,13.2 L295,14.3 C295,15.1600001 295.64,15.8400001 296.5,15.8400001 C297.36,15.8400001 298,15.1400001 298,14.3 L298,13.2 L303.8,13.2 L303.8,14.3 C303.8,15.1600001 304.44,15.8400001 305.3,15.8400001 C306.16,15.8400001 306.8,15.1400001 306.8,14.3 L306.8,13.2 L308.98,13.2 C309.52,13.2 310,13.64 310,14.18 Z M308.4,17.7800001 C308.4,17.5800001 308.22,17.4000001 308,17.4000001 L294,17.4000001 C293.78,17.4000001 293.6,17.5600001 293.6,17.7800001 L293.6,27.0200002 C293.6,27.2200002 293.78,27.4000001 294,27.4000001 L308,27.4000001 C308.22,27.4000001 308.4,27.2400002 308.4,27.0200002 L308.4,17.7800001 Z" id="btn_calendar_registration_unselected"></path>
                            </g>
                        </g>
                    </g>
                </g>
            </g>
        </g>
    </g>
</svg>