<?xml version="1.0" encoding="UTF-8"?>
<svg width="18px" height="18px" viewBox="0 0 18 18" version="1.1" xmlns="http://www.w3.org/2000/svg" xmlns:xlink="http://www.w3.org/1999/xlink">
    <!-- Generator: sketchtool 63.1 (101010) - https://sketch.com -->
    <title>5B35F6E6-5AEA-48AB-BC73-118FA2AD0F53@1.5x</title>
    <desc>Created with sketchtool.</desc>
    <g id="Recruiter-Design" stroke="none" stroke-width="1" fill="none" fill-rule="evenodd">
        <g id="10_Notification" transform="translate(-1167.000000, -568.000000)" fill="#333539" fill-rule="nonzero">
            <g id="Input/label/success-value-Copy-3" transform="translate(1040.000000, 528.000000)">
                <g id="Input/label/value" transform="translate(0.000000, 0.857143)">
                    <g id="Input/text/value" transform="translate(0.000000, 0.571429)">
                        <g id="btn_calendar_task_unselected" transform="translate(127.000000, 38.571429)">
                            <path d="M5.40000008,3.30000005 C5.40000008,3.80000006 5.00000007,4.20000006 4.50000007,4.20000006 C4.00000006,4.20000006 3.60000005,3.80000006 3.60000005,3.30000005 L3.60000005,0.900000013 C3.60000005,0.400000006 4.00000006,0 4.50000007,0 C5.00000007,0 5.40000008,0.400000006 5.40000008,0.900000013 L5.40000008,3.30000005 Z M14.2000002,0.900000013 C14.2000002,0.400000006 13.8000002,0 13.3000002,0 C12.8000002,0 12.4000002,0.400000006 12.4000002,0.900000013 L12.4000002,3.30000005 C12.4000002,3.80000006 12.8000002,4.20000006 13.3000002,4.20000006 C13.8000002,4.20000006 14.2000002,3.80000006 14.2000002,3.30000005 L14.2000002,0.900000013 Z M18,3.18000005 L18,17.0000003 C18,17.5400003 17.5600003,17.9800003 17,17.9800003 L1,17.9800003 C0.440000007,17.9800003 0,17.5400003 0,17.0000003 L0,3.18000005 C0,2.64000004 0.440000007,2.20000003 1,2.20000003 L3,2.20000003 L3,3.30000005 C3,4.16000006 3.64000005,4.84000007 4.5,4.84000007 C5.36000008,4.84000007 6,4.14000006 6,3.30000005 L6,2.20000003 L11.8000002,2.20000003 L11.8000002,3.30000005 C11.8000002,4.16000006 12.4400002,4.84000007 13.3000002,4.84000007 C14.1600002,4.84000007 14.8000002,4.14000006 14.8000002,3.30000005 L14.8000002,2.20000003 L16.9800003,2.20000003 C17.5200003,2.20000003 18,2.64000004 18,3.18000005 Z M16.4000002,6.7800001 C16.4000002,6.5800001 16.2200002,6.4000001 16.0000002,6.4000001 L2.00000003,6.4000001 C1.78000003,6.4000001 1.60000002,6.5600001 1.60000002,6.7800001 L1.60000002,16.0200002 C1.60000002,16.2200002 1.78000003,16.4000001 2.00000003,16.4000001 L16.0000002,16.4000001 C16.2200002,16.4000001 16.4000002,16.2400002 16.4000002,16.0200002 L16.4000002,6.7800001 Z" id="Shape"></path>
                        </g>
                    </g>
                </g>
            </g>
        </g>
    </g>
</svg>