<?xml version="1.0" encoding="UTF-8"?>
<svg width="49px" height="50px" viewBox="0 0 49 50" version="1.1" xmlns="http://www.w3.org/2000/svg" xmlns:xlink="http://www.w3.org/1999/xlink">
    <!-- Generator: sketchtool 63.1 (101010) - https://sketch.com -->
    <title>1B8BBFE9-3DA2-4193-AC79-8B169959B616@1.5x</title>
    <desc>Created with sketchtool.</desc>
    <g id="Recruiter-Design" stroke="none" stroke-width="1" fill="none" fill-rule="evenodd">
        <g id="02_Internapp_Dashboard" transform="translate(-1108.000000, -446.000000)">
            <g id="CV-Analysis-Copy" transform="translate(1078.000000, 205.000000)">
                <g id="Group-26" transform="translate(0.000000, 49.000000)">
                    <g id="Group-25">
                        <g id="Group-29" transform="translate(30.000000, 192.000000)">
                            <g id="icn_hold">
                                <rect id="Rectangle-Copy-4" stroke="#E6E5F2" fill="#FFFFFF" x="0.5" y="0.5" width="48" height="49" rx="15"></rect>
                                <g id="hold" transform="translate(13.000000, 13.000000)" fill="#FDBD5F" fill-rule="nonzero">
                                    <g id="Group" transform="translate(0.911263, 0.000000)">
                                        <g transform="translate(0.569966, 0.211604)" id="Path">
                                            <path d="M18.5187713,6.88266303 C18.2164457,6.48907139 17.6583062,6.41961404 17.2629574,6.69744344 C16.8676085,6.99842528 16.7978411,7.55408407 17.0769109,7.94767571 C18.1466783,9.35997514 18.7048178,11.050104 18.7048178,12.8328426 C18.7280737,17.3475702 15.0303992,21.0056573 10.5187713,21.0056573 C6.00714342,21.0056573 2.30946901,17.3475702 2.30946901,12.8328426 C2.30946901,8.34126736 5.98388761,4.66002787 10.5187713,4.66002787 L10.8443527,4.66002787 L10.8443527,6.0260224 C10.8443527,6.58168119 11.4722597,6.92896793 11.937376,6.65113854 L15.7513295,4.38219848 C16.2164457,4.10436908 16.2164457,3.40979559 15.7513295,3.1319662 L11.9606318,0.886178588 C11.4722597,0.608349193 10.8676085,0.955635937 10.8676085,1.51129473 L10.8676085,2.87728925 L10.5187713,2.87728925 C5.00714342,2.87728925 0.518771331,7.34571203 0.518771331,12.8328426 C0.518771331,18.3199731 5.00714342,22.7883959 10.5187713,22.7883959 C16.0303992,22.7883959 20.5187713,18.3199731 20.5187713,12.8328426 C20.5187713,10.6796648 19.8210969,8.61909675 18.5187713,6.88266303 Z"></path>
                                            <path d="M11.6581213,12.0064121 L9.30708435,8.23416078 C9.03485903,7.81759315 8.46566062,7.65559462 7.99545324,7.91016373 C7.54999362,8.16473284 7.37675932,8.69701371 7.64898464,9.13672399 L10.2722469,13.3486856 C10.4454812,13.6263974 10.767202,13.7883959 11.0889229,13.7883959 L14.5536088,13.7883959 C15.0733117,13.7883959 15.5187713,13.3949709 15.5187713,12.8858327 C15.5187713,12.3766945 15.0980595,11.9832695 14.5536088,11.9832695 L11.6581213,11.9832695 L11.6581213,12.0064121 Z"></path>
                                        </g>
                                    </g>
                                </g>
                            </g>
                        </g>
                    </g>
                </g>
            </g>
        </g>
    </g>
</svg>