<?xml version="1.0" encoding="UTF-8"?>
<svg width="49px" height="50px" viewBox="0 0 49 50" version="1.1" xmlns="http://www.w3.org/2000/svg" xmlns:xlink="http://www.w3.org/1999/xlink">
    <!-- Generator: sketchtool 63.1 (101010) - https://sketch.com -->
    <title>BA4076E5-91F3-40F9-BE6E-3366A9AD7A45@1.5x</title>
    <desc>Created with sketchtool.</desc>
    <g id="Recruiter-Design" stroke="none" stroke-width="1" fill="none" fill-rule="evenodd">
        <g id="02_Internapp_Dashboard" transform="translate(-1108.000000, -527.000000)">
            <g id="CV-Analysis-Copy" transform="translate(1078.000000, 205.000000)">
                <g id="Group-26" transform="translate(0.000000, 49.000000)">
                    <g id="Group-25">
                        <g id="Group-31" transform="translate(30.000000, 273.000000)">
                            <g id="icn_rejected">
                                <rect id="Rectangle-Copy-6" stroke="#E6E5F2" fill="#FFFFFF" x="0.5" y="0.5" width="48" height="49" rx="15"></rect>
                                <g id="Group-13" transform="translate(16.000000, 15.000000)" stroke="#F0664E" stroke-width="2">
                                    <path d="M16,8 L16,17 C16,19.209139 14.2155122,21 12.0142349,21 L5.98576512,21 C3.78448783,21 2,19.209139 2,17 L2,8" id="Path" stroke-linecap="round" stroke-linejoin="round"></path>
                                    <line x1="0" y1="4.5" x2="18" y2="4.5" id="Line-3" stroke-linecap="round" stroke-linejoin="round"></line>
                                    <path d="M5,5.23619425 L5,3.76380575 C5,2.5249541 5.13837358,2.02362033 5.39821024,1.53473144 C5.6580469,1.04584256 6.03934664,0.662159695 6.52519895,0.400699056 C7.01105126,0.139238417 7.50927116,2.43804976e-13 8.74042807,2.43804976e-13 L9.25957193,2.43804976e-13 C10.4907288,2.43804976e-13 10.9889487,0.139238417 11.474801,0.400699056 C11.9606534,0.662159695 12.3419531,1.04584256 12.6017898,1.53473145 C12.8616264,2.02362033 13,2.5249541 13,3.76380575 L13,5.23619425" id="Path"></path>
                                </g>
                            </g>
                        </g>
                    </g>
                </g>
            </g>
        </g>
    </g>
</svg>