<?xml version="1.0" encoding="UTF-8"?>
<svg width="49px" height="50px" viewBox="0 0 49 50" version="1.1" xmlns="http://www.w3.org/2000/svg" xmlns:xlink="http://www.w3.org/1999/xlink">
    <!-- Generator: sketchtool 63.1 (101010) - https://sketch.com -->
    <title>CC2D4F69-16A5-4698-81D5-3C7F6128E760@1.5x</title>
    <desc>Created with sketchtool.</desc>
    <g id="Recruiter-Design" stroke="none" stroke-width="1" fill="none" fill-rule="evenodd">
        <g id="02_Internapp_Dashboard" transform="translate(-1108.000000, -284.000000)">
            <g id="CV-Analysis-Copy" transform="translate(1078.000000, 205.000000)">
                <g id="Group-26" transform="translate(0.000000, 49.000000)">
                    <g id="Group-25">
                        <g id="Group-17" transform="translate(30.000000, 30.000000)">
                            <g id="icn_applicants">
                                <rect id="Rectangle" stroke="#E6E5F2" fill="#FFFFFF" x="0.5" y="0.5" width="48" height="49" rx="15"></rect>
                                <path d="M22.4105263,36 C22.0736842,36 21.7368421,35.8754325 21.4631579,35.6470588 C21,35.2525952 20.8315789,34.6089965 21.0421053,34.0484429 C21.3789474,33.2179931 21.5052632,32.4290657 21.5263158,31.7854671 L20.1578947,31.7854671 C17.3157895,31.7647059 15,29.4809689 15,26.6574394 L15,23.1072664 C15,20.283737 17.3157895,18 20.1789474,18 L29.8210526,18 C32.6842105,18 35,20.283737 35,23.1072664 L35,26.6782007 C35,29.4809689 32.6842105,31.7647059 29.8210526,31.7647059 L27.5263158,31.7647059 C26.4947368,33.0934256 24.9578947,34.7750865 23.1263158,35.7923875 C22.8947368,35.9377163 22.6631579,36 22.4105263,36 Z M20.1789474,19.4948097 C18.1578947,19.4948097 16.5157895,21.1141869 16.5157895,23.1072664 L16.5157895,26.6782007 C16.5157895,28.6712803 18.1578947,30.2906574 20.1789474,30.2906574 L22.3052632,30.2906574 C22.7052632,30.2906574 23.0421053,30.6020761 23.0631579,30.9965398 C23.1052632,31.8062284 23.0421053,33.0519031 22.5368421,34.4221453 C24.3052632,33.384083 25.8,31.5778547 26.5368421,30.5813149 C26.6842105,30.3944637 26.9157895,30.2698962 27.1473684,30.2698962 L29.8210526,30.2698962 C31.8421053,30.2698962 33.4842105,28.650519 33.4842105,26.6574394 L33.4842105,23.1072664 C33.4842105,21.1141869 31.8421053,19.4948097 29.8210526,19.4948097 L20.1789474,19.4948097 Z" id="Shape" fill="#73CBFF" fill-rule="nonzero"></path>
                                <circle id="Oval" fill="#73CBFF" cx="20.5" cy="24.5" r="1.5"></circle>
                                <circle id="Oval-Copy" fill="#73CBFF" cx="25.5" cy="24.5" r="1.5"></circle>
                                <circle id="Oval-Copy-2" fill="#73CBFF" cx="30.5" cy="24.5" r="1.5"></circle>
                            </g>
                        </g>
                    </g>
                </g>
            </g>
        </g>
    </g>
</svg>