<?xml version="1.0" encoding="UTF-8"?>
<svg width="30px" height="30px" viewBox="0 0 30 30" version="1.1" xmlns="http://www.w3.org/2000/svg" xmlns:xlink="http://www.w3.org/1999/xlink">
    <!-- Generator: sketchtool 63.1 (101010) - https://sketch.com -->
    <title>76AA2324-04D8-4712-9F08-66E0AF5035A1@1.5x</title>
    <desc>Created with sketchtool.</desc>
    <g id="Recruiter-Design" stroke="none" stroke-width="1" fill="none" fill-rule="evenodd">
        <g id="03_CV-Analysis_change-date" transform="translate(-672.000000, -44.000000)" fill="#F52851" fill-rule="nonzero">
            <g id="icn_calender_selected" transform="translate(672.000000, 44.000000)">
                <g id="Group">
                    <path d="M27,4 L3,4 C1.34314575,4 -2.22044605e-16,5.34314575 -2.22044605e-16,7 L-2.22044605e-16,27 C-2.22044605e-16,28.6568542 1.34314575,30 3,30 L27,30 C28.6568542,30 30,28.6568542 30,27 L30,7 C30,5.34314575 28.6568542,4 27,4 Z M3,6 L27,6 C27.5522847,6 28,6.44771525 28,7 L28,9 L2,9 L2,7 C2,6.44771525 2.44771525,6 3,6 Z M27,28 L3,28 C2.44771525,28 2,27.5522847 2,27 L2,11 L28,11 L28,27 C28,27.5522847 27.5522847,28 27,28 Z" id="Shape"></path>
                    <path d="M8,2 L12,2 C12.5522847,2 13,1.55228475 13,1 C13,0.44771525 12.5522847,0 12,0 L8,0 C7.44771525,0 7,0.44771525 7,1 C7,1.55228475 7.44771525,2 8,2 Z" id="Path"></path>
                    <path d="M18,2 L22,2 C22.5522847,2 23,1.55228475 23,1 C23,0.44771525 22.5522847,0 22,0 L18,0 C17.4477153,0 17,0.44771525 17,1 C17,1.55228475 17.4477153,2 18,2 Z" id="Path"></path>
                    <circle id="Oval" stroke="#F52851" cx="15" cy="16" r="1"></circle>
                    <circle id="Oval" stroke="#F52851" cx="8" cy="16" r="1"></circle>
                    <circle id="Oval" stroke="#F52851" cx="22" cy="16" r="1"></circle>
                    <circle id="Oval" stroke="#F52851" cx="15" cy="23" r="1"></circle>
                    <circle id="Oval" stroke="#F52851" cx="8" cy="23" r="1"></circle>
                    <circle id="Oval" stroke="#F52851" cx="22" cy="23" r="1"></circle>
                </g>
            </g>
        </g>
    </g>
</svg>