<svg xmlns="http://www.w3.org/2000/svg" width="78.018" height="74.831" viewBox="0 0 78.018 74.831"><defs><style>.a{fill:rgba(178,178,178,0.25);}.a,.b,.c{fill-rule:evenodd;}.b{fill:rgba(61,65,114,0.2);}.c,.d{fill:none;stroke-width:2.7px;}.c{stroke:rgba(255,255,255,0.25);}.d{stroke:rgba(178,178,178,0.25);}</style></defs><g transform="translate(0 -0.768)"><g transform="translate(-677 -497)"><g transform="translate(628 375)"><g transform="translate(49 122)"><path class="a" d="M20.236,14.031A10.43,10.43,0,1,1,9.8,24.461a10.44,10.44,0,0,1,10.431-10.43m0,23.11A12.68,12.68,0,1,0,7.555,24.462,12.693,12.693,0,0,0,20.236,37.141"/><path class="b" d="M55.325,3.018a18.75,18.75,0,1,1-18.75,18.75,18.772,18.772,0,0,1,18.75-18.75m0,39.749a21,21,0,1,0-21-21,21.024,21.024,0,0,0,21,21"/><path class="b" d="M41.132,20.642A14.177,14.177,0,0,1,44.5,12.529l2.556,2.556,1.591-1.591-2.556-2.556A14.181,14.181,0,0,1,54.2,7.574v3.618h2.25V7.574a14.177,14.177,0,0,1,8.113,3.364l-2.556,2.556L63.6,15.085l2.556-2.556a14.175,14.175,0,0,1,3.364,8.114H65.9v2.25h3.619a14.183,14.183,0,0,1-3.364,8.114L63.6,28.451l-1.591,1.59L64.563,32.6a14.17,14.17,0,0,1-8.113,3.363V32.343H54.2v3.618A14.166,14.166,0,0,1,46.086,32.6l2.556-2.556-1.591-1.591L44.5,31.006a14.174,14.174,0,0,1-3.363-8.114H44.75v-2.25ZM55.325,38.267a16.5,16.5,0,1,0-16.5-16.5,16.519,16.519,0,0,0,16.5,16.5Z"/><path class="b" d="M61.425,20.642H56.45v-6.3H54.2v8.55h7.225Z"/><g transform="translate(0 38.698)"><path class="a" d="M37.624,34.65,42.38,13.069H74.575L69.795,34.65ZM2.25,21.206A18.409,18.409,0,0,1,9.985,6.224L20.741,25.368,30.558,5.684A18.427,18.427,0,0,1,38.9,18.418L35.321,34.649H32.128V23.857h-2.25V34.649H10.618V23.857H8.368V34.649H2.25ZM23.681,3.034,22.2,6.086H18.427L16.9,3.166a18.413,18.413,0,0,1,3.78-.393,18.059,18.059,0,0,1,3,.261Zm1.678,8.033L24.122,7.291l1.806-3.737A18.349,18.349,0,0,1,28.6,4.58ZM18.577,8.335h3.518l1.835,5.6-3.308,6.634-3.75-6.675ZM16.535,7.323,15.351,11.18,11.885,5.01A18.4,18.4,0,0,1,14.69,3.793ZM72.1,34.65l5.274-23.831h-36.8l-.636,2.887A20.669,20.669,0,0,0,0,21.206V36.9H77.625V34.65Z"/></g><path class="c" d="M35.941,74.9l5.767-24.431,34.617-.123-5.557,24.43"/><line class="d" x2="76.705" transform="translate(0.92 74.08)"/></g></g></g></g></svg>