<svg xmlns="http://www.w3.org/2000/svg" width="79.125" height="76.762" viewBox="0 0 79.125 76.762"><defs><style>.a{fill:rgba(178,178,178,0.25);}.a,.b,.c{fill-rule:evenodd;}.b{fill:rgba(178,178,178,0.2);}.c{fill:rgba(61,65,114,0.2);}</style></defs><g transform="translate(0 0)"><g transform="translate(-904 -485)"><g transform="translate(852 365)"><g transform="translate(52 120)"><path class="a" d="M40.034,18.135a9.239,9.239,0,1,1-9.239,9.239,9.25,9.25,0,0,1,9.239-9.239m0,20.729A11.489,11.489,0,1,0,28.545,27.374,11.5,11.5,0,0,0,40.034,38.864"/><path class="a" d="M58.565,74.512H51.533V63.658h-2.25V74.512H29.914V63.658h-2.25V74.512H21.5V60.994a18.509,18.509,0,0,1,7.781-15.067l10.808,19.24,9.869-19.794a18.521,18.521,0,0,1,8.6,15.62Zm-35.841-25c-.235.344-1.3,2.252-1.3,2.252A20.656,20.656,0,0,0,19.255,61V76.761h41.56V60.994A21.326,21.326,0,0,0,58.5,51.477c-.3-.61-1.436-2.375-1.436-2.375a20.758,20.758,0,0,0-34.307.365Zm20.332-6.785L41.569,45.8h-3.8l-1.539-2.945a18.494,18.494,0,0,1,3.807-.4,18.789,18.789,0,0,1,3.021.268Zm1.679,8.089-1.25-3.811,1.823-3.771a18.483,18.483,0,0,1,2.685,1.047Zm-6.819-2.766h3.544l1.847,5.63-3.331,6.68L36.2,53.644Zm-2.043-1.013-1.194,3.893-3.492-6.216a18.461,18.461,0,0,1,2.829-1.231Z"/><path class="b" d="M7.943,10.5h61.2V7.05H7.943Zm61.2,18.975h2.25V4.8H5.693V30.524h2.25V12.749h61.2Z"/><path class="b" d="M10.005,9.712h2.084V7.462H10.005Z"/><path class="b" d="M13.605,9.712h2.083V7.462H13.605Z"/><path class="b" d="M17.205,9.712h2.083V7.462H17.205Z"/><path class="b" d="M64.905,9.712h2.084V7.462H64.905Z"/><path class="b" d="M27.668,17.4v-2.25H9.922V26.1H25.717v-2.25H12.172V17.4Z"/><path class="b" d="M64.823,23.849h-10.6V26.1H67.073V15.149h-15.7V17.4H64.823Z"/><path class="b" d="M69.976,43.35h3.049a2.928,2.928,0,0,0,2.925-2.925V2.925A2.929,2.929,0,0,0,73.025,0H4.323A2.929,2.929,0,0,0,1.4,2.925v37.5A2.928,2.928,0,0,0,4.323,43.35H9.1L8.208,41.1H4.323a.676.676,0,0,1-.675-.675V2.925a.675.675,0,0,1,.675-.675h68.7a.676.676,0,0,1,.675.675v37.5a.676.676,0,0,1-.675.675h-2.13Z"/><path class="c" d="M22.683,49.615A16.177,16.177,0,0,0,0,64.425V76.761H18.576V74.513H9.364V67.124H7.114v7.388H2.251V64.426a13.935,13.935,0,0,1,12.8-13.868V62.505H17.3V50.567a13.688,13.688,0,0,1,4.237,1.025Z"/><path class="c" d="M62.951,45.494a6.811,6.811,0,1,1,6.809-6.811,6.82,6.82,0,0,1-6.809,6.811M16.15,31.872a6.811,6.811,0,1,1-6.81,6.811,6.819,6.819,0,0,1,6.81-6.811M8.792,43.949A9.146,9.146,0,1,0,7.619,41.7a16.017,16.017,0,0,0,1.174,2.25M71.483,41.7a9.082,9.082,0,1,0-1.174,2.25,13.559,13.559,0,0,0,1.174-2.25"/><path class="c" d="M79.125,76.761V64.426A16.133,16.133,0,0,0,57.215,49.32l1.179,1.953a13.758,13.758,0,0,1,4.036-.745V62.506h2.25V50.619a13.938,13.938,0,0,1,12.2,13.807V74.512H71.392V67.124h-2.25v7.388H61.108l.027,2.249h17.99"/></g></g></g></g></svg>