<?xml version="1.0" encoding="UTF-8"?>
<svg width="31px" height="27px" viewBox="0 0 31 27" version="1.1" xmlns="http://www.w3.org/2000/svg" xmlns:xlink="http://www.w3.org/1999/xlink">
    <!-- Generator: sketchtool 63.1 (101010) - https://sketch.com -->
    <title>C2AA641F-FDFC-482B-8B71-27BC2FCA746A@1.5x</title>
    <desc>Created with sketchtool.</desc>
    <g id="Recruiter-Design" stroke="none" stroke-width="1" fill="none" fill-rule="evenodd" opacity="0.900000036">
        <g id="01_Internapp_Registration-3" transform="translate(-899.000000, -805.000000)" fill="#F52851" fill-rule="nonzero">
            <g id="Group-6-Copy" transform="translate(750.000000, 734.000000)">
                <g id="Input/label/success-value-Copy-9" transform="translate(0.000000, 54.000000)">
                    <g id="Input/label/value" transform="translate(0.000000, 0.857143)">
                        <g id="Input/text/value" transform="translate(0.000000, 0.571429)">
                            <g id="icn_upload_profile" transform="translate(149.000000, 16.000000)">
                                <path d="M10.9416999,0.377288679 L9.05519995,4.15028866 L2.64109999,4.15028866 C1.17793059,4.15028866 0,5.32821548 0,6.79137355 L0,23.3926074 C0,24.8557768 1.17793059,26.0337074 2.64109999,26.0337074 L28.2974998,26.0337074 C29.7606692,26.0337074 30.9385998,24.8557768 30.9385998,23.3926074 L30.9385998,6.79137355 C30.9385998,5.32821548 29.7606692,4.15028866 28.2974998,4.15028866 L21.8833999,4.15028866 L19.9968999,0.377288679 L10.9416999,0.377288679 Z M15.4692999,7.16867355 C19.8318311,7.16867355 23.3925999,10.72948 23.3925999,15.0919697 C23.3925999,19.454501 19.8318311,23.0153074 15.4692999,23.0153074 C11.1068064,23.0153074 7.54599996,19.454501 7.54599996,15.0919697 C7.54599996,10.72948 11.1068442,7.16867355 15.4692999,7.16867355 Z M15.4692999,9.43247354 C12.3302771,9.43247354 9.80979995,11.9529507 9.80979995,15.0919697 C9.80979995,18.2310303 12.3303149,20.7515074 15.4692999,20.7515074 C18.6083982,20.7515074 21.1287999,18.2310303 21.1287999,15.0919697 C21.1287999,11.9529507 18.6083982,9.43247354 15.4692999,9.43247354 Z" id="Shape"></path>
                            </g>
                        </g>
                    </g>
                </g>
            </g>
        </g>
    </g>
</svg>