<?xml version="1.0" encoding="UTF-8"?>
<svg width="60px" height="60px" viewBox="0 0 60 60" version="1.1" xmlns="http://www.w3.org/2000/svg" xmlns:xlink="http://www.w3.org/1999/xlink">
    <!-- Generator: sketchtool 63.1 (101010) - https://sketch.com -->
    <title>5001999A-FEB5-4A85-8D67-0B8D581C813F@1.5x</title>
    <desc>Created with sketchtool.</desc>
    <g id="Recruiter-Design" stroke="none" stroke-width="1" fill="none" fill-rule="evenodd">
        <g id="10_Notification" transform="translate(-1040.000000, -778.000000)" fill="#C1BEBE" fill-rule="nonzero">
            <g id="Group-9" transform="translate(1040.000000, 748.000000)">
                <g id="member" transform="translate(0.000000, 30.000000)">
                    <path d="M29.9076923,0 C13.4769231,0 0,13.4769231 0,29.9076923 C0,46.5230769 13.4769231,60 29.9076923,60 C46.5230769,60 60,46.5230769 60,29.9076923 C60,13.4769231 46.5230769,0 29.9076923,0 Z M29.9076923,15.1384615 C35.2615385,15.1384615 39.5076923,19.3846154 39.5076923,24.5538462 C39.5076923,29.9076923 35.2615385,34.1538462 29.9076923,34.1538462 C24.7384615,34.1538462 20.4923077,29.9076923 20.4923077,24.5538462 C20.4923077,19.3846154 24.7384615,15.1384615 29.9076923,15.1384615 Z M21.9692308,35.8153846 L37.8461538,35.8153846 C44.8615385,35.8153846 48.7384615,40.9846154 49.1076923,47.2615385 C49.1076923,48 48.9230769,48.5538462 48.3692308,49.1076923 C38.0307692,58.7076923 21.7846154,58.7076923 11.4461538,49.1076923 C11.0769231,48.5538462 10.7076923,48 10.8923077,47.2615385 C11.2615385,40.9846154 15.1384615,35.8153846 21.9692308,35.8153846 Z" id="icn_member_placeholder"></path>
                </g>
            </g>
        </g>
    </g>
</svg>